<svg xmlns="http://www.w3.org/2000/svg" xmlns:xlink="http://www.w3.org/1999/xlink" width="5750" height="3155" overflow="hidden"><defs><clipPath id="clip0"><rect width="5750" height="3155" x="1271" y="130"/></clipPath><clipPath id="clip1"><rect width="5747" height="3153" x="1272" y="130"/></clipPath><clipPath id="clip2"><rect width="5457" height="2492" x="1515" y="491"/></clipPath><linearGradient id="fill3" x1="1672" x2="1672" y1="2776" y2="2980" gradientUnits="userSpaceOnUse" spreadMethod="reflect"><stop offset="0" stop-color="#6083CB"/><stop offset=".5" stop-color="#3E70CA"/><stop offset="1" stop-color="#2E61BA"/></linearGradient><clipPath id="clip4"><rect width="5457" height="2492" x="1515" y="491"/></clipPath><linearGradient id="fill5" x1="2762.5" x2="2762.5" y1="2749" y2="2980" gradientUnits="userSpaceOnUse" spreadMethod="reflect"><stop offset="0" stop-color="#6083CB"/><stop offset=".5" stop-color="#3E70CA"/><stop offset="1" stop-color="#2E61BA"/></linearGradient><clipPath id="clip6"><rect width="5457" height="2492" x="1515" y="491"/></clipPath><linearGradient id="fill7" x1="3853.5" x2="3853.5" y1="2519" y2="2980" gradientUnits="userSpaceOnUse" spreadMethod="reflect"><stop offset="0" stop-color="#6083CB"/><stop offset=".5" stop-color="#3E70CA"/><stop offset="1" stop-color="#2E61BA"/></linearGradient><clipPath id="clip8"><rect width="5457" height="2492" x="1515" y="491"/></clipPath><linearGradient id="fill9" x1="4944" x2="4944" y1="1608" y2="2980" gradientUnits="userSpaceOnUse" spreadMethod="reflect"><stop offset="0" stop-color="#6083CB"/><stop offset=".5" stop-color="#3E70CA"/><stop offset="1" stop-color="#2E61BA"/></linearGradient><clipPath id="clip10"><rect width="5457" height="2492" x="1515" y="491"/></clipPath><linearGradient id="fill11" x1="6034.5" x2="6034.5" y1="1008" y2="2980" gradientUnits="userSpaceOnUse" spreadMethod="reflect"><stop offset="0" stop-color="#6083CB"/><stop offset=".5" stop-color="#3E70CA"/><stop offset="1" stop-color="#2E61BA"/></linearGradient><clipPath id="clip12"><rect width="5457" height="2492" x="1515" y="491"/></clipPath><linearGradient id="fill13" x1="1866.5" x2="1866.5" y1="2868" y2="2980" gradientUnits="userSpaceOnUse" spreadMethod="reflect"><stop offset="0" stop-color="#F18C55"/><stop offset=".5" stop-color="#F67B28"/><stop offset="1" stop-color="#E56B17"/></linearGradient><clipPath id="clip14"><rect width="5457" height="2492" x="1515" y="491"/></clipPath><linearGradient id="fill15" x1="2957" x2="2957" y1="2852" y2="2980" gradientUnits="userSpaceOnUse" spreadMethod="reflect"><stop offset="0" stop-color="#F18C55"/><stop offset=".5" stop-color="#F67B28"/><stop offset="1" stop-color="#E56B17"/></linearGradient><clipPath id="clip16"><rect width="5457" height="2492" x="1515" y="491"/></clipPath><linearGradient id="fill17" x1="4047.5" x2="4047.5" y1="2762" y2="2980" gradientUnits="userSpaceOnUse" spreadMethod="reflect"><stop offset="0" stop-color="#F18C55"/><stop offset=".5" stop-color="#F67B28"/><stop offset="1" stop-color="#E56B17"/></linearGradient><clipPath id="clip18"><rect width="5457" height="2492" x="1515" y="491"/></clipPath><linearGradient id="fill19" x1="5138.5" x2="5138.5" y1="2568" y2="2980" gradientUnits="userSpaceOnUse" spreadMethod="reflect"><stop offset="0" stop-color="#F18C55"/><stop offset=".5" stop-color="#F67B28"/><stop offset="1" stop-color="#E56B17"/></linearGradient><clipPath id="clip20"><rect width="5457" height="2492" x="1515" y="491"/></clipPath><linearGradient id="fill21" x1="6229" x2="6229" y1="2429" y2="2980" gradientUnits="userSpaceOnUse" spreadMethod="reflect"><stop offset="0" stop-color="#F18C55"/><stop offset=".5" stop-color="#F67B28"/><stop offset="1" stop-color="#E56B17"/></linearGradient><clipPath id="clip22"><rect width="5457" height="2492" x="1515" y="491"/></clipPath><linearGradient id="fill23" x1="2060.5" x2="2060.5" y1="2895" y2="2980" gradientUnits="userSpaceOnUse" spreadMethod="reflect"><stop offset="0" stop-color="#AFAFAF"/><stop offset=".5" stop-color="#A5A5A5"/><stop offset="1" stop-color="#929292"/></linearGradient><clipPath id="clip24"><rect width="5457" height="2492" x="1515" y="491"/></clipPath><linearGradient id="fill25" x1="3151.5" x2="3151.5" y1="2888" y2="2980" gradientUnits="userSpaceOnUse" spreadMethod="reflect"><stop offset="0" stop-color="#AFAFAF"/><stop offset=".5" stop-color="#A5A5A5"/><stop offset="1" stop-color="#929292"/></linearGradient><clipPath id="clip26"><rect width="5457" height="2492" x="1515" y="491"/></clipPath><linearGradient id="fill27" x1="4242" x2="4242" y1="2836" y2="2980" gradientUnits="userSpaceOnUse" spreadMethod="reflect"><stop offset="0" stop-color="#AFAFAF"/><stop offset=".5" stop-color="#A5A5A5"/><stop offset="1" stop-color="#929292"/></linearGradient><clipPath id="clip28"><rect width="5457" height="2492" x="1515" y="491"/></clipPath><linearGradient id="fill29" x1="5332.5" x2="5332.5" y1="2753" y2="2980" gradientUnits="userSpaceOnUse" spreadMethod="reflect"><stop offset="0" stop-color="#AFAFAF"/><stop offset=".5" stop-color="#A5A5A5"/><stop offset="1" stop-color="#929292"/></linearGradient><clipPath id="clip30"><rect width="5457" height="2492" x="1515" y="491"/></clipPath><linearGradient id="fill31" x1="6423.5" x2="6423.5" y1="2714" y2="2980" gradientUnits="userSpaceOnUse" spreadMethod="reflect"><stop offset="0" stop-color="#AFAFAF"/><stop offset=".5" stop-color="#A5A5A5"/><stop offset="1" stop-color="#929292"/></linearGradient><clipPath id="clip32"><rect width="5457" height="2492" x="1515" y="491"/></clipPath><linearGradient id="fill33" x1="2255" x2="2255" y1="2901" y2="2980" gradientUnits="userSpaceOnUse" spreadMethod="reflect"><stop offset="0" stop-color="#FFC746"/><stop offset=".5" stop-color="#FFC600"/><stop offset="1" stop-color="#E5B600"/></linearGradient><clipPath id="clip34"><rect width="5457" height="2492" x="1515" y="491"/></clipPath><linearGradient id="fill35" x1="3345.5" x2="3345.5" y1="2897" y2="2980" gradientUnits="userSpaceOnUse" spreadMethod="reflect"><stop offset="0" stop-color="#FFC746"/><stop offset=".5" stop-color="#FFC600"/><stop offset="1" stop-color="#E5B600"/></linearGradient><clipPath id="clip36"><rect width="5457" height="2492" x="1515" y="491"/></clipPath><linearGradient id="fill37" x1="4436.5" x2="4436.5" y1="2869" y2="2980" gradientUnits="userSpaceOnUse" spreadMethod="reflect"><stop offset="0" stop-color="#FFC746"/><stop offset=".5" stop-color="#FFC600"/><stop offset="1" stop-color="#E5B600"/></linearGradient><clipPath id="clip38"><rect width="5457" height="2492" x="1515" y="491"/></clipPath><linearGradient id="fill39" x1="5527" x2="5527" y1="2836" y2="2980" gradientUnits="userSpaceOnUse" spreadMethod="reflect"><stop offset="0" stop-color="#FFC746"/><stop offset=".5" stop-color="#FFC600"/><stop offset="1" stop-color="#E5B600"/></linearGradient><clipPath id="clip40"><rect width="5457" height="2492" x="1515" y="491"/></clipPath><linearGradient id="fill41" x1="6617.5" x2="6617.5" y1="2815" y2="2980" gradientUnits="userSpaceOnUse" spreadMethod="reflect"><stop offset="0" stop-color="#FFC746"/><stop offset=".5" stop-color="#FFC600"/><stop offset="1" stop-color="#E5B600"/></linearGradient><clipPath id="clip42"><rect width="5457" height="2492" x="1515" y="491"/></clipPath><linearGradient id="fill43" x1="2449.5" x2="2449.5" y1="2895" y2="2980" gradientUnits="userSpaceOnUse" spreadMethod="reflect"><stop offset="0" stop-color="#71A6DB"/><stop offset=".5" stop-color="#559BDB"/><stop offset="1" stop-color="#438AC9"/></linearGradient><clipPath id="clip44"><rect width="5457" height="2492" x="1515" y="491"/></clipPath><linearGradient id="fill45" x1="3540" x2="3540" y1="2887" y2="2980" gradientUnits="userSpaceOnUse" spreadMethod="reflect"><stop offset="0" stop-color="#71A6DB"/><stop offset=".5" stop-color="#559BDB"/><stop offset="1" stop-color="#438AC9"/></linearGradient><clipPath id="clip46"><rect width="5457" height="2492" x="1515" y="491"/></clipPath><linearGradient id="fill47" x1="4630.5" x2="4630.5" y1="2844" y2="2980" gradientUnits="userSpaceOnUse" spreadMethod="reflect"><stop offset="0" stop-color="#71A6DB"/><stop offset=".5" stop-color="#559BDB"/><stop offset="1" stop-color="#438AC9"/></linearGradient><clipPath id="clip48"><rect width="5457" height="2492" x="1515" y="491"/></clipPath><linearGradient id="fill49" x1="5721.5" x2="5721.5" y1="2798" y2="2980" gradientUnits="userSpaceOnUse" spreadMethod="reflect"><stop offset="0" stop-color="#71A6DB"/><stop offset=".5" stop-color="#559BDB"/><stop offset="1" stop-color="#438AC9"/></linearGradient><clipPath id="clip50"><rect width="5457" height="2492" x="1515" y="491"/></clipPath><linearGradient id="fill51" x1="6812" x2="6812" y1="2786" y2="2980" gradientUnits="userSpaceOnUse" spreadMethod="reflect"><stop offset="0" stop-color="#71A6DB"/><stop offset=".5" stop-color="#559BDB"/><stop offset="1" stop-color="#438AC9"/></linearGradient><clipPath id="clip52"><rect width="5747" height="3153" x="1272" y="130"/></clipPath><clipPath id="clip53"><rect width="5747" height="3153" x="1272" y="130"/></clipPath><clipPath id="clip54"><rect width="5747" height="3153" x="1272" y="130"/></clipPath><clipPath id="clip55"><rect width="5747" height="3153" x="1272" y="130"/></clipPath><clipPath id="clip56"><rect width="5747" height="3153" x="1272" y="130"/></clipPath><clipPath id="clip57"><rect width="5747" height="3153" x="1272" y="130"/></clipPath><clipPath id="clip58"><rect width="5747" height="3153" x="1272" y="130"/></clipPath><clipPath id="clip59"><rect width="5747" height="3153" x="1272" y="130"/></clipPath><clipPath id="clip60"><rect width="5747" height="3153" x="1272" y="130"/></clipPath><clipPath id="clip61"><rect width="5747" height="3153" x="1272" y="130"/></clipPath><clipPath id="clip62"><rect width="5747" height="3153" x="1272" y="130"/></clipPath><clipPath id="clip63"><rect width="5747" height="3153" x="1272" y="130"/></clipPath><clipPath id="clip64"><rect width="5747" height="3153" x="1272" y="130"/></clipPath><clipPath id="clip65"><rect width="5747" height="3153" x="1272" y="130"/></clipPath><clipPath id="clip66"><rect width="5747" height="3153" x="1272" y="130"/></clipPath><clipPath id="clip67"><rect width="5747" height="3153" x="1272" y="130"/></clipPath><clipPath id="clip68"><rect width="5747" height="3153" x="1272" y="130"/></clipPath><clipPath id="clip69"><rect width="5747" height="3153" x="1272" y="130"/></clipPath><clipPath id="clip70"><rect width="5747" height="3153" x="1272" y="130"/></clipPath><clipPath id="clip71"><rect width="5747" height="3153" x="1272" y="130"/></clipPath><clipPath id="clip72"><rect width="5747" height="3153" x="1272" y="130"/></clipPath><clipPath id="clip73"><rect width="5747" height="3153" x="1272" y="130"/></clipPath><clipPath id="clip74"><rect width="5747" height="3153" x="1272" y="130"/></clipPath><clipPath id="clip75"><rect width="5747" height="3153" x="1272" y="130"/></clipPath><clipPath id="clip76"><rect width="5747" height="3153" x="1272" y="130"/></clipPath><clipPath id="clip77"><rect width="5747" height="3153" x="1272" y="130"/></clipPath><clipPath id="clip78"><rect width="5747" height="3153" x="1272" y="130"/></clipPath><clipPath id="clip79"><rect width="5747" height="3153" x="1272" y="130"/></clipPath><clipPath id="clip80"><rect width="5747" height="3153" x="1272" y="130"/></clipPath><clipPath id="clip81"><rect width="5747" height="3153" x="1272" y="130"/></clipPath><clipPath id="clip82"><rect width="5747" height="3153" x="1272" y="130"/></clipPath><clipPath id="clip83"><rect width="5747" height="3153" x="1272" y="130"/></clipPath><clipPath id="clip84"><rect width="5747" height="3153" x="1272" y="130"/></clipPath><clipPath id="clip85"><rect width="5747" height="3153" x="1272" y="130"/></clipPath><clipPath id="clip86"><rect width="5747" height="3153" x="1272" y="130"/></clipPath><clipPath id="clip87"><rect width="5747" height="3153" x="1272" y="130"/></clipPath><clipPath id="clip88"><rect width="5747" height="3153" x="1272" y="130"/></clipPath><clipPath id="clip89"><rect width="5747" height="3153" x="1272" y="130"/></clipPath><clipPath id="clip90"><rect width="5747" height="3153" x="1272" y="130"/></clipPath><clipPath id="clip91"><rect width="5747" height="3153" x="1272" y="130"/></clipPath><clipPath id="clip92"><rect width="5747" height="3153" x="1272" y="130"/></clipPath><clipPath id="clip93"><rect width="5747" height="3153" x="1272" y="130"/></clipPath><clipPath id="clip94"><rect width="5747" height="3153" x="1272" y="130"/></clipPath><clipPath id="clip95"><rect width="5747" height="3153" x="1272" y="130"/></clipPath><clipPath id="clip96"><rect width="5747" height="3153" x="1272" y="130"/></clipPath><linearGradient id="fill97" x1="3948.5" x2="3948.5" y1="3206" y2="3228" gradientUnits="userSpaceOnUse" spreadMethod="reflect"><stop offset="0" stop-color="#6083CB"/><stop offset=".5" stop-color="#3E70CA"/><stop offset="1" stop-color="#2E61BA"/></linearGradient><clipPath id="clip98"><rect width="5747" height="3153" x="1272" y="130"/></clipPath><clipPath id="clip99"><rect width="5747" height="3153" x="1272" y="130"/></clipPath><linearGradient id="fill100" x1="4028" x2="4028" y1="3206" y2="3228" gradientUnits="userSpaceOnUse" spreadMethod="reflect"><stop offset="0" stop-color="#F18C55"/><stop offset=".5" stop-color="#F67B28"/><stop offset="1" stop-color="#E56B17"/></linearGradient><clipPath id="clip101"><rect width="5747" height="3153" x="1272" y="130"/></clipPath><clipPath id="clip102"><rect width="5747" height="3153" x="1272" y="130"/></clipPath><linearGradient id="fill103" x1="4107.5" x2="4107.5" y1="3206" y2="3228" gradientUnits="userSpaceOnUse" spreadMethod="reflect"><stop offset="0" stop-color="#AFAFAF"/><stop offset=".5" stop-color="#A5A5A5"/><stop offset="1" stop-color="#929292"/></linearGradient><clipPath id="clip104"><rect width="5747" height="3153" x="1272" y="130"/></clipPath><clipPath id="clip105"><rect width="5747" height="3153" x="1272" y="130"/></clipPath><linearGradient id="fill106" x1="4207.5" x2="4207.5" y1="3206" y2="3228" gradientUnits="userSpaceOnUse" spreadMethod="reflect"><stop offset="0" stop-color="#FFC746"/><stop offset=".5" stop-color="#FFC600"/><stop offset="1" stop-color="#E5B600"/></linearGradient><clipPath id="clip107"><rect width="5747" height="3153" x="1272" y="130"/></clipPath><clipPath id="clip108"><rect width="5747" height="3153" x="1272" y="130"/></clipPath><linearGradient id="fill109" x1="4307.5" x2="4307.5" y1="3206" y2="3228" gradientUnits="userSpaceOnUse" spreadMethod="reflect"><stop offset="0" stop-color="#71A6DB"/><stop offset=".5" stop-color="#559BDB"/><stop offset="1" stop-color="#438AC9"/></linearGradient><clipPath id="clip110"><rect width="5747" height="3153" x="1272" y="130"/></clipPath></defs><g clip-path="url(#clip0)" transform="translate(-1271 -130)"><rect width="5747" height="3152" x="1272" y="131" fill="#FFF"/><g clip-path="url(#clip1)"><path fill="none" stroke="#E0E5EB" stroke-linejoin="round" stroke-miterlimit="10" stroke-width="3.438" d="M1515.5 2482.58 6968.5 2482.58M1515.5 1984.57 6968.5 1984.57M1515.5 1486.55 6968.5 1486.55M1515.5 988.533 6968.5 988.533M1515.5 491.5 6968.5 491.5"/></g><g clip-path="url(#clip2)"><rect width="156" height="204" x="1594" y="2776" fill="url(#fill3)"/></g><g clip-path="url(#clip4)"><rect width="157" height="231" x="2684" y="2749" fill="url(#fill5)"/></g><g clip-path="url(#clip6)"><rect width="157" height="461" x="3775" y="2519" fill="url(#fill7)"/></g><g clip-path="url(#clip8)"><rect width="156" height="1372" x="4866" y="1608" fill="url(#fill9)"/></g><g clip-path="url(#clip10)"><rect width="157" height="1972" x="5956" y="1008" fill="url(#fill11)"/></g><g clip-path="url(#clip12)"><rect width="157" height="112" x="1788" y="2868" fill="url(#fill13)"/></g><g clip-path="url(#clip14)"><rect width="156" height="128" x="2879" y="2852" fill="url(#fill15)"/></g><g clip-path="url(#clip16)"><rect width="157" height="218" x="3969" y="2762" fill="url(#fill17)"/></g><g clip-path="url(#clip18)"><rect width="157" height="412" x="5060" y="2568" fill="url(#fill19)"/></g><g clip-path="url(#clip20)"><rect width="156" height="551" x="6151" y="2429" fill="url(#fill21)"/></g><g clip-path="url(#clip22)"><rect width="157" height="85" x="1982" y="2895" fill="url(#fill23)"/></g><g clip-path="url(#clip24)"><rect width="157" height="92" x="3073" y="2888" fill="url(#fill25)"/></g><g clip-path="url(#clip26)"><rect width="156" height="144" x="4164" y="2836" fill="url(#fill27)"/></g><g clip-path="url(#clip28)"><rect width="157" height="227" x="5254" y="2753" fill="url(#fill29)"/></g><g clip-path="url(#clip30)"><rect width="157" height="266" x="6345" y="2714" fill="url(#fill31)"/></g><g clip-path="url(#clip32)"><rect width="156" height="79" x="2177" y="2901" fill="url(#fill33)"/></g><g clip-path="url(#clip34)"><rect width="157" height="83" x="3267" y="2897" fill="url(#fill35)"/></g><g clip-path="url(#clip36)"><rect width="157" height="111" x="4358" y="2869" fill="url(#fill37)"/></g><g clip-path="url(#clip38)"><rect width="156" height="144" x="5449" y="2836" fill="url(#fill39)"/></g><g clip-path="url(#clip40)"><rect width="157" height="165" x="6539" y="2815" fill="url(#fill41)"/></g><g clip-path="url(#clip42)"><rect width="157" height="85" x="2371" y="2895" fill="url(#fill43)"/></g><g clip-path="url(#clip44)"><rect width="156" height="93" x="3462" y="2887" fill="url(#fill45)"/></g><g clip-path="url(#clip46)"><rect width="157" height="136" x="4552" y="2844" fill="url(#fill47)"/></g><g clip-path="url(#clip48)"><rect width="157" height="182" x="5643" y="2798" fill="url(#fill49)"/></g><g clip-path="url(#clip50)"><rect width="156" height="194" x="6734" y="2786" fill="url(#fill51)"/></g><g clip-path="url(#clip52)"><path fill="none" fill-rule="evenodd" stroke="#E0E5EB" stroke-linejoin="round" stroke-miterlimit="10" stroke-width="3.438" d="M1515.5 2980.5 6968.5 2980.5"/></g><g clip-path="url(#clip53)"><text fill="#44546A" font-family="Calibri,Calibri_MSFontService,sans-serif" font-size="41" font-weight="400" transform="matrix(1 0 0 1 1640.75 2744)">205</text></g><g clip-path="url(#clip54)"><text fill="#44546A" font-family="Calibri,Calibri_MSFontService,sans-serif" font-size="41" font-weight="400" transform="matrix(1 0 0 1 2731.41 2717)">233</text></g><g clip-path="url(#clip55)"><text fill="#44546A" font-family="Calibri,Calibri_MSFontService,sans-serif" font-size="41" font-weight="400" transform="matrix(1 0 0 1 3822.07 2487)">463</text></g><g clip-path="url(#clip56)"><text fill="#44546A" font-family="Calibri,Calibri_MSFontService,sans-serif" font-size="41" font-weight="400" transform="matrix(1 0 0 1 4902.28 1576)">1378</text></g><g clip-path="url(#clip57)"><text fill="#44546A" font-family="Calibri,Calibri_MSFontService,sans-serif" font-size="41" font-weight="400" transform="matrix(1 0 0 1 5992.94 976)">1981</text></g><g clip-path="url(#clip58)"><text fill="#44546A" font-family="Calibri,Calibri_MSFontService,sans-serif" font-size="41" font-weight="400" transform="matrix(1 0 0 1 1835.06 2836)">113</text></g><g clip-path="url(#clip59)"><text fill="#44546A" font-family="Calibri,Calibri_MSFontService,sans-serif" font-size="41" font-weight="400" transform="matrix(1 0 0 1 2925.72 2820)">129</text></g><g clip-path="url(#clip60)"><text fill="#44546A" font-family="Calibri,Calibri_MSFontService,sans-serif" font-size="41" font-weight="400" transform="matrix(1 0 0 1 4016.38 2730)">220</text></g><g clip-path="url(#clip61)"><text fill="#44546A" font-family="Calibri,Calibri_MSFontService,sans-serif" font-size="41" font-weight="400" transform="matrix(1 0 0 1 5107.04 2536)">414</text></g><g clip-path="url(#clip62)"><text fill="#44546A" font-family="Calibri,Calibri_MSFontService,sans-serif" font-size="41" font-weight="400" transform="matrix(1 0 0 1 6197.7 2397)">554</text></g><g clip-path="url(#clip63)"><text fill="#44546A" font-family="Calibri,Calibri_MSFontService,sans-serif" font-size="41" font-weight="400" transform="matrix(1 0 0 1 2039.83 2863)">86</text></g><g clip-path="url(#clip64)"><text fill="#44546A" font-family="Calibri,Calibri_MSFontService,sans-serif" font-size="41" font-weight="400" transform="matrix(1 0 0 1 3130.48 2856)">93</text></g><g clip-path="url(#clip65)"><text fill="#44546A" font-family="Calibri,Calibri_MSFontService,sans-serif" font-size="41" font-weight="400" transform="matrix(1 0 0 1 4210.69 2804)">145</text></g><g clip-path="url(#clip66)"><text fill="#44546A" font-family="Calibri,Calibri_MSFontService,sans-serif" font-size="41" font-weight="400" transform="matrix(1 0 0 1 5301.35 2721)">228</text></g><g clip-path="url(#clip67)"><text fill="#44546A" font-family="Calibri,Calibri_MSFontService,sans-serif" font-size="41" font-weight="400" transform="matrix(1 0 0 1 6392.01 2682)">267</text></g><g clip-path="url(#clip68)"><text fill="#44546A" font-family="Calibri,Calibri_MSFontService,sans-serif" font-size="41" font-weight="400" transform="matrix(1 0 0 1 2234.14 2869)">79</text></g><g clip-path="url(#clip69)"><text fill="#44546A" font-family="Calibri,Calibri_MSFontService,sans-serif" font-size="41" font-weight="400" transform="matrix(1 0 0 1 3324.8 2865)">84</text></g><g clip-path="url(#clip70)"><text fill="#44546A" font-family="Calibri,Calibri_MSFontService,sans-serif" font-size="41" font-weight="400" transform="matrix(1 0 0 1 4405.01 2837)">112</text></g><g clip-path="url(#clip71)"><text fill="#44546A" font-family="Calibri,Calibri_MSFontService,sans-serif" font-size="41" font-weight="400" transform="matrix(1 0 0 1 5495.67 2804)">145</text></g><g clip-path="url(#clip72)"><text fill="#44546A" font-family="Calibri,Calibri_MSFontService,sans-serif" font-size="41" font-weight="400" transform="matrix(1 0 0 1 6586.33 2783)">166</text></g><g clip-path="url(#clip73)"><text fill="#44546A" font-family="Calibri,Calibri_MSFontService,sans-serif" font-size="41" font-weight="400" transform="matrix(1 0 0 1 2428.45 2863)">86</text></g><g clip-path="url(#clip74)"><text fill="#44546A" font-family="Calibri,Calibri_MSFontService,sans-serif" font-size="41" font-weight="400" transform="matrix(1 0 0 1 3519.11 2855)">94</text></g><g clip-path="url(#clip75)"><text fill="#44546A" font-family="Calibri,Calibri_MSFontService,sans-serif" font-size="41" font-weight="400" transform="matrix(1 0 0 1 4599.32 2812)">138</text></g><g clip-path="url(#clip76)"><text fill="#44546A" font-family="Calibri,Calibri_MSFontService,sans-serif" font-size="41" font-weight="400" transform="matrix(1 0 0 1 5689.98 2766)">183</text></g><g clip-path="url(#clip77)"><text fill="#44546A" font-family="Calibri,Calibri_MSFontService,sans-serif" font-size="41" font-weight="400" transform="matrix(1 0 0 1 6780.64 2754)">195</text></g><g clip-path="url(#clip78)"><text fill="#44546A" font-family="Calibri,Calibri_MSFontService,sans-serif" font-size="41" font-weight="400" transform="matrix(1 0 0 1 1456.23 2992)">0</text></g><g clip-path="url(#clip79)"><text fill="#44546A" font-family="Calibri,Calibri_MSFontService,sans-serif" font-size="41" font-weight="400" transform="matrix(1 0 0 1 1414.43 2494)">500</text></g><g clip-path="url(#clip80)"><text fill="#44546A" font-family="Calibri,Calibri_MSFontService,sans-serif" font-size="41" font-weight="400" transform="matrix(1 0 0 1 1393.53 1996)">1000</text></g><g clip-path="url(#clip81)"><text fill="#44546A" font-family="Calibri,Calibri_MSFontService,sans-serif" font-size="41" font-weight="400" transform="matrix(1 0 0 1 1393.53 1498)">1500</text></g><g clip-path="url(#clip82)"><text fill="#44546A" font-family="Calibri,Calibri_MSFontService,sans-serif" font-size="41" font-weight="400" transform="matrix(1 0 0 1 1393.53 1001)">2000</text></g><g clip-path="url(#clip83)"><text fill="#44546A" font-family="Calibri,Calibri_MSFontService,sans-serif" font-size="41" font-weight="400" transform="matrix(1 0 0 1 1393.53 503)">2500</text></g><g clip-path="url(#clip84)"><text fill="#44546A" font-family="Calibri,Calibri_MSFontService,sans-serif" font-size="41" font-weight="400" transform="matrix(1 0 0 1 2039.83 3046)">20</text></g><g clip-path="url(#clip85)"><text fill="#44546A" font-family="Calibri,Calibri_MSFontService,sans-serif" font-size="41" font-weight="400" transform="matrix(1 0 0 1 3130.49 3046)">32</text></g><g clip-path="url(#clip86)"><text fill="#44546A" font-family="Calibri,Calibri_MSFontService,sans-serif" font-size="41" font-weight="400" transform="matrix(1 0 0 1 4210.69 3046)">128</text></g><g clip-path="url(#clip87)"><text fill="#44546A" font-family="Calibri,Calibri_MSFontService,sans-serif" font-size="41" font-weight="400" transform="matrix(1 0 0 1 5301.35 3046)">384</text></g><g clip-path="url(#clip88)"><text fill="#44546A" font-family="Calibri,Calibri_MSFontService,sans-serif" font-size="41" font-weight="400" transform="matrix(1 0 0 1 6392.01 3046)">512</text></g><g clip-path="url(#clip89)"><text fill="#44546A" font-family="Calibri,Calibri_MSFontService,sans-serif" font-size="41" font-weight="700" transform="matrix(6.12323e-17 -1 1 6.12323e-17 1368.43 1844)">Latency (ms)</text></g><g clip-path="url(#clip90)"><text fill="#44546A" font-family="Calibri,Calibri_MSFontService,sans-serif" font-size="41" font-weight="700" transform="matrix(1 0 0 1 4101.15 3110)">Sequence Length</text></g><g clip-path="url(#clip91)"><text fill="#44546A" font-family="Calibri,Calibri_MSFontService,sans-serif" font-size="73" font-weight="700" transform="matrix(1 0 0 1 3264.67 235)">Intel Ice lake Xeon 8380</text></g><g clip-path="url(#clip92)"><text fill="#44546A" font-family="Calibri,Calibri_MSFontService,sans-serif" font-size="73" font-weight="700" transform="matrix(1 0 0 1 4000.02 235)">-</text></g><g clip-path="url(#clip93)"><text fill="#44546A" font-family="Calibri,Calibri_MSFontService,sans-serif" font-size="73" font-weight="700" transform="matrix(1 0 0 1 4039.05 235)">TensorFlow + OneDNN (&gt;= 2.5.0)</text></g><g clip-path="url(#clip94)"><text fill="#44546A" font-family="Calibri,Calibri_MSFontService,sans-serif" font-size="73" font-weight="700" transform="matrix(1 0 0 1 2872.07 324)">Latency Benchmark with varying number of CPU cores involved in the computations</text></g><g clip-path="url(#clip95)"><text fill="#44546A" font-family="Calibri,Calibri_MSFontService,sans-serif" font-size="73" font-weight="700" transform="matrix(1 0 0 1 3053.15 414)">(some data might be missing indicating benchmark crashed during runs)</text></g><g clip-path="url(#clip96)"><rect width="23" height="22" x="3937" y="3206" fill="url(#fill97)"/></g><g clip-path="url(#clip98)"><text fill="#44546A" font-family="Calibri,Calibri_MSFontService,sans-serif" font-size="41" font-weight="400" transform="matrix(1 0 0 1 3969.52 3229)">1</text></g><g clip-path="url(#clip99)"><rect width="22" height="22" x="4017" y="3206" fill="url(#fill100)"/></g><g clip-path="url(#clip101)"><text fill="#44546A" font-family="Calibri,Calibri_MSFontService,sans-serif" font-size="41" font-weight="400" transform="matrix(1 0 0 1 4048.86 3229)">4</text></g><g clip-path="url(#clip102)"><rect width="23" height="22" x="4096" y="3206" fill="url(#fill103)"/></g><g clip-path="url(#clip104)"><text fill="#44546A" font-family="Calibri,Calibri_MSFontService,sans-serif" font-size="41" font-weight="400" transform="matrix(1 0 0 1 4128.2 3229)">16</text></g><g clip-path="url(#clip105)"><rect width="23" height="22" x="4196" y="3206" fill="url(#fill106)"/></g><g clip-path="url(#clip107)"><text fill="#44546A" font-family="Calibri,Calibri_MSFontService,sans-serif" font-size="41" font-weight="400" transform="matrix(1 0 0 1 4228.44 3229)">40</text></g><g clip-path="url(#clip108)"><rect width="23" height="22" x="4296" y="3206" fill="url(#fill109)"/></g><g clip-path="url(#clip110)"><text fill="#44546A" font-family="Calibri,Calibri_MSFontService,sans-serif" font-size="41" font-weight="400" transform="matrix(1 0 0 1 4328.67 3229)">80</text></g><rect width="5747" height="3152" x="1272.5" y="131.5" fill="none" stroke="#E0E5EB" stroke-linejoin="round" stroke-miterlimit="10" stroke-width="3.438"/></g></svg>