<svg xmlns="http://www.w3.org/2000/svg" xmlns:xlink="http://www.w3.org/1999/xlink" width="5750" height="3155" overflow="hidden"><defs><clipPath id="clip0"><rect width="5750" height="3155" x="1263" y="130"/></clipPath><clipPath id="clip1"><rect width="5747" height="3153" x="1263" y="130"/></clipPath><clipPath id="clip2"><rect width="5457" height="2492" x="1506" y="491"/></clipPath><linearGradient id="fill3" x1="1663.5" x2="1663.5" y1="2782" y2="2980" gradientUnits="userSpaceOnUse" spreadMethod="reflect"><stop offset="0" stop-color="#6083CB"/><stop offset=".5" stop-color="#3E70CA"/><stop offset="1" stop-color="#2E61BA"/></linearGradient><clipPath id="clip4"><rect width="5457" height="2492" x="1506" y="491"/></clipPath><linearGradient id="fill5" x1="2754.5" x2="2754.5" y1="2754" y2="2980" gradientUnits="userSpaceOnUse" spreadMethod="reflect"><stop offset="0" stop-color="#6083CB"/><stop offset=".5" stop-color="#3E70CA"/><stop offset="1" stop-color="#2E61BA"/></linearGradient><clipPath id="clip6"><rect width="5457" height="2492" x="1506" y="491"/></clipPath><linearGradient id="fill7" x1="3845" x2="3845" y1="2528" y2="2980" gradientUnits="userSpaceOnUse" spreadMethod="reflect"><stop offset="0" stop-color="#6083CB"/><stop offset=".5" stop-color="#3E70CA"/><stop offset="1" stop-color="#2E61BA"/></linearGradient><clipPath id="clip8"><rect width="5457" height="2492" x="1506" y="491"/></clipPath><linearGradient id="fill9" x1="4935.5" x2="4935.5" y1="1638" y2="2980" gradientUnits="userSpaceOnUse" spreadMethod="reflect"><stop offset="0" stop-color="#6083CB"/><stop offset=".5" stop-color="#3E70CA"/><stop offset="1" stop-color="#2E61BA"/></linearGradient><clipPath id="clip10"><rect width="5457" height="2492" x="1506" y="491"/></clipPath><linearGradient id="fill11" x1="6026.5" x2="6026.5" y1="1039" y2="2980" gradientUnits="userSpaceOnUse" spreadMethod="reflect"><stop offset="0" stop-color="#6083CB"/><stop offset=".5" stop-color="#3E70CA"/><stop offset="1" stop-color="#2E61BA"/></linearGradient><clipPath id="clip12"><rect width="5457" height="2492" x="1506" y="491"/></clipPath><linearGradient id="fill13" x1="1858" x2="1858" y1="2878" y2="2980" gradientUnits="userSpaceOnUse" spreadMethod="reflect"><stop offset="0" stop-color="#F18C55"/><stop offset=".5" stop-color="#F67B28"/><stop offset="1" stop-color="#E56B17"/></linearGradient><clipPath id="clip14"><rect width="5457" height="2492" x="1506" y="491"/></clipPath><linearGradient id="fill15" x1="2948.5" x2="2948.5" y1="2864" y2="2980" gradientUnits="userSpaceOnUse" spreadMethod="reflect"><stop offset="0" stop-color="#F18C55"/><stop offset=".5" stop-color="#F67B28"/><stop offset="1" stop-color="#E56B17"/></linearGradient><clipPath id="clip16"><rect width="5457" height="2492" x="1506" y="491"/></clipPath><linearGradient id="fill17" x1="4039.5" x2="4039.5" y1="2788" y2="2980" gradientUnits="userSpaceOnUse" spreadMethod="reflect"><stop offset="0" stop-color="#F18C55"/><stop offset=".5" stop-color="#F67B28"/><stop offset="1" stop-color="#E56B17"/></linearGradient><clipPath id="clip18"><rect width="5457" height="2492" x="1506" y="491"/></clipPath><linearGradient id="fill19" x1="5130" x2="5130" y1="2595" y2="2980" gradientUnits="userSpaceOnUse" spreadMethod="reflect"><stop offset="0" stop-color="#F18C55"/><stop offset=".5" stop-color="#F67B28"/><stop offset="1" stop-color="#E56B17"/></linearGradient><clipPath id="clip20"><rect width="5457" height="2492" x="1506" y="491"/></clipPath><linearGradient id="fill21" x1="6220.5" x2="6220.5" y1="2469" y2="2980" gradientUnits="userSpaceOnUse" spreadMethod="reflect"><stop offset="0" stop-color="#F18C55"/><stop offset=".5" stop-color="#F67B28"/><stop offset="1" stop-color="#E56B17"/></linearGradient><clipPath id="clip22"><rect width="5457" height="2492" x="1506" y="491"/></clipPath><linearGradient id="fill23" x1="2052.5" x2="2052.5" y1="2899" y2="2980" gradientUnits="userSpaceOnUse" spreadMethod="reflect"><stop offset="0" stop-color="#AFAFAF"/><stop offset=".5" stop-color="#A5A5A5"/><stop offset="1" stop-color="#929292"/></linearGradient><clipPath id="clip24"><rect width="5457" height="2492" x="1506" y="491"/></clipPath><linearGradient id="fill25" x1="3143" x2="3143" y1="2892" y2="2980" gradientUnits="userSpaceOnUse" spreadMethod="reflect"><stop offset="0" stop-color="#AFAFAF"/><stop offset=".5" stop-color="#A5A5A5"/><stop offset="1" stop-color="#929292"/></linearGradient><clipPath id="clip26"><rect width="5457" height="2492" x="1506" y="491"/></clipPath><linearGradient id="fill27" x1="4233.5" x2="4233.5" y1="2847" y2="2980" gradientUnits="userSpaceOnUse" spreadMethod="reflect"><stop offset="0" stop-color="#AFAFAF"/><stop offset=".5" stop-color="#A5A5A5"/><stop offset="1" stop-color="#929292"/></linearGradient><clipPath id="clip28"><rect width="5457" height="2492" x="1506" y="491"/></clipPath><linearGradient id="fill29" x1="5324.5" x2="5324.5" y1="2775" y2="2980" gradientUnits="userSpaceOnUse" spreadMethod="reflect"><stop offset="0" stop-color="#AFAFAF"/><stop offset=".5" stop-color="#A5A5A5"/><stop offset="1" stop-color="#929292"/></linearGradient><clipPath id="clip30"><rect width="5457" height="2492" x="1506" y="491"/></clipPath><linearGradient id="fill31" x1="6415" x2="6415" y1="2742" y2="2980" gradientUnits="userSpaceOnUse" spreadMethod="reflect"><stop offset="0" stop-color="#AFAFAF"/><stop offset=".5" stop-color="#A5A5A5"/><stop offset="1" stop-color="#929292"/></linearGradient><clipPath id="clip32"><rect width="5457" height="2492" x="1506" y="491"/></clipPath><linearGradient id="fill33" x1="2246.5" x2="2246.5" y1="2905" y2="2980" gradientUnits="userSpaceOnUse" spreadMethod="reflect"><stop offset="0" stop-color="#FFC746"/><stop offset=".5" stop-color="#FFC600"/><stop offset="1" stop-color="#E5B600"/></linearGradient><clipPath id="clip34"><rect width="5457" height="2492" x="1506" y="491"/></clipPath><linearGradient id="fill35" x1="3337.5" x2="3337.5" y1="2898" y2="2980" gradientUnits="userSpaceOnUse" spreadMethod="reflect"><stop offset="0" stop-color="#FFC746"/><stop offset=".5" stop-color="#FFC600"/><stop offset="1" stop-color="#E5B600"/></linearGradient><clipPath id="clip36"><rect width="5457" height="2492" x="1506" y="491"/></clipPath><linearGradient id="fill37" x1="4428" x2="4428" y1="2867" y2="2980" gradientUnits="userSpaceOnUse" spreadMethod="reflect"><stop offset="0" stop-color="#FFC746"/><stop offset=".5" stop-color="#FFC600"/><stop offset="1" stop-color="#E5B600"/></linearGradient><clipPath id="clip38"><rect width="5457" height="2492" x="1506" y="491"/></clipPath><linearGradient id="fill39" x1="5518.5" x2="5518.5" y1="2832" y2="2980" gradientUnits="userSpaceOnUse" spreadMethod="reflect"><stop offset="0" stop-color="#FFC746"/><stop offset=".5" stop-color="#FFC600"/><stop offset="1" stop-color="#E5B600"/></linearGradient><clipPath id="clip40"><rect width="5457" height="2492" x="1506" y="491"/></clipPath><linearGradient id="fill41" x1="6609.5" x2="6609.5" y1="2818" y2="2980" gradientUnits="userSpaceOnUse" spreadMethod="reflect"><stop offset="0" stop-color="#FFC746"/><stop offset=".5" stop-color="#FFC600"/><stop offset="1" stop-color="#E5B600"/></linearGradient><clipPath id="clip42"><rect width="5457" height="2492" x="1506" y="491"/></clipPath><linearGradient id="fill43" x1="2441" x2="2441" y1="2901" y2="2980" gradientUnits="userSpaceOnUse" spreadMethod="reflect"><stop offset="0" stop-color="#71A6DB"/><stop offset=".5" stop-color="#559BDB"/><stop offset="1" stop-color="#438AC9"/></linearGradient><clipPath id="clip44"><rect width="5457" height="2492" x="1506" y="491"/></clipPath><linearGradient id="fill45" x1="3531.5" x2="3531.5" y1="2892" y2="2980" gradientUnits="userSpaceOnUse" spreadMethod="reflect"><stop offset="0" stop-color="#71A6DB"/><stop offset=".5" stop-color="#559BDB"/><stop offset="1" stop-color="#438AC9"/></linearGradient><clipPath id="clip46"><rect width="5457" height="2492" x="1506" y="491"/></clipPath><linearGradient id="fill47" x1="4622.5" x2="4622.5" y1="2860" y2="2980" gradientUnits="userSpaceOnUse" spreadMethod="reflect"><stop offset="0" stop-color="#71A6DB"/><stop offset=".5" stop-color="#559BDB"/><stop offset="1" stop-color="#438AC9"/></linearGradient><clipPath id="clip48"><rect width="5457" height="2492" x="1506" y="491"/></clipPath><linearGradient id="fill49" x1="5713" x2="5713" y1="2834" y2="2980" gradientUnits="userSpaceOnUse" spreadMethod="reflect"><stop offset="0" stop-color="#71A6DB"/><stop offset=".5" stop-color="#559BDB"/><stop offset="1" stop-color="#438AC9"/></linearGradient><clipPath id="clip50"><rect width="5457" height="2492" x="1506" y="491"/></clipPath><linearGradient id="fill51" x1="6803.5" x2="6803.5" y1="2817" y2="2980" gradientUnits="userSpaceOnUse" spreadMethod="reflect"><stop offset="0" stop-color="#71A6DB"/><stop offset=".5" stop-color="#559BDB"/><stop offset="1" stop-color="#438AC9"/></linearGradient><clipPath id="clip52"><rect width="5747" height="3153" x="1263" y="130"/></clipPath><clipPath id="clip53"><rect width="5747" height="3153" x="1263" y="130"/></clipPath><clipPath id="clip54"><rect width="5747" height="3153" x="1263" y="130"/></clipPath><clipPath id="clip55"><rect width="5747" height="3153" x="1263" y="130"/></clipPath><clipPath id="clip56"><rect width="5747" height="3153" x="1263" y="130"/></clipPath><clipPath id="clip57"><rect width="5747" height="3153" x="1263" y="130"/></clipPath><clipPath id="clip58"><rect width="5747" height="3153" x="1263" y="130"/></clipPath><clipPath id="clip59"><rect width="5747" height="3153" x="1263" y="130"/></clipPath><clipPath id="clip60"><rect width="5747" height="3153" x="1263" y="130"/></clipPath><clipPath id="clip61"><rect width="5747" height="3153" x="1263" y="130"/></clipPath><clipPath id="clip62"><rect width="5747" height="3153" x="1263" y="130"/></clipPath><clipPath id="clip63"><rect width="5747" height="3153" x="1263" y="130"/></clipPath><clipPath id="clip64"><rect width="5747" height="3153" x="1263" y="130"/></clipPath><clipPath id="clip65"><rect width="5747" height="3153" x="1263" y="130"/></clipPath><clipPath id="clip66"><rect width="5747" height="3153" x="1263" y="130"/></clipPath><clipPath id="clip67"><rect width="5747" height="3153" x="1263" y="130"/></clipPath><clipPath id="clip68"><rect width="5747" height="3153" x="1263" y="130"/></clipPath><clipPath id="clip69"><rect width="5747" height="3153" x="1263" y="130"/></clipPath><clipPath id="clip70"><rect width="5747" height="3153" x="1263" y="130"/></clipPath><clipPath id="clip71"><rect width="5747" height="3153" x="1263" y="130"/></clipPath><clipPath id="clip72"><rect width="5747" height="3153" x="1263" y="130"/></clipPath><clipPath id="clip73"><rect width="5747" height="3153" x="1263" y="130"/></clipPath><clipPath id="clip74"><rect width="5747" height="3153" x="1263" y="130"/></clipPath><clipPath id="clip75"><rect width="5747" height="3153" x="1263" y="130"/></clipPath><clipPath id="clip76"><rect width="5747" height="3153" x="1263" y="130"/></clipPath><clipPath id="clip77"><rect width="5747" height="3153" x="1263" y="130"/></clipPath><clipPath id="clip78"><rect width="5747" height="3153" x="1263" y="130"/></clipPath><clipPath id="clip79"><rect width="5747" height="3153" x="1263" y="130"/></clipPath><clipPath id="clip80"><rect width="5747" height="3153" x="1263" y="130"/></clipPath><clipPath id="clip81"><rect width="5747" height="3153" x="1263" y="130"/></clipPath><clipPath id="clip82"><rect width="5747" height="3153" x="1263" y="130"/></clipPath><clipPath id="clip83"><rect width="5747" height="3153" x="1263" y="130"/></clipPath><clipPath id="clip84"><rect width="5747" height="3153" x="1263" y="130"/></clipPath><clipPath id="clip85"><rect width="5747" height="3153" x="1263" y="130"/></clipPath><clipPath id="clip86"><rect width="5747" height="3153" x="1263" y="130"/></clipPath><clipPath id="clip87"><rect width="5747" height="3153" x="1263" y="130"/></clipPath><clipPath id="clip88"><rect width="5747" height="3153" x="1263" y="130"/></clipPath><clipPath id="clip89"><rect width="5747" height="3153" x="1263" y="130"/></clipPath><clipPath id="clip90"><rect width="5747" height="3153" x="1263" y="130"/></clipPath><clipPath id="clip91"><rect width="5747" height="3153" x="1263" y="130"/></clipPath><clipPath id="clip92"><rect width="5747" height="3153" x="1263" y="130"/></clipPath><clipPath id="clip93"><rect width="5747" height="3153" x="1263" y="130"/></clipPath><clipPath id="clip94"><rect width="5747" height="3153" x="1263" y="130"/></clipPath><clipPath id="clip95"><rect width="5747" height="3153" x="1263" y="130"/></clipPath><clipPath id="clip96"><rect width="5747" height="3153" x="1263" y="130"/></clipPath><linearGradient id="fill97" x1="3940" x2="3940" y1="3206" y2="3228" gradientUnits="userSpaceOnUse" spreadMethod="reflect"><stop offset="0" stop-color="#6083CB"/><stop offset=".5" stop-color="#3E70CA"/><stop offset="1" stop-color="#2E61BA"/></linearGradient><clipPath id="clip98"><rect width="5747" height="3153" x="1263" y="130"/></clipPath><clipPath id="clip99"><rect width="5747" height="3153" x="1263" y="130"/></clipPath><linearGradient id="fill100" x1="4019.5" x2="4019.5" y1="3206" y2="3228" gradientUnits="userSpaceOnUse" spreadMethod="reflect"><stop offset="0" stop-color="#F18C55"/><stop offset=".5" stop-color="#F67B28"/><stop offset="1" stop-color="#E56B17"/></linearGradient><clipPath id="clip101"><rect width="5747" height="3153" x="1263" y="130"/></clipPath><clipPath id="clip102"><rect width="5747" height="3153" x="1263" y="130"/></clipPath><linearGradient id="fill103" x1="4098.5" x2="4098.5" y1="3206" y2="3228" gradientUnits="userSpaceOnUse" spreadMethod="reflect"><stop offset="0" stop-color="#AFAFAF"/><stop offset=".5" stop-color="#A5A5A5"/><stop offset="1" stop-color="#929292"/></linearGradient><clipPath id="clip104"><rect width="5747" height="3153" x="1263" y="130"/></clipPath><clipPath id="clip105"><rect width="5747" height="3153" x="1263" y="130"/></clipPath><linearGradient id="fill106" x1="4199" x2="4199" y1="3206" y2="3228" gradientUnits="userSpaceOnUse" spreadMethod="reflect"><stop offset="0" stop-color="#FFC746"/><stop offset=".5" stop-color="#FFC600"/><stop offset="1" stop-color="#E5B600"/></linearGradient><clipPath id="clip107"><rect width="5747" height="3153" x="1263" y="130"/></clipPath><clipPath id="clip108"><rect width="5747" height="3153" x="1263" y="130"/></clipPath><linearGradient id="fill109" x1="4299.5" x2="4299.5" y1="3206" y2="3228" gradientUnits="userSpaceOnUse" spreadMethod="reflect"><stop offset="0" stop-color="#71A6DB"/><stop offset=".5" stop-color="#559BDB"/><stop offset="1" stop-color="#438AC9"/></linearGradient><clipPath id="clip110"><rect width="5747" height="3153" x="1263" y="130"/></clipPath></defs><g clip-path="url(#clip0)" transform="translate(-1263 -130)"><rect width="5747" height="3152" x="1264" y="131" fill="#FFF"/><g clip-path="url(#clip1)"><path fill="none" stroke="#E0E5EB" stroke-linejoin="round" stroke-miterlimit="10" stroke-width="3.438" d="M1506.5 2482.58 6960.5 2482.58M1506.5 1984.57 6960.5 1984.57M1506.5 1486.55 6960.5 1486.55M1506.5 988.533 6960.5 988.533M1506.5 491.5 6960.5 491.5"/></g><g clip-path="url(#clip2)"><rect width="157" height="198" x="1585" y="2782" fill="url(#fill3)"/></g><g clip-path="url(#clip4)"><rect width="157" height="226" x="2676" y="2754" fill="url(#fill5)"/></g><g clip-path="url(#clip6)"><rect width="156" height="452" x="3767" y="2528" fill="url(#fill7)"/></g><g clip-path="url(#clip8)"><rect width="157" height="1342" x="4857" y="1638" fill="url(#fill9)"/></g><g clip-path="url(#clip10)"><rect width="157" height="1941" x="5948" y="1039" fill="url(#fill11)"/></g><g clip-path="url(#clip12)"><rect width="156" height="102" x="1780" y="2878" fill="url(#fill13)"/></g><g clip-path="url(#clip14)"><rect width="157" height="116" x="2870" y="2864" fill="url(#fill15)"/></g><g clip-path="url(#clip16)"><rect width="157" height="192" x="3961" y="2788" fill="url(#fill17)"/></g><g clip-path="url(#clip18)"><rect width="156" height="385" x="5052" y="2595" fill="url(#fill19)"/></g><g clip-path="url(#clip20)"><rect width="157" height="511" x="6142" y="2469" fill="url(#fill21)"/></g><g clip-path="url(#clip22)"><rect width="157" height="81" x="1974" y="2899" fill="url(#fill23)"/></g><g clip-path="url(#clip24)"><rect width="156" height="88" x="3065" y="2892" fill="url(#fill25)"/></g><g clip-path="url(#clip26)"><rect width="157" height="133" x="4155" y="2847" fill="url(#fill27)"/></g><g clip-path="url(#clip28)"><rect width="157" height="205" x="5246" y="2775" fill="url(#fill29)"/></g><g clip-path="url(#clip30)"><rect width="156" height="238" x="6337" y="2742" fill="url(#fill31)"/></g><g clip-path="url(#clip32)"><rect width="157" height="75" x="2168" y="2905" fill="url(#fill33)"/></g><g clip-path="url(#clip34)"><rect width="157" height="82" x="3259" y="2898" fill="url(#fill35)"/></g><g clip-path="url(#clip36)"><rect width="156" height="113" x="4350" y="2867" fill="url(#fill37)"/></g><g clip-path="url(#clip38)"><rect width="157" height="148" x="5440" y="2832" fill="url(#fill39)"/></g><g clip-path="url(#clip40)"><rect width="157" height="162" x="6531" y="2818" fill="url(#fill41)"/></g><g clip-path="url(#clip42)"><rect width="156" height="79" x="2363" y="2901" fill="url(#fill43)"/></g><g clip-path="url(#clip44)"><rect width="157" height="88" x="3453" y="2892" fill="url(#fill45)"/></g><g clip-path="url(#clip46)"><rect width="157" height="120" x="4544" y="2860" fill="url(#fill47)"/></g><g clip-path="url(#clip48)"><rect width="156" height="146" x="5635" y="2834" fill="url(#fill49)"/></g><g clip-path="url(#clip50)"><rect width="157" height="163" x="6725" y="2817" fill="url(#fill51)"/></g><g clip-path="url(#clip52)"><path fill="none" fill-rule="evenodd" stroke="#E0E5EB" stroke-linejoin="round" stroke-miterlimit="10" stroke-width="3.438" d="M1506.5 2980.5 6960.5 2980.5"/></g><g clip-path="url(#clip53)"><text fill="#44546A" font-family="Calibri,Calibri_MSFontService,sans-serif" font-size="41" font-weight="400" transform="matrix(1 0 0 1 1632.29 2750)">199</text></g><g clip-path="url(#clip54)"><text fill="#44546A" font-family="Calibri,Calibri_MSFontService,sans-serif" font-size="41" font-weight="400" transform="matrix(1 0 0 1 2722.95 2722)">228</text></g><g clip-path="url(#clip55)"><text fill="#44546A" font-family="Calibri,Calibri_MSFontService,sans-serif" font-size="41" font-weight="400" transform="matrix(1 0 0 1 3813.61 2496)">455</text></g><g clip-path="url(#clip56)"><text fill="#44546A" font-family="Calibri,Calibri_MSFontService,sans-serif" font-size="41" font-weight="400" transform="matrix(1 0 0 1 4893.82 1606)">1348</text></g><g clip-path="url(#clip57)"><text fill="#44546A" font-family="Calibri,Calibri_MSFontService,sans-serif" font-size="41" font-weight="400" transform="matrix(1 0 0 1 5984.48 1007)">1950</text></g><g clip-path="url(#clip58)"><text fill="#44546A" font-family="Calibri,Calibri_MSFontService,sans-serif" font-size="41" font-weight="400" transform="matrix(1 0 0 1 1826.6 2846)">103</text></g><g clip-path="url(#clip59)"><text fill="#44546A" font-family="Calibri,Calibri_MSFontService,sans-serif" font-size="41" font-weight="400" transform="matrix(1 0 0 1 2917.26 2832)">117</text></g><g clip-path="url(#clip60)"><text fill="#44546A" font-family="Calibri,Calibri_MSFontService,sans-serif" font-size="41" font-weight="400" transform="matrix(1 0 0 1 4007.92 2756)">194</text></g><g clip-path="url(#clip61)"><text fill="#44546A" font-family="Calibri,Calibri_MSFontService,sans-serif" font-size="41" font-weight="400" transform="matrix(1 0 0 1 5098.58 2563)">387</text></g><g clip-path="url(#clip62)"><text fill="#44546A" font-family="Calibri,Calibri_MSFontService,sans-serif" font-size="41" font-weight="400" transform="matrix(1 0 0 1 6189.24 2437)">514</text></g><g clip-path="url(#clip63)"><text fill="#44546A" font-family="Calibri,Calibri_MSFontService,sans-serif" font-size="41" font-weight="400" transform="matrix(1 0 0 1 2031.36 2867)">82</text></g><g clip-path="url(#clip64)"><text fill="#44546A" font-family="Calibri,Calibri_MSFontService,sans-serif" font-size="41" font-weight="400" transform="matrix(1 0 0 1 3122.02 2860)">88</text></g><g clip-path="url(#clip65)"><text fill="#44546A" font-family="Calibri,Calibri_MSFontService,sans-serif" font-size="41" font-weight="400" transform="matrix(1 0 0 1 4202.23 2816)">134</text></g><g clip-path="url(#clip66)"><text fill="#44546A" font-family="Calibri,Calibri_MSFontService,sans-serif" font-size="41" font-weight="400" transform="matrix(1 0 0 1 5292.89 2743)">206</text></g><g clip-path="url(#clip67)"><text fill="#44546A" font-family="Calibri,Calibri_MSFontService,sans-serif" font-size="41" font-weight="400" transform="matrix(1 0 0 1 6383.55 2710)">240</text></g><g clip-path="url(#clip68)"><text fill="#44546A" font-family="Calibri,Calibri_MSFontService,sans-serif" font-size="41" font-weight="400" transform="matrix(1 0 0 1 2225.68 2873)">76</text></g><g clip-path="url(#clip69)"><text fill="#44546A" font-family="Calibri,Calibri_MSFontService,sans-serif" font-size="41" font-weight="400" transform="matrix(1 0 0 1 3316.34 2866)">83</text></g><g clip-path="url(#clip70)"><text fill="#44546A" font-family="Calibri,Calibri_MSFontService,sans-serif" font-size="41" font-weight="400" transform="matrix(1 0 0 1 4396.55 2835)">114</text></g><g clip-path="url(#clip71)"><text fill="#44546A" font-family="Calibri,Calibri_MSFontService,sans-serif" font-size="41" font-weight="400" transform="matrix(1 0 0 1 5487.21 2800)">149</text></g><g clip-path="url(#clip72)"><text fill="#44546A" font-family="Calibri,Calibri_MSFontService,sans-serif" font-size="41" font-weight="400" transform="matrix(1 0 0 1 6577.86 2786)">164</text></g><g clip-path="url(#clip73)"><text fill="#44546A" font-family="Calibri,Calibri_MSFontService,sans-serif" font-size="41" font-weight="400" transform="matrix(1 0 0 1 2419.99 2869)">79</text></g><g clip-path="url(#clip74)"><text fill="#44546A" font-family="Calibri,Calibri_MSFontService,sans-serif" font-size="41" font-weight="400" transform="matrix(1 0 0 1 3510.65 2860)">88</text></g><g clip-path="url(#clip75)"><text fill="#44546A" font-family="Calibri,Calibri_MSFontService,sans-serif" font-size="41" font-weight="400" transform="matrix(1 0 0 1 4590.86 2828)">121</text></g><g clip-path="url(#clip76)"><text fill="#44546A" font-family="Calibri,Calibri_MSFontService,sans-serif" font-size="41" font-weight="400" transform="matrix(1 0 0 1 5681.52 2802)">147</text></g><g clip-path="url(#clip77)"><text fill="#44546A" font-family="Calibri,Calibri_MSFontService,sans-serif" font-size="41" font-weight="400" transform="matrix(1 0 0 1 6772.18 2785)">164</text></g><g clip-path="url(#clip78)"><text fill="#44546A" font-family="Calibri,Calibri_MSFontService,sans-serif" font-size="41" font-weight="400" transform="matrix(1 0 0 1 1447.77 2992)">0</text></g><g clip-path="url(#clip79)"><text fill="#44546A" font-family="Calibri,Calibri_MSFontService,sans-serif" font-size="41" font-weight="400" transform="matrix(1 0 0 1 1405.97 2494)">500</text></g><g clip-path="url(#clip80)"><text fill="#44546A" font-family="Calibri,Calibri_MSFontService,sans-serif" font-size="41" font-weight="400" transform="matrix(1 0 0 1 1385.07 1996)">1000</text></g><g clip-path="url(#clip81)"><text fill="#44546A" font-family="Calibri,Calibri_MSFontService,sans-serif" font-size="41" font-weight="400" transform="matrix(1 0 0 1 1385.07 1498)">1500</text></g><g clip-path="url(#clip82)"><text fill="#44546A" font-family="Calibri,Calibri_MSFontService,sans-serif" font-size="41" font-weight="400" transform="matrix(1 0 0 1 1385.07 1001)">2000</text></g><g clip-path="url(#clip83)"><text fill="#44546A" font-family="Calibri,Calibri_MSFontService,sans-serif" font-size="41" font-weight="400" transform="matrix(1 0 0 1 1385.07 503)">2500</text></g><g clip-path="url(#clip84)"><text fill="#44546A" font-family="Calibri,Calibri_MSFontService,sans-serif" font-size="41" font-weight="400" transform="matrix(1 0 0 1 2031.36 3046)">20</text></g><g clip-path="url(#clip85)"><text fill="#44546A" font-family="Calibri,Calibri_MSFontService,sans-serif" font-size="41" font-weight="400" transform="matrix(1 0 0 1 3122.02 3046)">32</text></g><g clip-path="url(#clip86)"><text fill="#44546A" font-family="Calibri,Calibri_MSFontService,sans-serif" font-size="41" font-weight="400" transform="matrix(1 0 0 1 4202.23 3046)">128</text></g><g clip-path="url(#clip87)"><text fill="#44546A" font-family="Calibri,Calibri_MSFontService,sans-serif" font-size="41" font-weight="400" transform="matrix(1 0 0 1 5292.89 3046)">384</text></g><g clip-path="url(#clip88)"><text fill="#44546A" font-family="Calibri,Calibri_MSFontService,sans-serif" font-size="41" font-weight="400" transform="matrix(1 0 0 1 6383.55 3046)">512</text></g><g clip-path="url(#clip89)"><text fill="#44546A" font-family="Calibri,Calibri_MSFontService,sans-serif" font-size="41" font-weight="700" transform="matrix(6.12323e-17 -1 1 6.12323e-17 1359.97 1844)">Latency (ms)</text></g><g clip-path="url(#clip90)"><text fill="#44546A" font-family="Calibri,Calibri_MSFontService,sans-serif" font-size="41" font-weight="700" transform="matrix(1 0 0 1 4092.69 3110)">Sequence Length</text></g><g clip-path="url(#clip91)"><text fill="#44546A" font-family="Calibri,Calibri_MSFontService,sans-serif" font-size="73" font-weight="700" transform="matrix(1 0 0 1 3499.56 235)">Intel Ice lake Xeon 8380</text></g><g clip-path="url(#clip92)"><text fill="#44546A" font-family="Calibri,Calibri_MSFontService,sans-serif" font-size="73" font-weight="700" transform="matrix(1 0 0 1 4234.91 235)">-</text></g><g clip-path="url(#clip93)"><text fill="#44546A" font-family="Calibri,Calibri_MSFontService,sans-serif" font-size="73" font-weight="700" transform="matrix(1 0 0 1 4273.94 235)">Intel TensorFlow</text></g><g clip-path="url(#clip94)"><text fill="#44546A" font-family="Calibri,Calibri_MSFontService,sans-serif" font-size="73" font-weight="700" transform="matrix(1 0 0 1 2863.6 324)">Latency Benchmark with varying number of CPU cores involved in the computations</text></g><g clip-path="url(#clip95)"><text fill="#44546A" font-family="Calibri,Calibri_MSFontService,sans-serif" font-size="73" font-weight="700" transform="matrix(1 0 0 1 3044.69 414)">(some data might be missing indicating benchmark crashed during runs)</text></g><g clip-path="url(#clip96)"><rect width="22" height="22" x="3929" y="3206" fill="url(#fill97)"/></g><g clip-path="url(#clip98)"><text fill="#44546A" font-family="Calibri,Calibri_MSFontService,sans-serif" font-size="41" font-weight="400" transform="matrix(1 0 0 1 3961.06 3229)">1</text></g><g clip-path="url(#clip99)"><rect width="23" height="22" x="4008" y="3206" fill="url(#fill100)"/></g><g clip-path="url(#clip101)"><text fill="#44546A" font-family="Calibri,Calibri_MSFontService,sans-serif" font-size="41" font-weight="400" transform="matrix(1 0 0 1 4040.4 3229)">4</text></g><g clip-path="url(#clip102)"><rect width="23" height="22" x="4087" y="3206" fill="url(#fill103)"/></g><g clip-path="url(#clip104)"><text fill="#44546A" font-family="Calibri,Calibri_MSFontService,sans-serif" font-size="41" font-weight="400" transform="matrix(1 0 0 1 4119.74 3229)">16</text></g><g clip-path="url(#clip105)"><rect width="22" height="22" x="4188" y="3206" fill="url(#fill106)"/></g><g clip-path="url(#clip107)"><text fill="#44546A" font-family="Calibri,Calibri_MSFontService,sans-serif" font-size="41" font-weight="400" transform="matrix(1 0 0 1 4219.97 3229)">40</text></g><g clip-path="url(#clip108)"><rect width="23" height="22" x="4288" y="3206" fill="url(#fill109)"/></g><g clip-path="url(#clip110)"><text fill="#44546A" font-family="Calibri,Calibri_MSFontService,sans-serif" font-size="41" font-weight="400" transform="matrix(1 0 0 1 4320.21 3229)">80</text></g><rect width="5747" height="3152" x="1264.5" y="131.5" fill="none" stroke="#E0E5EB" stroke-linejoin="round" stroke-miterlimit="10" stroke-width="3.438"/></g></svg>