<svg xmlns="http://www.w3.org/2000/svg" xmlns:xlink="http://www.w3.org/1999/xlink" width="5750" height="3155" overflow="hidden"><defs><clipPath id="clip0"><rect width="5750" height="3155" x="1263" y="130"/></clipPath><clipPath id="clip1"><rect width="5747" height="3153" x="1263" y="130"/></clipPath><clipPath id="clip2"><rect width="5457" height="2492" x="1506" y="491"/></clipPath><linearGradient id="fill3" x1="1663.5" x2="1663.5" y1="2816" y2="2980" gradientUnits="userSpaceOnUse" spreadMethod="reflect"><stop offset="0" stop-color="#6083CB"/><stop offset=".5" stop-color="#3E70CA"/><stop offset="1" stop-color="#2E61BA"/></linearGradient><clipPath id="clip4"><rect width="5457" height="2492" x="1506" y="491"/></clipPath><linearGradient id="fill5" x1="2754.5" x2="2754.5" y1="2791" y2="2980" gradientUnits="userSpaceOnUse" spreadMethod="reflect"><stop offset="0" stop-color="#6083CB"/><stop offset=".5" stop-color="#3E70CA"/><stop offset="1" stop-color="#2E61BA"/></linearGradient><clipPath id="clip6"><rect width="5457" height="2492" x="1506" y="491"/></clipPath><linearGradient id="fill7" x1="3845" x2="3845" y1="2553" y2="2980" gradientUnits="userSpaceOnUse" spreadMethod="reflect"><stop offset="0" stop-color="#6083CB"/><stop offset=".5" stop-color="#3E70CA"/><stop offset="1" stop-color="#2E61BA"/></linearGradient><clipPath id="clip8"><rect width="5457" height="2492" x="1506" y="491"/></clipPath><linearGradient id="fill9" x1="4935.5" x2="4935.5" y1="1669" y2="2980" gradientUnits="userSpaceOnUse" spreadMethod="reflect"><stop offset="0" stop-color="#6083CB"/><stop offset=".5" stop-color="#3E70CA"/><stop offset="1" stop-color="#2E61BA"/></linearGradient><clipPath id="clip10"><rect width="5457" height="2492" x="1506" y="491"/></clipPath><linearGradient id="fill11" x1="6026.5" x2="6026.5" y1="979" y2="2980" gradientUnits="userSpaceOnUse" spreadMethod="reflect"><stop offset="0" stop-color="#6083CB"/><stop offset=".5" stop-color="#3E70CA"/><stop offset="1" stop-color="#2E61BA"/></linearGradient><clipPath id="clip12"><rect width="5457" height="2492" x="1506" y="491"/></clipPath><linearGradient id="fill13" x1="1858" x2="1858" y1="2891" y2="2980" gradientUnits="userSpaceOnUse" spreadMethod="reflect"><stop offset="0" stop-color="#F18C55"/><stop offset=".5" stop-color="#F67B28"/><stop offset="1" stop-color="#E56B17"/></linearGradient><clipPath id="clip14"><rect width="5457" height="2492" x="1506" y="491"/></clipPath><linearGradient id="fill15" x1="2948.5" x2="2948.5" y1="2858" y2="2980" gradientUnits="userSpaceOnUse" spreadMethod="reflect"><stop offset="0" stop-color="#F18C55"/><stop offset=".5" stop-color="#F67B28"/><stop offset="1" stop-color="#E56B17"/></linearGradient><clipPath id="clip16"><rect width="5457" height="2492" x="1506" y="491"/></clipPath><linearGradient id="fill17" x1="4039.5" x2="4039.5" y1="2773" y2="2980" gradientUnits="userSpaceOnUse" spreadMethod="reflect"><stop offset="0" stop-color="#F18C55"/><stop offset=".5" stop-color="#F67B28"/><stop offset="1" stop-color="#E56B17"/></linearGradient><clipPath id="clip18"><rect width="5457" height="2492" x="1506" y="491"/></clipPath><linearGradient id="fill19" x1="5130" x2="5130" y1="2591" y2="2980" gradientUnits="userSpaceOnUse" spreadMethod="reflect"><stop offset="0" stop-color="#F18C55"/><stop offset=".5" stop-color="#F67B28"/><stop offset="1" stop-color="#E56B17"/></linearGradient><clipPath id="clip20"><rect width="5457" height="2492" x="1506" y="491"/></clipPath><linearGradient id="fill21" x1="6220.5" x2="6220.5" y1="2444" y2="2980" gradientUnits="userSpaceOnUse" spreadMethod="reflect"><stop offset="0" stop-color="#F18C55"/><stop offset=".5" stop-color="#F67B28"/><stop offset="1" stop-color="#E56B17"/></linearGradient><clipPath id="clip22"><rect width="5457" height="2492" x="1506" y="491"/></clipPath><linearGradient id="fill23" x1="2052.5" x2="2052.5" y1="2908" y2="2980" gradientUnits="userSpaceOnUse" spreadMethod="reflect"><stop offset="0" stop-color="#AFAFAF"/><stop offset=".5" stop-color="#A5A5A5"/><stop offset="1" stop-color="#929292"/></linearGradient><clipPath id="clip24"><rect width="5457" height="2492" x="1506" y="491"/></clipPath><linearGradient id="fill25" x1="3143" x2="3143" y1="2893" y2="2980" gradientUnits="userSpaceOnUse" spreadMethod="reflect"><stop offset="0" stop-color="#AFAFAF"/><stop offset=".5" stop-color="#A5A5A5"/><stop offset="1" stop-color="#929292"/></linearGradient><clipPath id="clip26"><rect width="5457" height="2492" x="1506" y="491"/></clipPath><linearGradient id="fill27" x1="4233.5" x2="4233.5" y1="2842" y2="2980" gradientUnits="userSpaceOnUse" spreadMethod="reflect"><stop offset="0" stop-color="#AFAFAF"/><stop offset=".5" stop-color="#A5A5A5"/><stop offset="1" stop-color="#929292"/></linearGradient><clipPath id="clip28"><rect width="5457" height="2492" x="1506" y="491"/></clipPath><linearGradient id="fill29" x1="5324.5" x2="5324.5" y1="2768" y2="2980" gradientUnits="userSpaceOnUse" spreadMethod="reflect"><stop offset="0" stop-color="#AFAFAF"/><stop offset=".5" stop-color="#A5A5A5"/><stop offset="1" stop-color="#929292"/></linearGradient><clipPath id="clip30"><rect width="5457" height="2492" x="1506" y="491"/></clipPath><linearGradient id="fill31" x1="6415" x2="6415" y1="2743" y2="2980" gradientUnits="userSpaceOnUse" spreadMethod="reflect"><stop offset="0" stop-color="#AFAFAF"/><stop offset=".5" stop-color="#A5A5A5"/><stop offset="1" stop-color="#929292"/></linearGradient><clipPath id="clip32"><rect width="5457" height="2492" x="1506" y="491"/></clipPath><linearGradient id="fill33" x1="2246.5" x2="2246.5" y1="2916" y2="2980" gradientUnits="userSpaceOnUse" spreadMethod="reflect"><stop offset="0" stop-color="#FFC746"/><stop offset=".5" stop-color="#FFC600"/><stop offset="1" stop-color="#E5B600"/></linearGradient><clipPath id="clip34"><rect width="5457" height="2492" x="1506" y="491"/></clipPath><linearGradient id="fill35" x1="3337.5" x2="3337.5" y1="2903" y2="2980" gradientUnits="userSpaceOnUse" spreadMethod="reflect"><stop offset="0" stop-color="#FFC746"/><stop offset=".5" stop-color="#FFC600"/><stop offset="1" stop-color="#E5B600"/></linearGradient><clipPath id="clip36"><rect width="5457" height="2492" x="1506" y="491"/></clipPath><linearGradient id="fill37" x1="4428" x2="4428" y1="2876" y2="2980" gradientUnits="userSpaceOnUse" spreadMethod="reflect"><stop offset="0" stop-color="#FFC746"/><stop offset=".5" stop-color="#FFC600"/><stop offset="1" stop-color="#E5B600"/></linearGradient><clipPath id="clip38"><rect width="5457" height="2492" x="1506" y="491"/></clipPath><linearGradient id="fill39" x1="5518.5" x2="5518.5" y1="2845" y2="2980" gradientUnits="userSpaceOnUse" spreadMethod="reflect"><stop offset="0" stop-color="#FFC746"/><stop offset=".5" stop-color="#FFC600"/><stop offset="1" stop-color="#E5B600"/></linearGradient><clipPath id="clip40"><rect width="5457" height="2492" x="1506" y="491"/></clipPath><linearGradient id="fill41" x1="6609.5" x2="6609.5" y1="2828" y2="2980" gradientUnits="userSpaceOnUse" spreadMethod="reflect"><stop offset="0" stop-color="#FFC746"/><stop offset=".5" stop-color="#FFC600"/><stop offset="1" stop-color="#E5B600"/></linearGradient><clipPath id="clip42"><rect width="5457" height="2492" x="1506" y="491"/></clipPath><linearGradient id="fill43" x1="2441" x2="2441" y1="2914" y2="2980" gradientUnits="userSpaceOnUse" spreadMethod="reflect"><stop offset="0" stop-color="#71A6DB"/><stop offset=".5" stop-color="#559BDB"/><stop offset="1" stop-color="#438AC9"/></linearGradient><clipPath id="clip44"><rect width="5457" height="2492" x="1506" y="491"/></clipPath><linearGradient id="fill45" x1="3531.5" x2="3531.5" y1="2894" y2="2980" gradientUnits="userSpaceOnUse" spreadMethod="reflect"><stop offset="0" stop-color="#71A6DB"/><stop offset=".5" stop-color="#559BDB"/><stop offset="1" stop-color="#438AC9"/></linearGradient><clipPath id="clip46"><rect width="5457" height="2492" x="1506" y="491"/></clipPath><linearGradient id="fill47" x1="4622.5" x2="4622.5" y1="2840" y2="2980" gradientUnits="userSpaceOnUse" spreadMethod="reflect"><stop offset="0" stop-color="#71A6DB"/><stop offset=".5" stop-color="#559BDB"/><stop offset="1" stop-color="#438AC9"/></linearGradient><clipPath id="clip48"><rect width="5457" height="2492" x="1506" y="491"/></clipPath><linearGradient id="fill49" x1="5713" x2="5713" y1="2803" y2="2980" gradientUnits="userSpaceOnUse" spreadMethod="reflect"><stop offset="0" stop-color="#71A6DB"/><stop offset=".5" stop-color="#559BDB"/><stop offset="1" stop-color="#438AC9"/></linearGradient><clipPath id="clip50"><rect width="5457" height="2492" x="1506" y="491"/></clipPath><linearGradient id="fill51" x1="6803.5" x2="6803.5" y1="2793" y2="2980" gradientUnits="userSpaceOnUse" spreadMethod="reflect"><stop offset="0" stop-color="#71A6DB"/><stop offset=".5" stop-color="#559BDB"/><stop offset="1" stop-color="#438AC9"/></linearGradient><clipPath id="clip52"><rect width="5747" height="3153" x="1263" y="130"/></clipPath><clipPath id="clip53"><rect width="5747" height="3153" x="1263" y="130"/></clipPath><clipPath id="clip54"><rect width="5747" height="3153" x="1263" y="130"/></clipPath><clipPath id="clip55"><rect width="5747" height="3153" x="1263" y="130"/></clipPath><clipPath id="clip56"><rect width="5747" height="3153" x="1263" y="130"/></clipPath><clipPath id="clip57"><rect width="5747" height="3153" x="1263" y="130"/></clipPath><clipPath id="clip58"><rect width="5747" height="3153" x="1263" y="130"/></clipPath><clipPath id="clip59"><rect width="5747" height="3153" x="1263" y="130"/></clipPath><clipPath id="clip60"><rect width="5747" height="3153" x="1263" y="130"/></clipPath><clipPath id="clip61"><rect width="5747" height="3153" x="1263" y="130"/></clipPath><clipPath id="clip62"><rect width="5747" height="3153" x="1263" y="130"/></clipPath><clipPath id="clip63"><rect width="5747" height="3153" x="1263" y="130"/></clipPath><clipPath id="clip64"><rect width="5747" height="3153" x="1263" y="130"/></clipPath><clipPath id="clip65"><rect width="5747" height="3153" x="1263" y="130"/></clipPath><clipPath id="clip66"><rect width="5747" height="3153" x="1263" y="130"/></clipPath><clipPath id="clip67"><rect width="5747" height="3153" x="1263" y="130"/></clipPath><clipPath id="clip68"><rect width="5747" height="3153" x="1263" y="130"/></clipPath><clipPath id="clip69"><rect width="5747" height="3153" x="1263" y="130"/></clipPath><clipPath id="clip70"><rect width="5747" height="3153" x="1263" y="130"/></clipPath><clipPath id="clip71"><rect width="5747" height="3153" x="1263" y="130"/></clipPath><clipPath id="clip72"><rect width="5747" height="3153" x="1263" y="130"/></clipPath><clipPath id="clip73"><rect width="5747" height="3153" x="1263" y="130"/></clipPath><clipPath id="clip74"><rect width="5747" height="3153" x="1263" y="130"/></clipPath><clipPath id="clip75"><rect width="5747" height="3153" x="1263" y="130"/></clipPath><clipPath id="clip76"><rect width="5747" height="3153" x="1263" y="130"/></clipPath><clipPath id="clip77"><rect width="5747" height="3153" x="1263" y="130"/></clipPath><clipPath id="clip78"><rect width="5747" height="3153" x="1263" y="130"/></clipPath><clipPath id="clip79"><rect width="5747" height="3153" x="1263" y="130"/></clipPath><clipPath id="clip80"><rect width="5747" height="3153" x="1263" y="130"/></clipPath><clipPath id="clip81"><rect width="5747" height="3153" x="1263" y="130"/></clipPath><clipPath id="clip82"><rect width="5747" height="3153" x="1263" y="130"/></clipPath><clipPath id="clip83"><rect width="5747" height="3153" x="1263" y="130"/></clipPath><clipPath id="clip84"><rect width="5747" height="3153" x="1263" y="130"/></clipPath><clipPath id="clip85"><rect width="5747" height="3153" x="1263" y="130"/></clipPath><clipPath id="clip86"><rect width="5747" height="3153" x="1263" y="130"/></clipPath><clipPath id="clip87"><rect width="5747" height="3153" x="1263" y="130"/></clipPath><clipPath id="clip88"><rect width="5747" height="3153" x="1263" y="130"/></clipPath><clipPath id="clip89"><rect width="5747" height="3153" x="1263" y="130"/></clipPath><clipPath id="clip90"><rect width="5747" height="3153" x="1263" y="130"/></clipPath><clipPath id="clip91"><rect width="5747" height="3153" x="1263" y="130"/></clipPath><clipPath id="clip92"><rect width="5747" height="3153" x="1263" y="130"/></clipPath><clipPath id="clip93"><rect width="5747" height="3153" x="1263" y="130"/></clipPath><clipPath id="clip94"><rect width="5747" height="3153" x="1263" y="130"/></clipPath><clipPath id="clip95"><rect width="5747" height="3153" x="1263" y="130"/></clipPath><clipPath id="clip96"><rect width="5747" height="3153" x="1263" y="130"/></clipPath><clipPath id="clip97"><rect width="5747" height="3153" x="1263" y="130"/></clipPath><linearGradient id="fill98" x1="3940" x2="3940" y1="3206" y2="3228" gradientUnits="userSpaceOnUse" spreadMethod="reflect"><stop offset="0" stop-color="#6083CB"/><stop offset=".5" stop-color="#3E70CA"/><stop offset="1" stop-color="#2E61BA"/></linearGradient><clipPath id="clip99"><rect width="5747" height="3153" x="1263" y="130"/></clipPath><clipPath id="clip100"><rect width="5747" height="3153" x="1263" y="130"/></clipPath><linearGradient id="fill101" x1="4019.5" x2="4019.5" y1="3206" y2="3228" gradientUnits="userSpaceOnUse" spreadMethod="reflect"><stop offset="0" stop-color="#F18C55"/><stop offset=".5" stop-color="#F67B28"/><stop offset="1" stop-color="#E56B17"/></linearGradient><clipPath id="clip102"><rect width="5747" height="3153" x="1263" y="130"/></clipPath><clipPath id="clip103"><rect width="5747" height="3153" x="1263" y="130"/></clipPath><linearGradient id="fill104" x1="4098.5" x2="4098.5" y1="3206" y2="3228" gradientUnits="userSpaceOnUse" spreadMethod="reflect"><stop offset="0" stop-color="#AFAFAF"/><stop offset=".5" stop-color="#A5A5A5"/><stop offset="1" stop-color="#929292"/></linearGradient><clipPath id="clip105"><rect width="5747" height="3153" x="1263" y="130"/></clipPath><clipPath id="clip106"><rect width="5747" height="3153" x="1263" y="130"/></clipPath><linearGradient id="fill107" x1="4199" x2="4199" y1="3206" y2="3228" gradientUnits="userSpaceOnUse" spreadMethod="reflect"><stop offset="0" stop-color="#FFC746"/><stop offset=".5" stop-color="#FFC600"/><stop offset="1" stop-color="#E5B600"/></linearGradient><clipPath id="clip108"><rect width="5747" height="3153" x="1263" y="130"/></clipPath><clipPath id="clip109"><rect width="5747" height="3153" x="1263" y="130"/></clipPath><linearGradient id="fill110" x1="4299.5" x2="4299.5" y1="3206" y2="3228" gradientUnits="userSpaceOnUse" spreadMethod="reflect"><stop offset="0" stop-color="#71A6DB"/><stop offset=".5" stop-color="#559BDB"/><stop offset="1" stop-color="#438AC9"/></linearGradient><clipPath id="clip111"><rect width="5747" height="3153" x="1263" y="130"/></clipPath></defs><g clip-path="url(#clip0)" transform="translate(-1263 -130)"><rect width="5747" height="3152" x="1264" y="131" fill="#FFF"/><g clip-path="url(#clip1)"><path fill="none" stroke="#E0E5EB" stroke-linejoin="round" stroke-miterlimit="10" stroke-width="3.438" d="M1506.5 2565.58 6960.5 2565.58M1506.5 2150.57 6960.5 2150.57M1506.5 1735.56 6960.5 1735.56M1506.5 1320.54 6960.5 1320.54M1506.5 905.53 6960.5 905.53M1506.5 491.5 6960.5 491.5"/></g><g clip-path="url(#clip2)"><rect width="157" height="164" x="1585" y="2816" fill="url(#fill3)"/></g><g clip-path="url(#clip4)"><rect width="157" height="189" x="2676" y="2791" fill="url(#fill5)"/></g><g clip-path="url(#clip6)"><rect width="156" height="427" x="3767" y="2553" fill="url(#fill7)"/></g><g clip-path="url(#clip8)"><rect width="157" height="1311" x="4857" y="1669" fill="url(#fill9)"/></g><g clip-path="url(#clip10)"><rect width="157" height="2001" x="5948" y="979" fill="url(#fill11)"/></g><g clip-path="url(#clip12)"><rect width="156" height="89" x="1780" y="2891" fill="url(#fill13)"/></g><g clip-path="url(#clip14)"><rect width="157" height="122" x="2870" y="2858" fill="url(#fill15)"/></g><g clip-path="url(#clip16)"><rect width="157" height="207" x="3961" y="2773" fill="url(#fill17)"/></g><g clip-path="url(#clip18)"><rect width="156" height="389" x="5052" y="2591" fill="url(#fill19)"/></g><g clip-path="url(#clip20)"><rect width="157" height="536" x="6142" y="2444" fill="url(#fill21)"/></g><g clip-path="url(#clip22)"><rect width="157" height="72" x="1974" y="2908" fill="url(#fill23)"/></g><g clip-path="url(#clip24)"><rect width="156" height="87" x="3065" y="2893" fill="url(#fill25)"/></g><g clip-path="url(#clip26)"><rect width="157" height="138" x="4155" y="2842" fill="url(#fill27)"/></g><g clip-path="url(#clip28)"><rect width="157" height="212" x="5246" y="2768" fill="url(#fill29)"/></g><g clip-path="url(#clip30)"><rect width="156" height="237" x="6337" y="2743" fill="url(#fill31)"/></g><g clip-path="url(#clip32)"><rect width="157" height="64" x="2168" y="2916" fill="url(#fill33)"/></g><g clip-path="url(#clip34)"><rect width="157" height="77" x="3259" y="2903" fill="url(#fill35)"/></g><g clip-path="url(#clip36)"><rect width="156" height="104" x="4350" y="2876" fill="url(#fill37)"/></g><g clip-path="url(#clip38)"><rect width="157" height="135" x="5440" y="2845" fill="url(#fill39)"/></g><g clip-path="url(#clip40)"><rect width="157" height="152" x="6531" y="2828" fill="url(#fill41)"/></g><g clip-path="url(#clip42)"><rect width="156" height="66" x="2363" y="2914" fill="url(#fill43)"/></g><g clip-path="url(#clip44)"><rect width="157" height="86" x="3453" y="2894" fill="url(#fill45)"/></g><g clip-path="url(#clip46)"><rect width="157" height="140" x="4544" y="2840" fill="url(#fill47)"/></g><g clip-path="url(#clip48)"><rect width="156" height="177" x="5635" y="2803" fill="url(#fill49)"/></g><g clip-path="url(#clip50)"><rect width="157" height="187" x="6725" y="2793" fill="url(#fill51)"/></g><g clip-path="url(#clip52)"><path fill="none" fill-rule="evenodd" stroke="#E0E5EB" stroke-linejoin="round" stroke-miterlimit="10" stroke-width="3.438" d="M1506.5 2980.5 6960.5 2980.5"/></g><g clip-path="url(#clip53)"><text fill="#44546A" font-family="Calibri,Calibri_MSFontService,sans-serif" font-size="41" font-weight="400" transform="matrix(1 0 0 1 1632.29 2784)">198</text></g><g clip-path="url(#clip54)"><text fill="#44546A" font-family="Calibri,Calibri_MSFontService,sans-serif" font-size="41" font-weight="400" transform="matrix(1 0 0 1 2722.95 2759)">228</text></g><g clip-path="url(#clip55)"><text fill="#44546A" font-family="Calibri,Calibri_MSFontService,sans-serif" font-size="41" font-weight="400" transform="matrix(1 0 0 1 3813.61 2521)">516</text></g><g clip-path="url(#clip56)"><text fill="#44546A" font-family="Calibri,Calibri_MSFontService,sans-serif" font-size="41" font-weight="400" transform="matrix(1 0 0 1 4893.82 1638)">1580</text></g><g clip-path="url(#clip57)"><text fill="#44546A" font-family="Calibri,Calibri_MSFontService,sans-serif" font-size="41" font-weight="400" transform="matrix(1 0 0 1 5984.48 947)">2412</text></g><g clip-path="url(#clip58)"><text fill="#44546A" font-family="Calibri,Calibri_MSFontService,sans-serif" font-size="41" font-weight="400" transform="matrix(1 0 0 1 1826.6 2859)">107</text></g><g clip-path="url(#clip59)"><text fill="#44546A" font-family="Calibri,Calibri_MSFontService,sans-serif" font-size="41" font-weight="400" transform="matrix(1 0 0 1 2917.26 2826)">148</text></g><g clip-path="url(#clip60)"><text fill="#44546A" font-family="Calibri,Calibri_MSFontService,sans-serif" font-size="41" font-weight="400" transform="matrix(1 0 0 1 4007.92 2741)">250</text></g><g clip-path="url(#clip61)"><text fill="#44546A" font-family="Calibri,Calibri_MSFontService,sans-serif" font-size="41" font-weight="400" transform="matrix(1 0 0 1 5098.58 2559)">469</text></g><g clip-path="url(#clip62)"><text fill="#44546A" font-family="Calibri,Calibri_MSFontService,sans-serif" font-size="41" font-weight="400" transform="matrix(1 0 0 1 6189.24 2412)">646</text></g><g clip-path="url(#clip63)"><text fill="#44546A" font-family="Calibri,Calibri_MSFontService,sans-serif" font-size="41" font-weight="400" transform="matrix(1 0 0 1 2031.36 2876)">87</text></g><g clip-path="url(#clip64)"><text fill="#44546A" font-family="Calibri,Calibri_MSFontService,sans-serif" font-size="41" font-weight="400" transform="matrix(1 0 0 1 3111.57 2861)">105</text></g><g clip-path="url(#clip65)"><text fill="#44546A" font-family="Calibri,Calibri_MSFontService,sans-serif" font-size="41" font-weight="400" transform="matrix(1 0 0 1 4202.23 2810)">167</text></g><g clip-path="url(#clip66)"><text fill="#44546A" font-family="Calibri,Calibri_MSFontService,sans-serif" font-size="41" font-weight="400" transform="matrix(1 0 0 1 5292.89 2736)">256</text></g><g clip-path="url(#clip67)"><text fill="#44546A" font-family="Calibri,Calibri_MSFontService,sans-serif" font-size="41" font-weight="400" transform="matrix(1 0 0 1 6383.55 2711)">286</text></g><g clip-path="url(#clip68)"><text fill="#44546A" font-family="Calibri,Calibri_MSFontService,sans-serif" font-size="41" font-weight="400" transform="matrix(1 0 0 1 2225.68 2884)">78</text></g><g clip-path="url(#clip69)"><text fill="#44546A" font-family="Calibri,Calibri_MSFontService,sans-serif" font-size="41" font-weight="400" transform="matrix(1 0 0 1 3316.34 2872)">93</text></g><g clip-path="url(#clip70)"><text fill="#44546A" font-family="Calibri,Calibri_MSFontService,sans-serif" font-size="41" font-weight="400" transform="matrix(1 0 0 1 4396.55 2844)">126</text></g><g clip-path="url(#clip71)"><text fill="#44546A" font-family="Calibri,Calibri_MSFontService,sans-serif" font-size="41" font-weight="400" transform="matrix(1 0 0 1 5487.21 2813)">163</text></g><g clip-path="url(#clip72)"><text fill="#44546A" font-family="Calibri,Calibri_MSFontService,sans-serif" font-size="41" font-weight="400" transform="matrix(1 0 0 1 6577.86 2796)">184</text></g><g clip-path="url(#clip73)"><text fill="#44546A" font-family="Calibri,Calibri_MSFontService,sans-serif" font-size="41" font-weight="400" transform="matrix(1 0 0 1 2419.99 2882)">80</text></g><g clip-path="url(#clip74)"><text fill="#44546A" font-family="Calibri,Calibri_MSFontService,sans-serif" font-size="41" font-weight="400" transform="matrix(1 0 0 1 3500.2 2862)">104</text></g><g clip-path="url(#clip75)"><text fill="#44546A" font-family="Calibri,Calibri_MSFontService,sans-serif" font-size="41" font-weight="400" transform="matrix(1 0 0 1 4590.86 2808)">169</text></g><g clip-path="url(#clip76)"><text fill="#44546A" font-family="Calibri,Calibri_MSFontService,sans-serif" font-size="41" font-weight="400" transform="matrix(1 0 0 1 5681.52 2771)">214</text></g><g clip-path="url(#clip77)"><text fill="#44546A" font-family="Calibri,Calibri_MSFontService,sans-serif" font-size="41" font-weight="400" transform="matrix(1 0 0 1 6772.18 2761)">226</text></g><g clip-path="url(#clip78)"><text fill="#44546A" font-family="Calibri,Calibri_MSFontService,sans-serif" font-size="41" font-weight="400" transform="matrix(1 0 0 1 1447.77 2992)">0</text></g><g clip-path="url(#clip79)"><text fill="#44546A" font-family="Calibri,Calibri_MSFontService,sans-serif" font-size="41" font-weight="400" transform="matrix(1 0 0 1 1405.97 2577)">500</text></g><g clip-path="url(#clip80)"><text fill="#44546A" font-family="Calibri,Calibri_MSFontService,sans-serif" font-size="41" font-weight="400" transform="matrix(1 0 0 1 1385.07 2162)">1000</text></g><g clip-path="url(#clip81)"><text fill="#44546A" font-family="Calibri,Calibri_MSFontService,sans-serif" font-size="41" font-weight="400" transform="matrix(1 0 0 1 1385.07 1747)">1500</text></g><g clip-path="url(#clip82)"><text fill="#44546A" font-family="Calibri,Calibri_MSFontService,sans-serif" font-size="41" font-weight="400" transform="matrix(1 0 0 1 1385.07 1332)">2000</text></g><g clip-path="url(#clip83)"><text fill="#44546A" font-family="Calibri,Calibri_MSFontService,sans-serif" font-size="41" font-weight="400" transform="matrix(1 0 0 1 1385.07 918)">2500</text></g><g clip-path="url(#clip84)"><text fill="#44546A" font-family="Calibri,Calibri_MSFontService,sans-serif" font-size="41" font-weight="400" transform="matrix(1 0 0 1 1385.07 503)">3000</text></g><g clip-path="url(#clip85)"><text fill="#44546A" font-family="Calibri,Calibri_MSFontService,sans-serif" font-size="41" font-weight="400" transform="matrix(1 0 0 1 2031.36 3046)">20</text></g><g clip-path="url(#clip86)"><text fill="#44546A" font-family="Calibri,Calibri_MSFontService,sans-serif" font-size="41" font-weight="400" transform="matrix(1 0 0 1 3122.02 3046)">32</text></g><g clip-path="url(#clip87)"><text fill="#44546A" font-family="Calibri,Calibri_MSFontService,sans-serif" font-size="41" font-weight="400" transform="matrix(1 0 0 1 4202.23 3046)">128</text></g><g clip-path="url(#clip88)"><text fill="#44546A" font-family="Calibri,Calibri_MSFontService,sans-serif" font-size="41" font-weight="400" transform="matrix(1 0 0 1 5292.89 3046)">384</text></g><g clip-path="url(#clip89)"><text fill="#44546A" font-family="Calibri,Calibri_MSFontService,sans-serif" font-size="41" font-weight="400" transform="matrix(1 0 0 1 6383.55 3046)">512</text></g><g clip-path="url(#clip90)"><text fill="#44546A" font-family="Calibri,Calibri_MSFontService,sans-serif" font-size="41" font-weight="700" transform="matrix(6.12323e-17 -1 1 6.12323e-17 1359.97 1844)">Latency (ms)</text></g><g clip-path="url(#clip91)"><text fill="#44546A" font-family="Calibri,Calibri_MSFontService,sans-serif" font-size="41" font-weight="700" transform="matrix(1 0 0 1 4092.69 3110)">Sequence Length</text></g><g clip-path="url(#clip92)"><text fill="#44546A" font-family="Calibri,Calibri_MSFontService,sans-serif" font-size="73" font-weight="700" transform="matrix(1 0 0 1 3484.39 235)">Intel Ice lake Xeon 8380</text></g><g clip-path="url(#clip93)"><text fill="#44546A" font-family="Calibri,Calibri_MSFontService,sans-serif" font-size="73" font-weight="700" transform="matrix(1 0 0 1 4219.74 235)">-</text></g><g clip-path="url(#clip94)"><text fill="#44546A" font-family="Calibri,Calibri_MSFontService,sans-serif" font-size="73" font-weight="700" transform="matrix(1 0 0 1 4258.77 235)">TensorFlow Eager</text></g><g clip-path="url(#clip95)"><text fill="#44546A" font-family="Calibri,Calibri_MSFontService,sans-serif" font-size="73" font-weight="700" transform="matrix(1 0 0 1 2863.6 324)">Latency Benchmark with varying number of CPU cores involved in the computations</text></g><g clip-path="url(#clip96)"><text fill="#44546A" font-family="Calibri,Calibri_MSFontService,sans-serif" font-size="73" font-weight="700" transform="matrix(1 0 0 1 3044.69 414)">(some data might be missing indicating benchmark crashed during runs)</text></g><g clip-path="url(#clip97)"><rect width="22" height="22" x="3929" y="3206" fill="url(#fill98)"/></g><g clip-path="url(#clip99)"><text fill="#44546A" font-family="Calibri,Calibri_MSFontService,sans-serif" font-size="41" font-weight="400" transform="matrix(1 0 0 1 3961.06 3229)">1</text></g><g clip-path="url(#clip100)"><rect width="23" height="22" x="4008" y="3206" fill="url(#fill101)"/></g><g clip-path="url(#clip102)"><text fill="#44546A" font-family="Calibri,Calibri_MSFontService,sans-serif" font-size="41" font-weight="400" transform="matrix(1 0 0 1 4040.4 3229)">4</text></g><g clip-path="url(#clip103)"><rect width="23" height="22" x="4087" y="3206" fill="url(#fill104)"/></g><g clip-path="url(#clip105)"><text fill="#44546A" font-family="Calibri,Calibri_MSFontService,sans-serif" font-size="41" font-weight="400" transform="matrix(1 0 0 1 4119.74 3229)">16</text></g><g clip-path="url(#clip106)"><rect width="22" height="22" x="4188" y="3206" fill="url(#fill107)"/></g><g clip-path="url(#clip108)"><text fill="#44546A" font-family="Calibri,Calibri_MSFontService,sans-serif" font-size="41" font-weight="400" transform="matrix(1 0 0 1 4219.97 3229)">40</text></g><g clip-path="url(#clip109)"><rect width="23" height="22" x="4288" y="3206" fill="url(#fill110)"/></g><g clip-path="url(#clip111)"><text fill="#44546A" font-family="Calibri,Calibri_MSFontService,sans-serif" font-size="41" font-weight="400" transform="matrix(1 0 0 1 4320.21 3229)">80</text></g><rect width="5747" height="3152" x="1264.5" y="131.5" fill="none" stroke="#E0E5EB" stroke-linejoin="round" stroke-miterlimit="10" stroke-width="3.438"/></g></svg>