<svg xmlns="http://www.w3.org/2000/svg" xmlns:xlink="http://www.w3.org/1999/xlink" width="5699" height="3155" overflow="hidden"><defs><clipPath id="clip0"><rect width="5699" height="3155" x="1263" y="130"/></clipPath><clipPath id="clip1"><rect width="5696" height="3153" x="1263" y="130"/></clipPath><clipPath id="clip2"><rect width="5406" height="2492" x="1506" y="491"/></clipPath><linearGradient id="fill3" x1="1662.5" x2="1662.5" y1="2706" y2="2980" gradientUnits="userSpaceOnUse" spreadMethod="reflect"><stop offset="0" stop-color="#6083CB"/><stop offset=".5" stop-color="#3E70CA"/><stop offset="1" stop-color="#2E61BA"/></linearGradient><clipPath id="clip4"><rect width="5406" height="2492" x="1506" y="491"/></clipPath><linearGradient id="fill5" x1="2742.5" x2="2742.5" y1="2685" y2="2980" gradientUnits="userSpaceOnUse" spreadMethod="reflect"><stop offset="0" stop-color="#6083CB"/><stop offset=".5" stop-color="#3E70CA"/><stop offset="1" stop-color="#2E61BA"/></linearGradient><clipPath id="clip6"><rect width="5406" height="2492" x="1506" y="491"/></clipPath><linearGradient id="fill7" x1="3823.5" x2="3823.5" y1="2397" y2="2980" gradientUnits="userSpaceOnUse" spreadMethod="reflect"><stop offset="0" stop-color="#6083CB"/><stop offset=".5" stop-color="#3E70CA"/><stop offset="1" stop-color="#2E61BA"/></linearGradient><clipPath id="clip8"><rect width="5406" height="2492" x="1506" y="491"/></clipPath><linearGradient id="fill9" x1="4903.5" x2="4903.5" y1="842" y2="2980" gradientUnits="userSpaceOnUse" spreadMethod="reflect"><stop offset="0" stop-color="#6083CB"/><stop offset=".5" stop-color="#3E70CA"/><stop offset="1" stop-color="#2E61BA"/></linearGradient><clipPath id="clip10"><rect width="5406" height="2492" x="1506" y="491"/></clipPath><linearGradient id="fill11" x1="1854.5" x2="1854.5" y1="2914" y2="2980" gradientUnits="userSpaceOnUse" spreadMethod="reflect"><stop offset="0" stop-color="#F18C55"/><stop offset=".5" stop-color="#F67B28"/><stop offset="1" stop-color="#E56B17"/></linearGradient><clipPath id="clip12"><rect width="5406" height="2492" x="1506" y="491"/></clipPath><linearGradient id="fill13" x1="2935.5" x2="2935.5" y1="2908" y2="2980" gradientUnits="userSpaceOnUse" spreadMethod="reflect"><stop offset="0" stop-color="#F18C55"/><stop offset=".5" stop-color="#F67B28"/><stop offset="1" stop-color="#E56B17"/></linearGradient><clipPath id="clip14"><rect width="5406" height="2492" x="1506" y="491"/></clipPath><linearGradient id="fill15" x1="4015.5" x2="4015.5" y1="2829" y2="2980" gradientUnits="userSpaceOnUse" spreadMethod="reflect"><stop offset="0" stop-color="#F18C55"/><stop offset=".5" stop-color="#F67B28"/><stop offset="1" stop-color="#E56B17"/></linearGradient><clipPath id="clip16"><rect width="5406" height="2492" x="1506" y="491"/></clipPath><linearGradient id="fill17" x1="5096.5" x2="5096.5" y1="2491" y2="2980" gradientUnits="userSpaceOnUse" spreadMethod="reflect"><stop offset="0" stop-color="#F18C55"/><stop offset=".5" stop-color="#F67B28"/><stop offset="1" stop-color="#E56B17"/></linearGradient><clipPath id="clip18"><rect width="5406" height="2492" x="1506" y="491"/></clipPath><linearGradient id="fill19" x1="6176.5" x2="6176.5" y1="2181" y2="2980" gradientUnits="userSpaceOnUse" spreadMethod="reflect"><stop offset="0" stop-color="#F18C55"/><stop offset=".5" stop-color="#F67B28"/><stop offset="1" stop-color="#E56B17"/></linearGradient><clipPath id="clip20"><rect width="5406" height="2492" x="1506" y="491"/></clipPath><linearGradient id="fill21" x1="2047.5" x2="2047.5" y1="2951" y2="2980" gradientUnits="userSpaceOnUse" spreadMethod="reflect"><stop offset="0" stop-color="#AFAFAF"/><stop offset=".5" stop-color="#A5A5A5"/><stop offset="1" stop-color="#929292"/></linearGradient><clipPath id="clip22"><rect width="5406" height="2492" x="1506" y="491"/></clipPath><linearGradient id="fill23" x1="3127.5" x2="3127.5" y1="2948" y2="2980" gradientUnits="userSpaceOnUse" spreadMethod="reflect"><stop offset="0" stop-color="#AFAFAF"/><stop offset=".5" stop-color="#A5A5A5"/><stop offset="1" stop-color="#929292"/></linearGradient><clipPath id="clip24"><rect width="5406" height="2492" x="1506" y="491"/></clipPath><linearGradient id="fill25" x1="4208.5" x2="4208.5" y1="2921" y2="2980" gradientUnits="userSpaceOnUse" spreadMethod="reflect"><stop offset="0" stop-color="#AFAFAF"/><stop offset=".5" stop-color="#A5A5A5"/><stop offset="1" stop-color="#929292"/></linearGradient><clipPath id="clip26"><rect width="5406" height="2492" x="1506" y="491"/></clipPath><linearGradient id="fill27" x1="5288.5" x2="5288.5" y1="2830" y2="2980" gradientUnits="userSpaceOnUse" spreadMethod="reflect"><stop offset="0" stop-color="#AFAFAF"/><stop offset=".5" stop-color="#A5A5A5"/><stop offset="1" stop-color="#929292"/></linearGradient><clipPath id="clip28"><rect width="5406" height="2492" x="1506" y="491"/></clipPath><linearGradient id="fill29" x1="6369.5" x2="6369.5" y1="2694" y2="2980" gradientUnits="userSpaceOnUse" spreadMethod="reflect"><stop offset="0" stop-color="#AFAFAF"/><stop offset=".5" stop-color="#A5A5A5"/><stop offset="1" stop-color="#929292"/></linearGradient><clipPath id="clip30"><rect width="5406" height="2492" x="1506" y="491"/></clipPath><linearGradient id="fill31" x1="2239.5" x2="2239.5" y1="2963" y2="2980" gradientUnits="userSpaceOnUse" spreadMethod="reflect"><stop offset="0" stop-color="#FFC746"/><stop offset=".5" stop-color="#FFC600"/><stop offset="1" stop-color="#E5B600"/></linearGradient><clipPath id="clip32"><rect width="5406" height="2492" x="1506" y="491"/></clipPath><linearGradient id="fill33" x1="3320.5" x2="3320.5" y1="2961" y2="2980" gradientUnits="userSpaceOnUse" spreadMethod="reflect"><stop offset="0" stop-color="#FFC746"/><stop offset=".5" stop-color="#FFC600"/><stop offset="1" stop-color="#E5B600"/></linearGradient><clipPath id="clip34"><rect width="5406" height="2492" x="1506" y="491"/></clipPath><linearGradient id="fill35" x1="4400.5" x2="4400.5" y1="2948" y2="2980" gradientUnits="userSpaceOnUse" spreadMethod="reflect"><stop offset="0" stop-color="#FFC746"/><stop offset=".5" stop-color="#FFC600"/><stop offset="1" stop-color="#E5B600"/></linearGradient><clipPath id="clip36"><rect width="5406" height="2492" x="1506" y="491"/></clipPath><linearGradient id="fill37" x1="5481.5" x2="5481.5" y1="2894" y2="2980" gradientUnits="userSpaceOnUse" spreadMethod="reflect"><stop offset="0" stop-color="#FFC746"/><stop offset=".5" stop-color="#FFC600"/><stop offset="1" stop-color="#E5B600"/></linearGradient><clipPath id="clip38"><rect width="5406" height="2492" x="1506" y="491"/></clipPath><linearGradient id="fill39" x1="6561.5" x2="6561.5" y1="2882" y2="2980" gradientUnits="userSpaceOnUse" spreadMethod="reflect"><stop offset="0" stop-color="#FFC746"/><stop offset=".5" stop-color="#FFC600"/><stop offset="1" stop-color="#E5B600"/></linearGradient><clipPath id="clip40"><rect width="5406" height="2492" x="1506" y="491"/></clipPath><linearGradient id="fill41" x1="2432.5" x2="2432.5" y1="2957" y2="2980" gradientUnits="userSpaceOnUse" spreadMethod="reflect"><stop offset="0" stop-color="#71A6DB"/><stop offset=".5" stop-color="#559BDB"/><stop offset="1" stop-color="#438AC9"/></linearGradient><clipPath id="clip42"><rect width="5406" height="2492" x="1506" y="491"/></clipPath><linearGradient id="fill43" x1="3512.5" x2="3512.5" y1="2954" y2="2980" gradientUnits="userSpaceOnUse" spreadMethod="reflect"><stop offset="0" stop-color="#71A6DB"/><stop offset=".5" stop-color="#559BDB"/><stop offset="1" stop-color="#438AC9"/></linearGradient><clipPath id="clip44"><rect width="5406" height="2492" x="1506" y="491"/></clipPath><linearGradient id="fill45" x1="4593.5" x2="4593.5" y1="2934" y2="2980" gradientUnits="userSpaceOnUse" spreadMethod="reflect"><stop offset="0" stop-color="#71A6DB"/><stop offset=".5" stop-color="#559BDB"/><stop offset="1" stop-color="#438AC9"/></linearGradient><clipPath id="clip46"><rect width="5406" height="2492" x="1506" y="491"/></clipPath><linearGradient id="fill47" x1="5673.5" x2="5673.5" y1="2905" y2="2980" gradientUnits="userSpaceOnUse" spreadMethod="reflect"><stop offset="0" stop-color="#71A6DB"/><stop offset=".5" stop-color="#559BDB"/><stop offset="1" stop-color="#438AC9"/></linearGradient><clipPath id="clip48"><rect width="5406" height="2492" x="1506" y="491"/></clipPath><linearGradient id="fill49" x1="6754.5" x2="6754.5" y1="2824" y2="2980" gradientUnits="userSpaceOnUse" spreadMethod="reflect"><stop offset="0" stop-color="#71A6DB"/><stop offset=".5" stop-color="#559BDB"/><stop offset="1" stop-color="#438AC9"/></linearGradient><clipPath id="clip50"><rect width="5696" height="3153" x="1263" y="130"/></clipPath><clipPath id="clip51"><rect width="5696" height="3153" x="1263" y="130"/></clipPath><clipPath id="clip52"><rect width="5696" height="3153" x="1263" y="130"/></clipPath><clipPath id="clip53"><rect width="5696" height="3153" x="1263" y="130"/></clipPath><clipPath id="clip54"><rect width="5696" height="3153" x="1263" y="130"/></clipPath><clipPath id="clip55"><rect width="5696" height="3153" x="1263" y="130"/></clipPath><clipPath id="clip56"><rect width="5696" height="3153" x="1263" y="130"/></clipPath><clipPath id="clip57"><rect width="5696" height="3153" x="1263" y="130"/></clipPath><clipPath id="clip58"><rect width="5696" height="3153" x="1263" y="130"/></clipPath><clipPath id="clip59"><rect width="5696" height="3153" x="1263" y="130"/></clipPath><clipPath id="clip60"><rect width="5696" height="3153" x="1263" y="130"/></clipPath><clipPath id="clip61"><rect width="5696" height="3153" x="1263" y="130"/></clipPath><clipPath id="clip62"><rect width="5696" height="3153" x="1263" y="130"/></clipPath><clipPath id="clip63"><rect width="5696" height="3153" x="1263" y="130"/></clipPath><clipPath id="clip64"><rect width="5696" height="3153" x="1263" y="130"/></clipPath><clipPath id="clip65"><rect width="5696" height="3153" x="1263" y="130"/></clipPath><clipPath id="clip66"><rect width="5696" height="3153" x="1263" y="130"/></clipPath><clipPath id="clip67"><rect width="5696" height="3153" x="1263" y="130"/></clipPath><clipPath id="clip68"><rect width="5696" height="3153" x="1263" y="130"/></clipPath><clipPath id="clip69"><rect width="5696" height="3153" x="1263" y="130"/></clipPath><clipPath id="clip70"><rect width="5696" height="3153" x="1263" y="130"/></clipPath><clipPath id="clip71"><rect width="5696" height="3153" x="1263" y="130"/></clipPath><clipPath id="clip72"><rect width="5696" height="3153" x="1263" y="130"/></clipPath><clipPath id="clip73"><rect width="5696" height="3153" x="1263" y="130"/></clipPath><clipPath id="clip74"><rect width="5696" height="3153" x="1263" y="130"/></clipPath><clipPath id="clip75"><rect width="5696" height="3153" x="1263" y="130"/></clipPath><clipPath id="clip76"><rect width="5696" height="3153" x="1263" y="130"/></clipPath><clipPath id="clip77"><rect width="5696" height="3153" x="1263" y="130"/></clipPath><clipPath id="clip78"><rect width="5696" height="3153" x="1263" y="130"/></clipPath><clipPath id="clip79"><rect width="5696" height="3153" x="1263" y="130"/></clipPath><clipPath id="clip80"><rect width="5696" height="3153" x="1263" y="130"/></clipPath><clipPath id="clip81"><rect width="5696" height="3153" x="1263" y="130"/></clipPath><clipPath id="clip82"><rect width="5696" height="3153" x="1263" y="130"/></clipPath><clipPath id="clip83"><rect width="5696" height="3153" x="1263" y="130"/></clipPath><clipPath id="clip84"><rect width="5696" height="3153" x="1263" y="130"/></clipPath><clipPath id="clip85"><rect width="5696" height="3153" x="1263" y="130"/></clipPath><clipPath id="clip86"><rect width="5696" height="3153" x="1263" y="130"/></clipPath><clipPath id="clip87"><rect width="5696" height="3153" x="1263" y="130"/></clipPath><clipPath id="clip88"><rect width="5696" height="3153" x="1263" y="130"/></clipPath><clipPath id="clip89"><rect width="5696" height="3153" x="1263" y="130"/></clipPath><clipPath id="clip90"><rect width="5696" height="3153" x="1263" y="130"/></clipPath><clipPath id="clip91"><rect width="5696" height="3153" x="1263" y="130"/></clipPath><clipPath id="clip92"><rect width="5696" height="3153" x="1263" y="130"/></clipPath><clipPath id="clip93"><rect width="5696" height="3153" x="1263" y="130"/></clipPath><clipPath id="clip94"><rect width="5696" height="3153" x="1263" y="130"/></clipPath><linearGradient id="fill95" x1="3914.5" x2="3914.5" y1="3206" y2="3228" gradientUnits="userSpaceOnUse" spreadMethod="reflect"><stop offset="0" stop-color="#6083CB"/><stop offset=".5" stop-color="#3E70CA"/><stop offset="1" stop-color="#2E61BA"/></linearGradient><clipPath id="clip96"><rect width="5696" height="3153" x="1263" y="130"/></clipPath><clipPath id="clip97"><rect width="5696" height="3153" x="1263" y="130"/></clipPath><linearGradient id="fill98" x1="3994" x2="3994" y1="3206" y2="3228" gradientUnits="userSpaceOnUse" spreadMethod="reflect"><stop offset="0" stop-color="#F18C55"/><stop offset=".5" stop-color="#F67B28"/><stop offset="1" stop-color="#E56B17"/></linearGradient><clipPath id="clip99"><rect width="5696" height="3153" x="1263" y="130"/></clipPath><clipPath id="clip100"><rect width="5696" height="3153" x="1263" y="130"/></clipPath><linearGradient id="fill101" x1="4073.5" x2="4073.5" y1="3206" y2="3228" gradientUnits="userSpaceOnUse" spreadMethod="reflect"><stop offset="0" stop-color="#AFAFAF"/><stop offset=".5" stop-color="#A5A5A5"/><stop offset="1" stop-color="#929292"/></linearGradient><clipPath id="clip102"><rect width="5696" height="3153" x="1263" y="130"/></clipPath><clipPath id="clip103"><rect width="5696" height="3153" x="1263" y="130"/></clipPath><linearGradient id="fill104" x1="4173.5" x2="4173.5" y1="3206" y2="3228" gradientUnits="userSpaceOnUse" spreadMethod="reflect"><stop offset="0" stop-color="#FFC746"/><stop offset=".5" stop-color="#FFC600"/><stop offset="1" stop-color="#E5B600"/></linearGradient><clipPath id="clip105"><rect width="5696" height="3153" x="1263" y="130"/></clipPath><clipPath id="clip106"><rect width="5696" height="3153" x="1263" y="130"/></clipPath><linearGradient id="fill107" x1="4274" x2="4274" y1="3206" y2="3228" gradientUnits="userSpaceOnUse" spreadMethod="reflect"><stop offset="0" stop-color="#71A6DB"/><stop offset=".5" stop-color="#559BDB"/><stop offset="1" stop-color="#438AC9"/></linearGradient><clipPath id="clip108"><rect width="5696" height="3153" x="1263" y="130"/></clipPath></defs><g clip-path="url(#clip0)" transform="translate(-1263 -130)"><rect width="5696" height="3152" x="1264" y="131" fill="#FFF"/><g clip-path="url(#clip1)"><path fill="none" stroke="#E0E5EB" stroke-linejoin="round" stroke-miterlimit="10" stroke-width="3.438" d="M1506.5 2565.58 6909.5 2565.58M1506.5 2150.57 6909.5 2150.57M1506.5 1735.56 6909.5 1735.56M1506.5 1320.54 6909.5 1320.54M1506.5 905.53 6909.5 905.53M1506.5 491.5 6909.5 491.5"/></g><g clip-path="url(#clip2)"><rect width="155" height="274" x="1585" y="2706" fill="url(#fill3)"/></g><g clip-path="url(#clip4)"><rect width="155" height="295" x="2665" y="2685" fill="url(#fill5)"/></g><g clip-path="url(#clip6)"><rect width="155" height="583" x="3746" y="2397" fill="url(#fill7)"/></g><g clip-path="url(#clip8)"><rect width="155" height="2138" x="4826" y="842" fill="url(#fill9)"/></g><g clip-path="url(#clip10)"><rect width="155" height="66" x="1777" y="2914" fill="url(#fill11)"/></g><g clip-path="url(#clip12)"><rect width="155" height="72" x="2858" y="2908" fill="url(#fill13)"/></g><g clip-path="url(#clip14)"><rect width="155" height="151" x="3938" y="2829" fill="url(#fill15)"/></g><g clip-path="url(#clip16)"><rect width="155" height="489" x="5019" y="2491" fill="url(#fill17)"/></g><g clip-path="url(#clip18)"><rect width="155" height="799" x="6099" y="2181" fill="url(#fill19)"/></g><g clip-path="url(#clip20)"><rect width="155" height="29" x="1970" y="2951" fill="url(#fill21)"/></g><g clip-path="url(#clip22)"><rect width="155" height="32" x="3050" y="2948" fill="url(#fill23)"/></g><g clip-path="url(#clip24)"><rect width="155" height="59" x="4131" y="2921" fill="url(#fill25)"/></g><g clip-path="url(#clip26)"><rect width="155" height="150" x="5211" y="2830" fill="url(#fill27)"/></g><g clip-path="url(#clip28)"><rect width="155" height="286" x="6292" y="2694" fill="url(#fill29)"/></g><g clip-path="url(#clip30)"><rect width="155" height="17" x="2162" y="2963" fill="url(#fill31)"/></g><g clip-path="url(#clip32)"><rect width="155" height="19" x="3243" y="2961" fill="url(#fill33)"/></g><g clip-path="url(#clip34)"><rect width="155" height="32" x="4323" y="2948" fill="url(#fill35)"/></g><g clip-path="url(#clip36)"><rect width="155" height="86" x="5404" y="2894" fill="url(#fill37)"/></g><g clip-path="url(#clip38)"><rect width="155" height="98" x="6484" y="2882" fill="url(#fill39)"/></g><g clip-path="url(#clip40)"><rect width="155" height="23" x="2355" y="2957" fill="url(#fill41)"/></g><g clip-path="url(#clip42)"><rect width="155" height="26" x="3435" y="2954" fill="url(#fill43)"/></g><g clip-path="url(#clip44)"><rect width="155" height="46" x="4516" y="2934" fill="url(#fill45)"/></g><g clip-path="url(#clip46)"><rect width="155" height="75" x="5596" y="2905" fill="url(#fill47)"/></g><g clip-path="url(#clip48)"><rect width="155" height="156" x="6677" y="2824" fill="url(#fill49)"/></g><g clip-path="url(#clip50)"><path fill="none" fill-rule="evenodd" stroke="#E0E5EB" stroke-linejoin="round" stroke-miterlimit="10" stroke-width="3.438" d="M1506.5 2980.5 6909.5 2980.5"/></g><g clip-path="url(#clip51)"><text fill="#44546A" font-family="Calibri,Calibri_MSFontService,sans-serif" font-size="41" font-weight="400" transform="matrix(1 0 0 1 1630.83 2674)">132</text></g><g clip-path="url(#clip52)"><text fill="#44546A" font-family="Calibri,Calibri_MSFontService,sans-serif" font-size="41" font-weight="400" transform="matrix(1 0 0 1 2711.34 2653)">143</text></g><g clip-path="url(#clip53)"><text fill="#44546A" font-family="Calibri,Calibri_MSFontService,sans-serif" font-size="41" font-weight="400" transform="matrix(1 0 0 1 3791.84 2365)">281</text></g><g clip-path="url(#clip54)"><text fill="#44546A" font-family="Calibri,Calibri_MSFontService,sans-serif" font-size="41" font-weight="400" transform="matrix(1 0 0 1 4861.9 810)">1031</text></g><g clip-path="url(#clip55)"><text fill="#44546A" font-family="Calibri,Calibri_MSFontService,sans-serif" font-size="41" font-weight="400" transform="matrix(1 0 0 1 1833.78 2882)">32</text></g><g clip-path="url(#clip56)"><text fill="#44546A" font-family="Calibri,Calibri_MSFontService,sans-serif" font-size="41" font-weight="400" transform="matrix(1 0 0 1 2914.29 2876)">35</text></g><g clip-path="url(#clip57)"><text fill="#44546A" font-family="Calibri,Calibri_MSFontService,sans-serif" font-size="41" font-weight="400" transform="matrix(1 0 0 1 3994.79 2797)">73</text></g><g clip-path="url(#clip58)"><text fill="#44546A" font-family="Calibri,Calibri_MSFontService,sans-serif" font-size="41" font-weight="400" transform="matrix(1 0 0 1 5064.85 2459)">236</text></g><g clip-path="url(#clip59)"><text fill="#44546A" font-family="Calibri,Calibri_MSFontService,sans-serif" font-size="41" font-weight="400" transform="matrix(1 0 0 1 6145.36 2149)">385</text></g><g clip-path="url(#clip60)"><text fill="#44546A" font-family="Calibri,Calibri_MSFontService,sans-serif" font-size="41" font-weight="400" transform="matrix(1 0 0 1 2026.29 2919)">14</text></g><g clip-path="url(#clip61)"><text fill="#44546A" font-family="Calibri,Calibri_MSFontService,sans-serif" font-size="41" font-weight="400" transform="matrix(1 0 0 1 3106.79 2916)">16</text></g><g clip-path="url(#clip62)"><text fill="#44546A" font-family="Calibri,Calibri_MSFontService,sans-serif" font-size="41" font-weight="400" transform="matrix(1 0 0 1 4187.3 2889)">29</text></g><g clip-path="url(#clip63)"><text fill="#44546A" font-family="Calibri,Calibri_MSFontService,sans-serif" font-size="41" font-weight="400" transform="matrix(1 0 0 1 5267.8 2798)">72</text></g><g clip-path="url(#clip64)"><text fill="#44546A" font-family="Calibri,Calibri_MSFontService,sans-serif" font-size="41" font-weight="400" transform="matrix(1 0 0 1 6337.86 2662)">138</text></g><g clip-path="url(#clip65)"><text fill="#44546A" font-family="Calibri,Calibri_MSFontService,sans-serif" font-size="41" font-weight="400" transform="matrix(1 0 0 1 2229.24 2931)">9</text></g><g clip-path="url(#clip66)"><text fill="#44546A" font-family="Calibri,Calibri_MSFontService,sans-serif" font-size="41" font-weight="400" transform="matrix(1 0 0 1 3309.75 2929)">9</text></g><g clip-path="url(#clip67)"><text fill="#44546A" font-family="Calibri,Calibri_MSFontService,sans-serif" font-size="41" font-weight="400" transform="matrix(1 0 0 1 4379.8 2916)">16</text></g><g clip-path="url(#clip68)"><text fill="#44546A" font-family="Calibri,Calibri_MSFontService,sans-serif" font-size="41" font-weight="400" transform="matrix(1 0 0 1 5460.31 2862)">42</text></g><g clip-path="url(#clip69)"><text fill="#44546A" font-family="Calibri,Calibri_MSFontService,sans-serif" font-size="41" font-weight="400" transform="matrix(1 0 0 1 6540.81 2851)">47</text></g><g clip-path="url(#clip70)"><text fill="#44546A" font-family="Calibri,Calibri_MSFontService,sans-serif" font-size="41" font-weight="400" transform="matrix(1 0 0 1 2411.29 2925)">11</text></g><g clip-path="url(#clip71)"><text fill="#44546A" font-family="Calibri,Calibri_MSFontService,sans-serif" font-size="41" font-weight="400" transform="matrix(1 0 0 1 3491.8 2922)">13</text></g><g clip-path="url(#clip72)"><text fill="#44546A" font-family="Calibri,Calibri_MSFontService,sans-serif" font-size="41" font-weight="400" transform="matrix(1 0 0 1 4572.31 2902)">23</text></g><g clip-path="url(#clip73)"><text fill="#44546A" font-family="Calibri,Calibri_MSFontService,sans-serif" font-size="41" font-weight="400" transform="matrix(1 0 0 1 5652.81 2873)">37</text></g><g clip-path="url(#clip74)"><text fill="#44546A" font-family="Calibri,Calibri_MSFontService,sans-serif" font-size="41" font-weight="400" transform="matrix(1 0 0 1 6733.32 2792)">76</text></g><g clip-path="url(#clip75)"><text fill="#44546A" font-family="Calibri,Calibri_MSFontService,sans-serif" font-size="41" font-weight="400" transform="matrix(1 0 0 1 1447.77 2992)">0</text></g><g clip-path="url(#clip76)"><text fill="#44546A" font-family="Calibri,Calibri_MSFontService,sans-serif" font-size="41" font-weight="400" transform="matrix(1 0 0 1 1405.97 2577)">200</text></g><g clip-path="url(#clip77)"><text fill="#44546A" font-family="Calibri,Calibri_MSFontService,sans-serif" font-size="41" font-weight="400" transform="matrix(1 0 0 1 1405.97 2162)">400</text></g><g clip-path="url(#clip78)"><text fill="#44546A" font-family="Calibri,Calibri_MSFontService,sans-serif" font-size="41" font-weight="400" transform="matrix(1 0 0 1 1405.97 1747)">600</text></g><g clip-path="url(#clip79)"><text fill="#44546A" font-family="Calibri,Calibri_MSFontService,sans-serif" font-size="41" font-weight="400" transform="matrix(1 0 0 1 1405.97 1332)">800</text></g><g clip-path="url(#clip80)"><text fill="#44546A" font-family="Calibri,Calibri_MSFontService,sans-serif" font-size="41" font-weight="400" transform="matrix(1 0 0 1 1385.07 918)">1000</text></g><g clip-path="url(#clip81)"><text fill="#44546A" font-family="Calibri,Calibri_MSFontService,sans-serif" font-size="41" font-weight="400" transform="matrix(1 0 0 1 1385.07 503)">1200</text></g><g clip-path="url(#clip82)"><text fill="#44546A" font-family="Calibri,Calibri_MSFontService,sans-serif" font-size="41" font-weight="400" transform="matrix(1 0 0 1 2026.29 3046)">20</text></g><g clip-path="url(#clip83)"><text fill="#44546A" font-family="Calibri,Calibri_MSFontService,sans-serif" font-size="41" font-weight="400" transform="matrix(1 0 0 1 3106.79 3046)">32</text></g><g clip-path="url(#clip84)"><text fill="#44546A" font-family="Calibri,Calibri_MSFontService,sans-serif" font-size="41" font-weight="400" transform="matrix(1 0 0 1 4176.85 3046)">128</text></g><g clip-path="url(#clip85)"><text fill="#44546A" font-family="Calibri,Calibri_MSFontService,sans-serif" font-size="41" font-weight="400" transform="matrix(1 0 0 1 5257.35 3046)">384</text></g><g clip-path="url(#clip86)"><text fill="#44546A" font-family="Calibri,Calibri_MSFontService,sans-serif" font-size="41" font-weight="400" transform="matrix(1 0 0 1 6337.86 3046)">512</text></g><g clip-path="url(#clip87)"><text fill="#44546A" font-family="Calibri,Calibri_MSFontService,sans-serif" font-size="41" font-weight="700" transform="matrix(6.12323e-17 -1 1 6.12323e-17 1359.97 1844)">Latency (ms)</text></g><g clip-path="url(#clip88)"><text fill="#44546A" font-family="Calibri,Calibri_MSFontService,sans-serif" font-size="41" font-weight="700" transform="matrix(1 0 0 1 4067.31 3110)">Sequence Length</text></g><g clip-path="url(#clip89)"><text fill="#44546A" font-family="Calibri,Calibri_MSFontService,sans-serif" font-size="73" font-weight="700" transform="matrix(1 0 0 1 3555.4 235)">Intel Ice lake Xeon 8380</text></g><g clip-path="url(#clip90)"><text fill="#44546A" font-family="Calibri,Calibri_MSFontService,sans-serif" font-size="73" font-weight="700" transform="matrix(1 0 0 1 4290.75 235)">-</text></g><g clip-path="url(#clip91)"><text fill="#44546A" font-family="Calibri,Calibri_MSFontService,sans-serif" font-size="73" font-weight="700" transform="matrix(1 0 0 1 4329.77 235)">TorchScript</text></g><g clip-path="url(#clip92)"><text fill="#44546A" font-family="Calibri,Calibri_MSFontService,sans-serif" font-size="73" font-weight="700" transform="matrix(1 0 0 1 2838.22 324)">Latency Benchmark with varying number of CPU cores involved in the computations</text></g><g clip-path="url(#clip93)"><text fill="#44546A" font-family="Calibri,Calibri_MSFontService,sans-serif" font-size="73" font-weight="700" transform="matrix(1 0 0 1 3019.31 414)">(some data might be missing indicating benchmark crashed during runs)</text></g><g clip-path="url(#clip94)"><rect width="23" height="22" x="3903" y="3206" fill="url(#fill95)"/></g><g clip-path="url(#clip96)"><text fill="#44546A" font-family="Calibri,Calibri_MSFontService,sans-serif" font-size="41" font-weight="400" transform="matrix(1 0 0 1 3935.68 3229)">1</text></g><g clip-path="url(#clip97)"><rect width="22" height="22" x="3983" y="3206" fill="url(#fill98)"/></g><g clip-path="url(#clip99)"><text fill="#44546A" font-family="Calibri,Calibri_MSFontService,sans-serif" font-size="41" font-weight="400" transform="matrix(1 0 0 1 4015.01 3229)">4</text></g><g clip-path="url(#clip100)"><rect width="23" height="22" x="4062" y="3206" fill="url(#fill101)"/></g><g clip-path="url(#clip102)"><text fill="#44546A" font-family="Calibri,Calibri_MSFontService,sans-serif" font-size="41" font-weight="400" transform="matrix(1 0 0 1 4094.35 3229)">16</text></g><g clip-path="url(#clip103)"><rect width="23" height="22" x="4162" y="3206" fill="url(#fill104)"/></g><g clip-path="url(#clip105)"><text fill="#44546A" font-family="Calibri,Calibri_MSFontService,sans-serif" font-size="41" font-weight="400" transform="matrix(1 0 0 1 4194.59 3229)">40</text></g><g clip-path="url(#clip106)"><rect width="22" height="22" x="4263" y="3206" fill="url(#fill107)"/></g><g clip-path="url(#clip108)"><text fill="#44546A" font-family="Calibri,Calibri_MSFontService,sans-serif" font-size="41" font-weight="400" transform="matrix(1 0 0 1 4294.83 3229)">80</text></g><rect width="5696" height="3152" x="1264.5" y="131.5" fill="none" stroke="#E0E5EB" stroke-linejoin="round" stroke-miterlimit="10" stroke-width="3.438"/></g></svg>