<svg xmlns="http://www.w3.org/2000/svg" xmlns:xlink="http://www.w3.org/1999/xlink" width="5699" height="3155" overflow="hidden"><defs><clipPath id="clip0"><rect width="5699" height="3155" x="1436" y="130"/></clipPath><clipPath id="clip1"><rect width="5696" height="3153" x="1437" y="130"/></clipPath><clipPath id="clip2"><rect width="5406" height="2492" x="1680" y="491"/></clipPath><linearGradient id="fill3" x1="1835.5" x2="1835.5" y1="2825" y2="2980" gradientUnits="userSpaceOnUse" spreadMethod="reflect"><stop offset="0" stop-color="#6083CB"/><stop offset=".5" stop-color="#3E70CA"/><stop offset="1" stop-color="#2E61BA"/></linearGradient><clipPath id="clip4"><rect width="5406" height="2492" x="1680" y="491"/></clipPath><linearGradient id="fill5" x1="2916.5" x2="2916.5" y1="2812" y2="2980" gradientUnits="userSpaceOnUse" spreadMethod="reflect"><stop offset="0" stop-color="#6083CB"/><stop offset=".5" stop-color="#3E70CA"/><stop offset="1" stop-color="#2E61BA"/></linearGradient><clipPath id="clip6"><rect width="5406" height="2492" x="1680" y="491"/></clipPath><linearGradient id="fill7" x1="3996.5" x2="3996.5" y1="2606" y2="2980" gradientUnits="userSpaceOnUse" spreadMethod="reflect"><stop offset="0" stop-color="#6083CB"/><stop offset=".5" stop-color="#3E70CA"/><stop offset="1" stop-color="#2E61BA"/></linearGradient><clipPath id="clip8"><rect width="5406" height="2492" x="1680" y="491"/></clipPath><linearGradient id="fill9" x1="5077.5" x2="5077.5" y1="1602" y2="2980" gradientUnits="userSpaceOnUse" spreadMethod="reflect"><stop offset="0" stop-color="#6083CB"/><stop offset=".5" stop-color="#3E70CA"/><stop offset="1" stop-color="#2E61BA"/></linearGradient><clipPath id="clip10"><rect width="5406" height="2492" x="1680" y="491"/></clipPath><linearGradient id="fill11" x1="6157.5" x2="6157.5" y1="851" y2="2980" gradientUnits="userSpaceOnUse" spreadMethod="reflect"><stop offset="0" stop-color="#6083CB"/><stop offset=".5" stop-color="#3E70CA"/><stop offset="1" stop-color="#2E61BA"/></linearGradient><clipPath id="clip12"><rect width="5406" height="2492" x="1680" y="491"/></clipPath><linearGradient id="fill13" x1="2028.5" x2="2028.5" y1="2931" y2="2980" gradientUnits="userSpaceOnUse" spreadMethod="reflect"><stop offset="0" stop-color="#F18C55"/><stop offset=".5" stop-color="#F67B28"/><stop offset="1" stop-color="#E56B17"/></linearGradient><clipPath id="clip14"><rect width="5406" height="2492" x="1680" y="491"/></clipPath><linearGradient id="fill15" x1="3108.5" x2="3108.5" y1="2923" y2="2980" gradientUnits="userSpaceOnUse" spreadMethod="reflect"><stop offset="0" stop-color="#F18C55"/><stop offset=".5" stop-color="#F67B28"/><stop offset="1" stop-color="#E56B17"/></linearGradient><clipPath id="clip16"><rect width="5406" height="2492" x="1680" y="491"/></clipPath><linearGradient id="fill17" x1="4189.5" x2="4189.5" y1="2858" y2="2980" gradientUnits="userSpaceOnUse" spreadMethod="reflect"><stop offset="0" stop-color="#F18C55"/><stop offset=".5" stop-color="#F67B28"/><stop offset="1" stop-color="#E56B17"/></linearGradient><clipPath id="clip18"><rect width="5406" height="2492" x="1680" y="491"/></clipPath><linearGradient id="fill19" x1="5269.5" x2="5269.5" y1="2625" y2="2980" gradientUnits="userSpaceOnUse" spreadMethod="reflect"><stop offset="0" stop-color="#F18C55"/><stop offset=".5" stop-color="#F67B28"/><stop offset="1" stop-color="#E56B17"/></linearGradient><clipPath id="clip20"><rect width="5406" height="2492" x="1680" y="491"/></clipPath><linearGradient id="fill21" x1="6350.5" x2="6350.5" y1="2479" y2="2980" gradientUnits="userSpaceOnUse" spreadMethod="reflect"><stop offset="0" stop-color="#F18C55"/><stop offset=".5" stop-color="#F67B28"/><stop offset="1" stop-color="#E56B17"/></linearGradient><clipPath id="clip22"><rect width="5406" height="2492" x="1680" y="491"/></clipPath><linearGradient id="fill23" x1="2220.5" x2="2220.5" y1="2948" y2="2980" gradientUnits="userSpaceOnUse" spreadMethod="reflect"><stop offset="0" stop-color="#AFAFAF"/><stop offset=".5" stop-color="#A5A5A5"/><stop offset="1" stop-color="#929292"/></linearGradient><clipPath id="clip24"><rect width="5406" height="2492" x="1680" y="491"/></clipPath><linearGradient id="fill25" x1="3301.5" x2="3301.5" y1="2942" y2="2980" gradientUnits="userSpaceOnUse" spreadMethod="reflect"><stop offset="0" stop-color="#AFAFAF"/><stop offset=".5" stop-color="#A5A5A5"/><stop offset="1" stop-color="#929292"/></linearGradient><clipPath id="clip26"><rect width="5406" height="2492" x="1680" y="491"/></clipPath><linearGradient id="fill27" x1="4381.5" x2="4381.5" y1="2889" y2="2980" gradientUnits="userSpaceOnUse" spreadMethod="reflect"><stop offset="0" stop-color="#AFAFAF"/><stop offset=".5" stop-color="#A5A5A5"/><stop offset="1" stop-color="#929292"/></linearGradient><clipPath id="clip28"><rect width="5406" height="2492" x="1680" y="491"/></clipPath><linearGradient id="fill29" x1="5462.5" x2="5462.5" y1="2817" y2="2980" gradientUnits="userSpaceOnUse" spreadMethod="reflect"><stop offset="0" stop-color="#AFAFAF"/><stop offset=".5" stop-color="#A5A5A5"/><stop offset="1" stop-color="#929292"/></linearGradient><clipPath id="clip30"><rect width="5406" height="2492" x="1680" y="491"/></clipPath><linearGradient id="fill31" x1="6542.5" x2="6542.5" y1="2775" y2="2980" gradientUnits="userSpaceOnUse" spreadMethod="reflect"><stop offset="0" stop-color="#AFAFAF"/><stop offset=".5" stop-color="#A5A5A5"/><stop offset="1" stop-color="#929292"/></linearGradient><clipPath id="clip32"><rect width="5406" height="2492" x="1680" y="491"/></clipPath><linearGradient id="fill33" x1="2413.5" x2="2413.5" y1="2954" y2="2980" gradientUnits="userSpaceOnUse" spreadMethod="reflect"><stop offset="0" stop-color="#FFC746"/><stop offset=".5" stop-color="#FFC600"/><stop offset="1" stop-color="#E5B600"/></linearGradient><clipPath id="clip34"><rect width="5406" height="2492" x="1680" y="491"/></clipPath><linearGradient id="fill35" x1="3493.5" x2="3493.5" y1="2949" y2="2980" gradientUnits="userSpaceOnUse" spreadMethod="reflect"><stop offset="0" stop-color="#FFC746"/><stop offset=".5" stop-color="#FFC600"/><stop offset="1" stop-color="#E5B600"/></linearGradient><clipPath id="clip36"><rect width="5406" height="2492" x="1680" y="491"/></clipPath><linearGradient id="fill37" x1="4574.5" x2="4574.5" y1="2927" y2="2980" gradientUnits="userSpaceOnUse" spreadMethod="reflect"><stop offset="0" stop-color="#FFC746"/><stop offset=".5" stop-color="#FFC600"/><stop offset="1" stop-color="#E5B600"/></linearGradient><clipPath id="clip38"><rect width="5406" height="2492" x="1680" y="491"/></clipPath><linearGradient id="fill39" x1="5654.5" x2="5654.5" y1="2886" y2="2980" gradientUnits="userSpaceOnUse" spreadMethod="reflect"><stop offset="0" stop-color="#FFC746"/><stop offset=".5" stop-color="#FFC600"/><stop offset="1" stop-color="#E5B600"/></linearGradient><clipPath id="clip40"><rect width="5406" height="2492" x="1680" y="491"/></clipPath><linearGradient id="fill41" x1="6735.5" x2="6735.5" y1="2872" y2="2980" gradientUnits="userSpaceOnUse" spreadMethod="reflect"><stop offset="0" stop-color="#FFC746"/><stop offset=".5" stop-color="#FFC600"/><stop offset="1" stop-color="#E5B600"/></linearGradient><clipPath id="clip42"><rect width="5406" height="2492" x="1680" y="491"/></clipPath><linearGradient id="fill43" x1="2605.5" x2="2605.5" y1="2946" y2="2980" gradientUnits="userSpaceOnUse" spreadMethod="reflect"><stop offset="0" stop-color="#71A6DB"/><stop offset=".5" stop-color="#559BDB"/><stop offset="1" stop-color="#438AC9"/></linearGradient><clipPath id="clip44"><rect width="5406" height="2492" x="1680" y="491"/></clipPath><linearGradient id="fill45" x1="3686.5" x2="3686.5" y1="2947" y2="2980" gradientUnits="userSpaceOnUse" spreadMethod="reflect"><stop offset="0" stop-color="#71A6DB"/><stop offset=".5" stop-color="#559BDB"/><stop offset="1" stop-color="#438AC9"/></linearGradient><clipPath id="clip46"><rect width="5406" height="2492" x="1680" y="491"/></clipPath><linearGradient id="fill47" x1="4766.5" x2="4766.5" y1="2909" y2="2980" gradientUnits="userSpaceOnUse" spreadMethod="reflect"><stop offset="0" stop-color="#71A6DB"/><stop offset=".5" stop-color="#559BDB"/><stop offset="1" stop-color="#438AC9"/></linearGradient><clipPath id="clip48"><rect width="5406" height="2492" x="1680" y="491"/></clipPath><linearGradient id="fill49" x1="5847.5" x2="5847.5" y1="2863" y2="2980" gradientUnits="userSpaceOnUse" spreadMethod="reflect"><stop offset="0" stop-color="#71A6DB"/><stop offset=".5" stop-color="#559BDB"/><stop offset="1" stop-color="#438AC9"/></linearGradient><clipPath id="clip50"><rect width="5406" height="2492" x="1680" y="491"/></clipPath><linearGradient id="fill51" x1="6927.5" x2="6927.5" y1="2852" y2="2980" gradientUnits="userSpaceOnUse" spreadMethod="reflect"><stop offset="0" stop-color="#71A6DB"/><stop offset=".5" stop-color="#559BDB"/><stop offset="1" stop-color="#438AC9"/></linearGradient><clipPath id="clip52"><rect width="5696" height="3153" x="1437" y="130"/></clipPath><clipPath id="clip53"><rect width="5696" height="3153" x="1437" y="130"/></clipPath><clipPath id="clip54"><rect width="5696" height="3153" x="1437" y="130"/></clipPath><clipPath id="clip55"><rect width="5696" height="3153" x="1437" y="130"/></clipPath><clipPath id="clip56"><rect width="5696" height="3153" x="1437" y="130"/></clipPath><clipPath id="clip57"><rect width="5696" height="3153" x="1437" y="130"/></clipPath><clipPath id="clip58"><rect width="5696" height="3153" x="1437" y="130"/></clipPath><clipPath id="clip59"><rect width="5696" height="3153" x="1437" y="130"/></clipPath><clipPath id="clip60"><rect width="5696" height="3153" x="1437" y="130"/></clipPath><clipPath id="clip61"><rect width="5696" height="3153" x="1437" y="130"/></clipPath><clipPath id="clip62"><rect width="5696" height="3153" x="1437" y="130"/></clipPath><clipPath id="clip63"><rect width="5696" height="3153" x="1437" y="130"/></clipPath><clipPath id="clip64"><rect width="5696" height="3153" x="1437" y="130"/></clipPath><clipPath id="clip65"><rect width="5696" height="3153" x="1437" y="130"/></clipPath><clipPath id="clip66"><rect width="5696" height="3153" x="1437" y="130"/></clipPath><clipPath id="clip67"><rect width="5696" height="3153" x="1437" y="130"/></clipPath><clipPath id="clip68"><rect width="5696" height="3153" x="1437" y="130"/></clipPath><clipPath id="clip69"><rect width="5696" height="3153" x="1437" y="130"/></clipPath><clipPath id="clip70"><rect width="5696" height="3153" x="1437" y="130"/></clipPath><clipPath id="clip71"><rect width="5696" height="3153" x="1437" y="130"/></clipPath><clipPath id="clip72"><rect width="5696" height="3153" x="1437" y="130"/></clipPath><clipPath id="clip73"><rect width="5696" height="3153" x="1437" y="130"/></clipPath><clipPath id="clip74"><rect width="5696" height="3153" x="1437" y="130"/></clipPath><clipPath id="clip75"><rect width="5696" height="3153" x="1437" y="130"/></clipPath><clipPath id="clip76"><rect width="5696" height="3153" x="1437" y="130"/></clipPath><clipPath id="clip77"><rect width="5696" height="3153" x="1437" y="130"/></clipPath><clipPath id="clip78"><rect width="5696" height="3153" x="1437" y="130"/></clipPath><clipPath id="clip79"><rect width="5696" height="3153" x="1437" y="130"/></clipPath><clipPath id="clip80"><rect width="5696" height="3153" x="1437" y="130"/></clipPath><clipPath id="clip81"><rect width="5696" height="3153" x="1437" y="130"/></clipPath><clipPath id="clip82"><rect width="5696" height="3153" x="1437" y="130"/></clipPath><clipPath id="clip83"><rect width="5696" height="3153" x="1437" y="130"/></clipPath><clipPath id="clip84"><rect width="5696" height="3153" x="1437" y="130"/></clipPath><clipPath id="clip85"><rect width="5696" height="3153" x="1437" y="130"/></clipPath><clipPath id="clip86"><rect width="5696" height="3153" x="1437" y="130"/></clipPath><clipPath id="clip87"><rect width="5696" height="3153" x="1437" y="130"/></clipPath><clipPath id="clip88"><rect width="5696" height="3153" x="1437" y="130"/></clipPath><clipPath id="clip89"><rect width="5696" height="3153" x="1437" y="130"/></clipPath><clipPath id="clip90"><rect width="5696" height="3153" x="1437" y="130"/></clipPath><clipPath id="clip91"><rect width="5696" height="3153" x="1437" y="130"/></clipPath><clipPath id="clip92"><rect width="5696" height="3153" x="1437" y="130"/></clipPath><clipPath id="clip93"><rect width="5696" height="3153" x="1437" y="130"/></clipPath><clipPath id="clip94"><rect width="5696" height="3153" x="1437" y="130"/></clipPath><clipPath id="clip95"><rect width="5696" height="3153" x="1437" y="130"/></clipPath><clipPath id="clip96"><rect width="5696" height="3153" x="1437" y="130"/></clipPath><clipPath id="clip97"><rect width="5696" height="3153" x="1437" y="130"/></clipPath><clipPath id="clip98"><rect width="5696" height="3153" x="1437" y="130"/></clipPath><clipPath id="clip99"><rect width="5696" height="3153" x="1437" y="130"/></clipPath><clipPath id="clip100"><rect width="5696" height="3153" x="1437" y="130"/></clipPath><linearGradient id="fill101" x1="4088.5" x2="4088.5" y1="3206" y2="3228" gradientUnits="userSpaceOnUse" spreadMethod="reflect"><stop offset="0" stop-color="#6083CB"/><stop offset=".5" stop-color="#3E70CA"/><stop offset="1" stop-color="#2E61BA"/></linearGradient><clipPath id="clip102"><rect width="5696" height="3153" x="1437" y="130"/></clipPath><clipPath id="clip103"><rect width="5696" height="3153" x="1437" y="130"/></clipPath><linearGradient id="fill104" x1="4167.5" x2="4167.5" y1="3206" y2="3228" gradientUnits="userSpaceOnUse" spreadMethod="reflect"><stop offset="0" stop-color="#F18C55"/><stop offset=".5" stop-color="#F67B28"/><stop offset="1" stop-color="#E56B17"/></linearGradient><clipPath id="clip105"><rect width="5696" height="3153" x="1437" y="130"/></clipPath><clipPath id="clip106"><rect width="5696" height="3153" x="1437" y="130"/></clipPath><linearGradient id="fill107" x1="4247" x2="4247" y1="3206" y2="3228" gradientUnits="userSpaceOnUse" spreadMethod="reflect"><stop offset="0" stop-color="#AFAFAF"/><stop offset=".5" stop-color="#A5A5A5"/><stop offset="1" stop-color="#929292"/></linearGradient><clipPath id="clip108"><rect width="5696" height="3153" x="1437" y="130"/></clipPath><clipPath id="clip109"><rect width="5696" height="3153" x="1437" y="130"/></clipPath><linearGradient id="fill110" x1="4347" x2="4347" y1="3206" y2="3228" gradientUnits="userSpaceOnUse" spreadMethod="reflect"><stop offset="0" stop-color="#FFC746"/><stop offset=".5" stop-color="#FFC600"/><stop offset="1" stop-color="#E5B600"/></linearGradient><clipPath id="clip111"><rect width="5696" height="3153" x="1437" y="130"/></clipPath><clipPath id="clip112"><rect width="5696" height="3153" x="1437" y="130"/></clipPath><linearGradient id="fill113" x1="4447.5" x2="4447.5" y1="3206" y2="3228" gradientUnits="userSpaceOnUse" spreadMethod="reflect"><stop offset="0" stop-color="#71A6DB"/><stop offset=".5" stop-color="#559BDB"/><stop offset="1" stop-color="#438AC9"/></linearGradient><clipPath id="clip114"><rect width="5696" height="3153" x="1437" y="130"/></clipPath></defs><g clip-path="url(#clip0)" transform="translate(-1436 -130)"><rect width="5696" height="3152" x="1437" y="131" fill="#FFF"/><g clip-path="url(#clip1)"><path fill="none" stroke="#E0E5EB" stroke-linejoin="round" stroke-miterlimit="10" stroke-width="3.438" d="M1680.5 2703.59 7082.5 2703.59M1680.5 2427.58 7082.5 2427.58M1680.5 2150.57 7082.5 2150.57M1680.5 1874.56 7082.5 1874.56M1680.5 1597.55 7082.5 1597.55M1680.5 1320.54 7082.5 1320.54M1680.5 1044.53 7082.5 1044.53M1680.5 767.525 7082.5 767.525M1680.5 491.5 7082.5 491.5"/></g><g clip-path="url(#clip2)"><rect width="155" height="155" x="1758" y="2825" fill="url(#fill3)"/></g><g clip-path="url(#clip4)"><rect width="155" height="168" x="2839" y="2812" fill="url(#fill5)"/></g><g clip-path="url(#clip6)"><rect width="155" height="374" x="3919" y="2606" fill="url(#fill7)"/></g><g clip-path="url(#clip8)"><rect width="155" height="1378" x="5000" y="1602" fill="url(#fill9)"/></g><g clip-path="url(#clip10)"><rect width="155" height="2129" x="6080" y="851" fill="url(#fill11)"/></g><g clip-path="url(#clip12)"><rect width="155" height="49" x="1951" y="2931" fill="url(#fill13)"/></g><g clip-path="url(#clip14)"><rect width="155" height="57" x="3031" y="2923" fill="url(#fill15)"/></g><g clip-path="url(#clip16)"><rect width="155" height="122" x="4112" y="2858" fill="url(#fill17)"/></g><g clip-path="url(#clip18)"><rect width="155" height="355" x="5192" y="2625" fill="url(#fill19)"/></g><g clip-path="url(#clip20)"><rect width="155" height="501" x="6273" y="2479" fill="url(#fill21)"/></g><g clip-path="url(#clip22)"><rect width="155" height="32" x="2143" y="2948" fill="url(#fill23)"/></g><g clip-path="url(#clip24)"><rect width="155" height="38" x="3224" y="2942" fill="url(#fill25)"/></g><g clip-path="url(#clip26)"><rect width="155" height="91" x="4304" y="2889" fill="url(#fill27)"/></g><g clip-path="url(#clip28)"><rect width="155" height="163" x="5385" y="2817" fill="url(#fill29)"/></g><g clip-path="url(#clip30)"><rect width="155" height="205" x="6465" y="2775" fill="url(#fill31)"/></g><g clip-path="url(#clip32)"><rect width="155" height="26" x="2336" y="2954" fill="url(#fill33)"/></g><g clip-path="url(#clip34)"><rect width="155" height="31" x="3416" y="2949" fill="url(#fill35)"/></g><g clip-path="url(#clip36)"><rect width="155" height="53" x="4497" y="2927" fill="url(#fill37)"/></g><g clip-path="url(#clip38)"><rect width="155" height="94" x="5577" y="2886" fill="url(#fill39)"/></g><g clip-path="url(#clip40)"><rect width="155" height="108" x="6658" y="2872" fill="url(#fill41)"/></g><g clip-path="url(#clip42)"><rect width="155" height="34" x="2528" y="2946" fill="url(#fill43)"/></g><g clip-path="url(#clip44)"><rect width="155" height="33" x="3609" y="2947" fill="url(#fill45)"/></g><g clip-path="url(#clip46)"><rect width="155" height="71" x="4689" y="2909" fill="url(#fill47)"/></g><g clip-path="url(#clip48)"><rect width="155" height="117" x="5770" y="2863" fill="url(#fill49)"/></g><g clip-path="url(#clip50)"><rect width="155" height="128" x="6850" y="2852" fill="url(#fill51)"/></g><g clip-path="url(#clip52)"><path fill="none" fill-rule="evenodd" stroke="#E0E5EB" stroke-linejoin="round" stroke-miterlimit="10" stroke-width="3.438" d="M1680.5 2980.5 7082.5 2980.5"/></g><g clip-path="url(#clip53)"><text fill="#44546A" font-family="Calibri,Calibri_MSFontService,sans-serif" font-size="41" font-weight="400" transform="matrix(1 0 0 1 1804.29 2793)">112</text></g><g clip-path="url(#clip54)"><text fill="#44546A" font-family="Calibri,Calibri_MSFontService,sans-serif" font-size="41" font-weight="400" transform="matrix(1 0 0 1 2884.8 2780)">122</text></g><g clip-path="url(#clip55)"><text fill="#44546A" font-family="Calibri,Calibri_MSFontService,sans-serif" font-size="41" font-weight="400" transform="matrix(1 0 0 1 3965.3 2574)">271</text></g><g clip-path="url(#clip56)"><text fill="#44546A" font-family="Calibri,Calibri_MSFontService,sans-serif" font-size="41" font-weight="400" transform="matrix(1 0 0 1 5045.81 1570)">997</text></g><g clip-path="url(#clip57)"><text fill="#44546A" font-family="Calibri,Calibri_MSFontService,sans-serif" font-size="41" font-weight="400" transform="matrix(1 0 0 1 6115.86 819)">1539</text></g><g clip-path="url(#clip58)"><text fill="#44546A" font-family="Calibri,Calibri_MSFontService,sans-serif" font-size="41" font-weight="400" transform="matrix(1 0 0 1 2007.24 2899)">36</text></g><g clip-path="url(#clip59)"><text fill="#44546A" font-family="Calibri,Calibri_MSFontService,sans-serif" font-size="41" font-weight="400" transform="matrix(1 0 0 1 3087.75 2891)">41</text></g><g clip-path="url(#clip60)"><text fill="#44546A" font-family="Calibri,Calibri_MSFontService,sans-serif" font-size="41" font-weight="400" transform="matrix(1 0 0 1 4168.26 2826)">89</text></g><g clip-path="url(#clip61)"><text fill="#44546A" font-family="Calibri,Calibri_MSFontService,sans-serif" font-size="41" font-weight="400" transform="matrix(1 0 0 1 5238.31 2594)">257</text></g><g clip-path="url(#clip62)"><text fill="#44546A" font-family="Calibri,Calibri_MSFontService,sans-serif" font-size="41" font-weight="400" transform="matrix(1 0 0 1 6318.82 2447)">363</text></g><g clip-path="url(#clip63)"><text fill="#44546A" font-family="Calibri,Calibri_MSFontService,sans-serif" font-size="41" font-weight="400" transform="matrix(1 0 0 1 2199.75 2916)">24</text></g><g clip-path="url(#clip64)"><text fill="#44546A" font-family="Calibri,Calibri_MSFontService,sans-serif" font-size="41" font-weight="400" transform="matrix(1 0 0 1 3280.25 2910)">28</text></g><g clip-path="url(#clip65)"><text fill="#44546A" font-family="Calibri,Calibri_MSFontService,sans-serif" font-size="41" font-weight="400" transform="matrix(1 0 0 1 4360.76 2857)">66</text></g><g clip-path="url(#clip66)"><text fill="#44546A" font-family="Calibri,Calibri_MSFontService,sans-serif" font-size="41" font-weight="400" transform="matrix(1 0 0 1 5430.82 2785)">119</text></g><g clip-path="url(#clip67)"><text fill="#44546A" font-family="Calibri,Calibri_MSFontService,sans-serif" font-size="41" font-weight="400" transform="matrix(1 0 0 1 6511.32 2743)">148</text></g><g clip-path="url(#clip68)"><text fill="#44546A" font-family="Calibri,Calibri_MSFontService,sans-serif" font-size="41" font-weight="400" transform="matrix(1 0 0 1 2392.25 2922)">19</text></g><g clip-path="url(#clip69)"><text fill="#44546A" font-family="Calibri,Calibri_MSFontService,sans-serif" font-size="41" font-weight="400" transform="matrix(1 0 0 1 3472.76 2918)">22</text></g><g clip-path="url(#clip70)"><text fill="#44546A" font-family="Calibri,Calibri_MSFontService,sans-serif" font-size="41" font-weight="400" transform="matrix(1 0 0 1 4553.26 2895)">39</text></g><g clip-path="url(#clip71)"><text fill="#44546A" font-family="Calibri,Calibri_MSFontService,sans-serif" font-size="41" font-weight="400" transform="matrix(1 0 0 1 5633.77 2854)">69</text></g><g clip-path="url(#clip72)"><text fill="#44546A" font-family="Calibri,Calibri_MSFontService,sans-serif" font-size="41" font-weight="400" transform="matrix(1 0 0 1 6714.27 2840)">79</text></g><g clip-path="url(#clip73)"><text fill="#44546A" font-family="Calibri,Calibri_MSFontService,sans-serif" font-size="41" font-weight="400" transform="matrix(1 0 0 1 2584.76 2914)">25</text></g><g clip-path="url(#clip74)"><text fill="#44546A" font-family="Calibri,Calibri_MSFontService,sans-serif" font-size="41" font-weight="400" transform="matrix(1 0 0 1 3665.26 2915)">24</text></g><g clip-path="url(#clip75)"><text fill="#44546A" font-family="Calibri,Calibri_MSFontService,sans-serif" font-size="41" font-weight="400" transform="matrix(1 0 0 1 4745.77 2877)">52</text></g><g clip-path="url(#clip76)"><text fill="#44546A" font-family="Calibri,Calibri_MSFontService,sans-serif" font-size="41" font-weight="400" transform="matrix(1 0 0 1 5826.27 2831)">85</text></g><g clip-path="url(#clip77)"><text fill="#44546A" font-family="Calibri,Calibri_MSFontService,sans-serif" font-size="41" font-weight="400" transform="matrix(1 0 0 1 6906.78 2820)">93</text></g><g clip-path="url(#clip78)"><text fill="#44546A" font-family="Calibri,Calibri_MSFontService,sans-serif" font-size="41" font-weight="400" transform="matrix(1 0 0 1 1621.23 2992)">0</text></g><g clip-path="url(#clip79)"><text fill="#44546A" font-family="Calibri,Calibri_MSFontService,sans-serif" font-size="41" font-weight="400" transform="matrix(1 0 0 1 1579.43 2715)">200</text></g><g clip-path="url(#clip80)"><text fill="#44546A" font-family="Calibri,Calibri_MSFontService,sans-serif" font-size="41" font-weight="400" transform="matrix(1 0 0 1 1579.43 2439)">400</text></g><g clip-path="url(#clip81)"><text fill="#44546A" font-family="Calibri,Calibri_MSFontService,sans-serif" font-size="41" font-weight="400" transform="matrix(1 0 0 1 1579.43 2162)">600</text></g><g clip-path="url(#clip82)"><text fill="#44546A" font-family="Calibri,Calibri_MSFontService,sans-serif" font-size="41" font-weight="400" transform="matrix(1 0 0 1 1579.43 1886)">800</text></g><g clip-path="url(#clip83)"><text fill="#44546A" font-family="Calibri,Calibri_MSFontService,sans-serif" font-size="41" font-weight="400" transform="matrix(1 0 0 1 1558.53 1609)">1000</text></g><g clip-path="url(#clip84)"><text fill="#44546A" font-family="Calibri,Calibri_MSFontService,sans-serif" font-size="41" font-weight="400" transform="matrix(1 0 0 1 1558.53 1332)">1200</text></g><g clip-path="url(#clip85)"><text fill="#44546A" font-family="Calibri,Calibri_MSFontService,sans-serif" font-size="41" font-weight="400" transform="matrix(1 0 0 1 1558.53 1056)">1400</text></g><g clip-path="url(#clip86)"><text fill="#44546A" font-family="Calibri,Calibri_MSFontService,sans-serif" font-size="41" font-weight="400" transform="matrix(1 0 0 1 1558.53 779)">1600</text></g><g clip-path="url(#clip87)"><text fill="#44546A" font-family="Calibri,Calibri_MSFontService,sans-serif" font-size="41" font-weight="400" transform="matrix(1 0 0 1 1558.53 503)">1800</text></g><g clip-path="url(#clip88)"><text fill="#44546A" font-family="Calibri,Calibri_MSFontService,sans-serif" font-size="41" font-weight="400" transform="matrix(1 0 0 1 2199.75 3046)">20</text></g><g clip-path="url(#clip89)"><text fill="#44546A" font-family="Calibri,Calibri_MSFontService,sans-serif" font-size="41" font-weight="400" transform="matrix(1 0 0 1 3280.25 3046)">32</text></g><g clip-path="url(#clip90)"><text fill="#44546A" font-family="Calibri,Calibri_MSFontService,sans-serif" font-size="41" font-weight="400" transform="matrix(1 0 0 1 4350.31 3046)">128</text></g><g clip-path="url(#clip91)"><text fill="#44546A" font-family="Calibri,Calibri_MSFontService,sans-serif" font-size="41" font-weight="400" transform="matrix(1 0 0 1 5430.82 3046)">384</text></g><g clip-path="url(#clip92)"><text fill="#44546A" font-family="Calibri,Calibri_MSFontService,sans-serif" font-size="41" font-weight="400" transform="matrix(1 0 0 1 6511.32 3046)">512</text></g><g clip-path="url(#clip93)"><text fill="#44546A" font-family="Calibri,Calibri_MSFontService,sans-serif" font-size="41" font-weight="700" transform="matrix(6.12323e-17 -1 1 6.12323e-17 1533.43 1844)">Latency (ms)</text></g><g clip-path="url(#clip94)"><text fill="#44546A" font-family="Calibri,Calibri_MSFontService,sans-serif" font-size="41" font-weight="700" transform="matrix(1 0 0 1 4240.77 3110)">Sequence Length</text></g><g clip-path="url(#clip95)"><text fill="#44546A" font-family="Calibri,Calibri_MSFontService,sans-serif" font-size="73" font-weight="700" transform="matrix(1 0 0 1 3055.68 235)">Intel Ice lake Xeon 8380</text></g><g clip-path="url(#clip96)"><text fill="#44546A" font-family="Calibri,Calibri_MSFontService,sans-serif" font-size="73" font-weight="700" transform="matrix(1 0 0 1 3791.03 235)">-</text></g><g clip-path="url(#clip97)"><text fill="#44546A" font-family="Calibri,Calibri_MSFontService,sans-serif" font-size="73" font-weight="700" transform="matrix(1 0 0 1 3830.06 235)">TensorFlow (Graph Mode) + oneDNN enabled (&gt;= 2.5.0)</text></g><g clip-path="url(#clip98)"><text fill="#44546A" font-family="Calibri,Calibri_MSFontService,sans-serif" font-size="73" font-weight="700" transform="matrix(1 0 0 1 3011.68 324)">Latency Benchmark with varying number of CPU cores involved in the computations</text></g><g clip-path="url(#clip99)"><text fill="#44546A" font-family="Calibri,Calibri_MSFontService,sans-serif" font-size="73" font-weight="700" transform="matrix(1 0 0 1 3192.77 414)">(some data might be missing indicating benchmark crashed during runs)</text></g><g clip-path="url(#clip100)"><rect width="23" height="22" x="4077" y="3206" fill="url(#fill101)"/></g><g clip-path="url(#clip102)"><text fill="#44546A" font-family="Calibri,Calibri_MSFontService,sans-serif" font-size="41" font-weight="400" transform="matrix(1 0 0 1 4109.14 3229)">1</text></g><g clip-path="url(#clip103)"><rect width="23" height="22" x="4156" y="3206" fill="url(#fill104)"/></g><g clip-path="url(#clip105)"><text fill="#44546A" font-family="Calibri,Calibri_MSFontService,sans-serif" font-size="41" font-weight="400" transform="matrix(1 0 0 1 4188.48 3229)">4</text></g><g clip-path="url(#clip106)"><rect width="22" height="22" x="4236" y="3206" fill="url(#fill107)"/></g><g clip-path="url(#clip108)"><text fill="#44546A" font-family="Calibri,Calibri_MSFontService,sans-serif" font-size="41" font-weight="400" transform="matrix(1 0 0 1 4267.81 3229)">16</text></g><g clip-path="url(#clip109)"><rect width="22" height="22" x="4336" y="3206" fill="url(#fill110)"/></g><g clip-path="url(#clip111)"><text fill="#44546A" font-family="Calibri,Calibri_MSFontService,sans-serif" font-size="41" font-weight="400" transform="matrix(1 0 0 1 4368.05 3229)">40</text></g><g clip-path="url(#clip112)"><rect width="23" height="22" x="4436" y="3206" fill="url(#fill113)"/></g><g clip-path="url(#clip114)"><text fill="#44546A" font-family="Calibri,Calibri_MSFontService,sans-serif" font-size="41" font-weight="400" transform="matrix(1 0 0 1 4468.29 3229)">80</text></g><rect width="5696" height="3152" x="1437.5" y="131.5" fill="none" stroke="#E0E5EB" stroke-linejoin="round" stroke-miterlimit="10" stroke-width="3.438"/></g></svg>