<svg xmlns="http://www.w3.org/2000/svg" xmlns:xlink="http://www.w3.org/1999/xlink" width="266pt" height="142pt" class="mx-auto" viewBox="0 0 265.72 142"><g id="graph0" class="graph" transform="scale(1 1) rotate(0) translate(4 138)"><title>G</title><polygon fill="#fff" stroke="transparent" points="-4 4 -4 -138 261.722 -138 261.722 4 -4 4"/><g id="node1" class="node"><title>0x7ff906fb60b0</title><polygon fill="#fff" stroke="#000" points="169.026 -59.1 169.026 -133.5 257.722 -133.5 257.722 -59.1 169.026 -59.1"/><text x="213.374" y="-116.9" fill="#000" font-family="Times,serif" font-size="14" text-anchor="middle">node_0 (f32)</text><polyline fill="none" stroke="#000" points="169.026 -108.7 257.722 -108.7"/><text x="213.374" y="-92.1" fill="#000" font-family="Times,serif" font-size="14" text-anchor="middle">0 [4, 3]</text><polyline fill="none" stroke="#000" points="169.026 -83.9 257.722 -83.9"/><text x="213.374" y="-67.3" fill="#000" font-family="Times,serif" font-size="14" text-anchor="middle">X*Y</text></g><g id="node2" class="node"><title>0x563f17827fe0</title><polygon fill="pink" stroke="#000" points="0 -69.5 0 -119.1 106.206 -119.1 106.206 -69.5 0 -69.5"/><text x="53.103" y="-102.5" fill="#000" font-family="Times,serif" font-size="14" text-anchor="middle">leaf_0 (f32)</text><polyline fill="none" stroke="#000" points="0 -94.3 106.206 -94.3"/><text x="53.103" y="-77.7" fill="#000" font-family="Times,serif" font-size="14" text-anchor="middle">CONST 0 [2, 4]</text></g><g id="edge1" class="edge"><title>0x563f17827fe0:x-&gt;0x7ff906fb60b0:x</title><path fill="none" stroke="#000" d="M106.1031,-106.3C134.4734,-106.3 137.0176,-79.0225 159.3349,-72.6293"/><polygon fill="#000" stroke="#000" points="169.374 -71.3 160.052 -77.074 164.417 -71.956 159.461 -72.613 159.461 -72.613 159.461 -72.613 164.417 -71.956 158.87 -68.152 169.374 -71.3 169.374 -71.3"/><text x="137.616" y="-104.5" fill="#000" font-family="Times,serif" font-size="14" text-anchor="middle">src 0</text></g><g id="node3" class="node"><title>0x563f17828150</title><polygon fill="pink" stroke="#000" points="0 -.5 0 -50.1 106.206 -50.1 106.206 -.5 0 -.5"/><text x="53.103" y="-33.5" fill="#000" font-family="Times,serif" font-size="14" text-anchor="middle">leaf_1 (f32)</text><polyline fill="none" stroke="#000" points="0 -25.3 106.206 -25.3"/><text x="53.103" y="-8.7" fill="#000" font-family="Times,serif" font-size="14" text-anchor="middle">CONST 1 [2, 3]</text></g><g id="edge2" class="edge"><title>0x563f17828150:x-&gt;0x7ff906fb60b0:x</title><path fill="none" stroke="#000" d="M106.1031,-37.3C127.6452,-37.3 132.6375,-44.2784 151.026,-55.5 156.1932,-58.6533 157.9478,-63.2584 160.4093,-66.6842"/><polygon fill="#000" stroke="#000" points="169.374 -71.3 158.423 -70.723 164.929 -69.011 160.483 -66.722 160.483 -66.722 160.483 -66.722 164.929 -69.011 162.543 -62.721 169.374 -71.3 169.374 -71.3"/><text x="137.616" y="-59.5" fill="#000" font-family="Times,serif" font-size="14" text-anchor="middle">src 1</text></g></g></svg>