<svg xmlns="http://www.w3.org/2000/svg" xmlns:xlink="http://www.w3.org/1999/xlink" width="5651" height="3205" overflow="hidden"><defs><clipPath id="clip0"><rect width="5651" height="3205" x="1267" y="174"/></clipPath><clipPath id="clip1"><rect width="5648" height="3202" x="1268" y="175"/></clipPath><clipPath id="clip2"><rect width="5358" height="2415" x="1511" y="640"/></clipPath><linearGradient id="fill3" x1="1591.5" x2="1591.5" y1="2838" y2="3053" gradientUnits="userSpaceOnUse" spreadMethod="reflect"><stop offset="0" stop-color="#6083CB"/><stop offset=".5" stop-color="#3E70CA"/><stop offset="1" stop-color="#2E61BA"/></linearGradient><clipPath id="clip4"><rect width="5358" height="2415" x="1511" y="640"/></clipPath><linearGradient id="fill5" x1="1948" x2="1948" y1="3000" y2="3053" gradientUnits="userSpaceOnUse" spreadMethod="reflect"><stop offset="0" stop-color="#6083CB"/><stop offset=".5" stop-color="#3E70CA"/><stop offset="1" stop-color="#2E61BA"/></linearGradient><clipPath id="clip6"><rect width="5358" height="2415" x="1511" y="640"/></clipPath><linearGradient id="fill7" x1="2305" x2="2305" y1="3029" y2="3053" gradientUnits="userSpaceOnUse" spreadMethod="reflect"><stop offset="0" stop-color="#6083CB"/><stop offset=".5" stop-color="#3E70CA"/><stop offset="1" stop-color="#2E61BA"/></linearGradient><clipPath id="clip8"><rect width="5358" height="2415" x="1511" y="640"/></clipPath><linearGradient id="fill9" x1="2662" x2="2662" y1="3039" y2="3053" gradientUnits="userSpaceOnUse" spreadMethod="reflect"><stop offset="0" stop-color="#6083CB"/><stop offset=".5" stop-color="#3E70CA"/><stop offset="1" stop-color="#2E61BA"/></linearGradient><clipPath id="clip10"><rect width="5358" height="2415" x="1511" y="640"/></clipPath><linearGradient id="fill11" x1="3019" x2="3019" y1="3033" y2="3053" gradientUnits="userSpaceOnUse" spreadMethod="reflect"><stop offset="0" stop-color="#6083CB"/><stop offset=".5" stop-color="#3E70CA"/><stop offset="1" stop-color="#2E61BA"/></linearGradient><clipPath id="clip12"><rect width="5358" height="2415" x="1511" y="640"/></clipPath><linearGradient id="fill13" x1="3376" x2="3376" y1="2628" y2="3053" gradientUnits="userSpaceOnUse" spreadMethod="reflect"><stop offset="0" stop-color="#6083CB"/><stop offset=".5" stop-color="#3E70CA"/><stop offset="1" stop-color="#2E61BA"/></linearGradient><clipPath id="clip14"><rect width="5358" height="2415" x="1511" y="640"/></clipPath><linearGradient id="fill15" x1="3733" x2="3733" y1="2943" y2="3053" gradientUnits="userSpaceOnUse" spreadMethod="reflect"><stop offset="0" stop-color="#6083CB"/><stop offset=".5" stop-color="#3E70CA"/><stop offset="1" stop-color="#2E61BA"/></linearGradient><clipPath id="clip16"><rect width="5358" height="2415" x="1511" y="640"/></clipPath><linearGradient id="fill17" x1="4090" x2="4090" y1="3009" y2="3053" gradientUnits="userSpaceOnUse" spreadMethod="reflect"><stop offset="0" stop-color="#6083CB"/><stop offset=".5" stop-color="#3E70CA"/><stop offset="1" stop-color="#2E61BA"/></linearGradient><clipPath id="clip18"><rect width="5358" height="2415" x="1511" y="640"/></clipPath><linearGradient id="fill19" x1="4447" x2="4447" y1="3029" y2="3053" gradientUnits="userSpaceOnUse" spreadMethod="reflect"><stop offset="0" stop-color="#6083CB"/><stop offset=".5" stop-color="#3E70CA"/><stop offset="1" stop-color="#2E61BA"/></linearGradient><clipPath id="clip20"><rect width="5358" height="2415" x="1511" y="640"/></clipPath><linearGradient id="fill21" x1="4804" x2="4804" y1="3019" y2="3053" gradientUnits="userSpaceOnUse" spreadMethod="reflect"><stop offset="0" stop-color="#6083CB"/><stop offset=".5" stop-color="#3E70CA"/><stop offset="1" stop-color="#2E61BA"/></linearGradient><clipPath id="clip22"><rect width="5358" height="2415" x="1511" y="640"/></clipPath><linearGradient id="fill23" x1="5518" x2="5518" y1="2471" y2="3053" gradientUnits="userSpaceOnUse" spreadMethod="reflect"><stop offset="0" stop-color="#6083CB"/><stop offset=".5" stop-color="#3E70CA"/><stop offset="1" stop-color="#2E61BA"/></linearGradient><clipPath id="clip24"><rect width="5358" height="2415" x="1511" y="640"/></clipPath><linearGradient id="fill25" x1="5875" x2="5875" y1="2845" y2="3053" gradientUnits="userSpaceOnUse" spreadMethod="reflect"><stop offset="0" stop-color="#6083CB"/><stop offset=".5" stop-color="#3E70CA"/><stop offset="1" stop-color="#2E61BA"/></linearGradient><clipPath id="clip26"><rect width="5358" height="2415" x="1511" y="640"/></clipPath><linearGradient id="fill27" x1="6231.5" x2="6231.5" y1="2981" y2="3053" gradientUnits="userSpaceOnUse" spreadMethod="reflect"><stop offset="0" stop-color="#6083CB"/><stop offset=".5" stop-color="#3E70CA"/><stop offset="1" stop-color="#2E61BA"/></linearGradient><clipPath id="clip28"><rect width="5358" height="2415" x="1511" y="640"/></clipPath><linearGradient id="fill29" x1="6588.5" x2="6588.5" y1="2939" y2="3053" gradientUnits="userSpaceOnUse" spreadMethod="reflect"><stop offset="0" stop-color="#6083CB"/><stop offset=".5" stop-color="#3E70CA"/><stop offset="1" stop-color="#2E61BA"/></linearGradient><clipPath id="clip30"><rect width="5358" height="2415" x="1511" y="640"/></clipPath><linearGradient id="fill31" x1="1690" x2="1690" y1="2840" y2="3053" gradientUnits="userSpaceOnUse" spreadMethod="reflect"><stop offset="0" stop-color="#F18C55"/><stop offset=".5" stop-color="#F67B28"/><stop offset="1" stop-color="#E56B17"/></linearGradient><clipPath id="clip32"><rect width="5358" height="2415" x="1511" y="640"/></clipPath><linearGradient id="fill33" x1="2047" x2="2047" y1="3000" y2="3053" gradientUnits="userSpaceOnUse" spreadMethod="reflect"><stop offset="0" stop-color="#F18C55"/><stop offset=".5" stop-color="#F67B28"/><stop offset="1" stop-color="#E56B17"/></linearGradient><clipPath id="clip34"><rect width="5358" height="2415" x="1511" y="640"/></clipPath><linearGradient id="fill35" x1="2404" x2="2404" y1="3029" y2="3053" gradientUnits="userSpaceOnUse" spreadMethod="reflect"><stop offset="0" stop-color="#F18C55"/><stop offset=".5" stop-color="#F67B28"/><stop offset="1" stop-color="#E56B17"/></linearGradient><clipPath id="clip36"><rect width="5358" height="2415" x="1511" y="640"/></clipPath><linearGradient id="fill37" x1="2761" x2="2761" y1="3039" y2="3053" gradientUnits="userSpaceOnUse" spreadMethod="reflect"><stop offset="0" stop-color="#F18C55"/><stop offset=".5" stop-color="#F67B28"/><stop offset="1" stop-color="#E56B17"/></linearGradient><clipPath id="clip38"><rect width="5358" height="2415" x="1511" y="640"/></clipPath><linearGradient id="fill39" x1="3118" x2="3118" y1="3034" y2="3053" gradientUnits="userSpaceOnUse" spreadMethod="reflect"><stop offset="0" stop-color="#F18C55"/><stop offset=".5" stop-color="#F67B28"/><stop offset="1" stop-color="#E56B17"/></linearGradient><clipPath id="clip40"><rect width="5358" height="2415" x="1511" y="640"/></clipPath><linearGradient id="fill41" x1="3475" x2="3475" y1="2627" y2="3053" gradientUnits="userSpaceOnUse" spreadMethod="reflect"><stop offset="0" stop-color="#F18C55"/><stop offset=".5" stop-color="#F67B28"/><stop offset="1" stop-color="#E56B17"/></linearGradient><clipPath id="clip42"><rect width="5358" height="2415" x="1511" y="640"/></clipPath><linearGradient id="fill43" x1="3832" x2="3832" y1="2944" y2="3053" gradientUnits="userSpaceOnUse" spreadMethod="reflect"><stop offset="0" stop-color="#F18C55"/><stop offset=".5" stop-color="#F67B28"/><stop offset="1" stop-color="#E56B17"/></linearGradient><clipPath id="clip44"><rect width="5358" height="2415" x="1511" y="640"/></clipPath><linearGradient id="fill45" x1="4189" x2="4189" y1="3009" y2="3053" gradientUnits="userSpaceOnUse" spreadMethod="reflect"><stop offset="0" stop-color="#F18C55"/><stop offset=".5" stop-color="#F67B28"/><stop offset="1" stop-color="#E56B17"/></linearGradient><clipPath id="clip46"><rect width="5358" height="2415" x="1511" y="640"/></clipPath><linearGradient id="fill47" x1="4546" x2="4546" y1="3029" y2="3053" gradientUnits="userSpaceOnUse" spreadMethod="reflect"><stop offset="0" stop-color="#F18C55"/><stop offset=".5" stop-color="#F67B28"/><stop offset="1" stop-color="#E56B17"/></linearGradient><clipPath id="clip48"><rect width="5358" height="2415" x="1511" y="640"/></clipPath><linearGradient id="fill49" x1="4902.5" x2="4902.5" y1="3020" y2="3053" gradientUnits="userSpaceOnUse" spreadMethod="reflect"><stop offset="0" stop-color="#F18C55"/><stop offset=".5" stop-color="#F67B28"/><stop offset="1" stop-color="#E56B17"/></linearGradient><clipPath id="clip50"><rect width="5358" height="2415" x="1511" y="640"/></clipPath><linearGradient id="fill51" x1="5259.5" x2="5259.5" y1="850" y2="3053" gradientUnits="userSpaceOnUse" spreadMethod="reflect"><stop offset="0" stop-color="#F18C55"/><stop offset=".5" stop-color="#F67B28"/><stop offset="1" stop-color="#E56B17"/></linearGradient><clipPath id="clip52"><rect width="5358" height="2415" x="1511" y="640"/></clipPath><linearGradient id="fill53" x1="5616.5" x2="5616.5" y1="2573" y2="3053" gradientUnits="userSpaceOnUse" spreadMethod="reflect"><stop offset="0" stop-color="#F18C55"/><stop offset=".5" stop-color="#F67B28"/><stop offset="1" stop-color="#E56B17"/></linearGradient><clipPath id="clip54"><rect width="5358" height="2415" x="1511" y="640"/></clipPath><linearGradient id="fill55" x1="5973.5" x2="5973.5" y1="2900" y2="3053" gradientUnits="userSpaceOnUse" spreadMethod="reflect"><stop offset="0" stop-color="#F18C55"/><stop offset=".5" stop-color="#F67B28"/><stop offset="1" stop-color="#E56B17"/></linearGradient><clipPath id="clip56"><rect width="5358" height="2415" x="1511" y="640"/></clipPath><linearGradient id="fill57" x1="6330.5" x2="6330.5" y1="2985" y2="3053" gradientUnits="userSpaceOnUse" spreadMethod="reflect"><stop offset="0" stop-color="#F18C55"/><stop offset=".5" stop-color="#F67B28"/><stop offset="1" stop-color="#E56B17"/></linearGradient><clipPath id="clip58"><rect width="5358" height="2415" x="1511" y="640"/></clipPath><linearGradient id="fill59" x1="6687.5" x2="6687.5" y1="2989" y2="3053" gradientUnits="userSpaceOnUse" spreadMethod="reflect"><stop offset="0" stop-color="#F18C55"/><stop offset=".5" stop-color="#F67B28"/><stop offset="1" stop-color="#E56B17"/></linearGradient><clipPath id="clip60"><rect width="5358" height="2415" x="1511" y="640"/></clipPath><linearGradient id="fill61" x1="1789" x2="1789" y1="2841" y2="3053" gradientUnits="userSpaceOnUse" spreadMethod="reflect"><stop offset="0" stop-color="#AFAFAF"/><stop offset=".5" stop-color="#A5A5A5"/><stop offset="1" stop-color="#929292"/></linearGradient><clipPath id="clip62"><rect width="5358" height="2415" x="1511" y="640"/></clipPath><linearGradient id="fill63" x1="2146" x2="2146" y1="3001" y2="3053" gradientUnits="userSpaceOnUse" spreadMethod="reflect"><stop offset="0" stop-color="#AFAFAF"/><stop offset=".5" stop-color="#A5A5A5"/><stop offset="1" stop-color="#929292"/></linearGradient><clipPath id="clip64"><rect width="5358" height="2415" x="1511" y="640"/></clipPath><linearGradient id="fill65" x1="2503" x2="2503" y1="3029" y2="3053" gradientUnits="userSpaceOnUse" spreadMethod="reflect"><stop offset="0" stop-color="#AFAFAF"/><stop offset=".5" stop-color="#A5A5A5"/><stop offset="1" stop-color="#929292"/></linearGradient><clipPath id="clip66"><rect width="5358" height="2415" x="1511" y="640"/></clipPath><linearGradient id="fill67" x1="2860" x2="2860" y1="3039" y2="3053" gradientUnits="userSpaceOnUse" spreadMethod="reflect"><stop offset="0" stop-color="#AFAFAF"/><stop offset=".5" stop-color="#A5A5A5"/><stop offset="1" stop-color="#929292"/></linearGradient><clipPath id="clip68"><rect width="5358" height="2415" x="1511" y="640"/></clipPath><linearGradient id="fill69" x1="3217" x2="3217" y1="3034" y2="3053" gradientUnits="userSpaceOnUse" spreadMethod="reflect"><stop offset="0" stop-color="#AFAFAF"/><stop offset=".5" stop-color="#A5A5A5"/><stop offset="1" stop-color="#929292"/></linearGradient><clipPath id="clip70"><rect width="5358" height="2415" x="1511" y="640"/></clipPath><linearGradient id="fill71" x1="3574" x2="3574" y1="2630" y2="3053" gradientUnits="userSpaceOnUse" spreadMethod="reflect"><stop offset="0" stop-color="#AFAFAF"/><stop offset=".5" stop-color="#A5A5A5"/><stop offset="1" stop-color="#929292"/></linearGradient><clipPath id="clip72"><rect width="5358" height="2415" x="1511" y="640"/></clipPath><linearGradient id="fill73" x1="3930.5" x2="3930.5" y1="2945" y2="3053" gradientUnits="userSpaceOnUse" spreadMethod="reflect"><stop offset="0" stop-color="#AFAFAF"/><stop offset=".5" stop-color="#A5A5A5"/><stop offset="1" stop-color="#929292"/></linearGradient><clipPath id="clip74"><rect width="5358" height="2415" x="1511" y="640"/></clipPath><linearGradient id="fill75" x1="4287.5" x2="4287.5" y1="3009" y2="3053" gradientUnits="userSpaceOnUse" spreadMethod="reflect"><stop offset="0" stop-color="#AFAFAF"/><stop offset=".5" stop-color="#A5A5A5"/><stop offset="1" stop-color="#929292"/></linearGradient><clipPath id="clip76"><rect width="5358" height="2415" x="1511" y="640"/></clipPath><linearGradient id="fill77" x1="4644.5" x2="4644.5" y1="3030" y2="3053" gradientUnits="userSpaceOnUse" spreadMethod="reflect"><stop offset="0" stop-color="#AFAFAF"/><stop offset=".5" stop-color="#A5A5A5"/><stop offset="1" stop-color="#929292"/></linearGradient><clipPath id="clip78"><rect width="5358" height="2415" x="1511" y="640"/></clipPath><linearGradient id="fill79" x1="5001.5" x2="5001.5" y1="3020" y2="3053" gradientUnits="userSpaceOnUse" spreadMethod="reflect"><stop offset="0" stop-color="#AFAFAF"/><stop offset=".5" stop-color="#A5A5A5"/><stop offset="1" stop-color="#929292"/></linearGradient><clipPath id="clip80"><rect width="5358" height="2415" x="1511" y="640"/></clipPath><linearGradient id="fill81" x1="5358.5" x2="5358.5" y1="829" y2="3053" gradientUnits="userSpaceOnUse" spreadMethod="reflect"><stop offset="0" stop-color="#AFAFAF"/><stop offset=".5" stop-color="#A5A5A5"/><stop offset="1" stop-color="#929292"/></linearGradient><clipPath id="clip82"><rect width="5358" height="2415" x="1511" y="640"/></clipPath><linearGradient id="fill83" x1="5715" x2="5715" y1="2575" y2="3053" gradientUnits="userSpaceOnUse" spreadMethod="reflect"><stop offset="0" stop-color="#AFAFAF"/><stop offset=".5" stop-color="#A5A5A5"/><stop offset="1" stop-color="#929292"/></linearGradient><clipPath id="clip84"><rect width="5358" height="2415" x="1511" y="640"/></clipPath><linearGradient id="fill85" x1="6072" x2="6072" y1="2909" y2="3053" gradientUnits="userSpaceOnUse" spreadMethod="reflect"><stop offset="0" stop-color="#AFAFAF"/><stop offset=".5" stop-color="#A5A5A5"/><stop offset="1" stop-color="#929292"/></linearGradient><clipPath id="clip86"><rect width="5358" height="2415" x="1511" y="640"/></clipPath><linearGradient id="fill87" x1="6429" x2="6429" y1="2984" y2="3053" gradientUnits="userSpaceOnUse" spreadMethod="reflect"><stop offset="0" stop-color="#AFAFAF"/><stop offset=".5" stop-color="#A5A5A5"/><stop offset="1" stop-color="#929292"/></linearGradient><clipPath id="clip88"><rect width="5358" height="2415" x="1511" y="640"/></clipPath><linearGradient id="fill89" x1="6786" x2="6786" y1="2988" y2="3053" gradientUnits="userSpaceOnUse" spreadMethod="reflect"><stop offset="0" stop-color="#AFAFAF"/><stop offset=".5" stop-color="#A5A5A5"/><stop offset="1" stop-color="#929292"/></linearGradient><clipPath id="clip90"><rect width="5648" height="3202" x="1268" y="175"/></clipPath><clipPath id="clip91"><rect width="5648" height="3202" x="1268" y="175"/></clipPath><clipPath id="clip92"><rect width="5648" height="3202" x="1268" y="175"/></clipPath><clipPath id="clip93"><rect width="5648" height="3202" x="1268" y="175"/></clipPath><clipPath id="clip94"><rect width="5648" height="3202" x="1268" y="175"/></clipPath><clipPath id="clip95"><rect width="5648" height="3202" x="1268" y="175"/></clipPath><clipPath id="clip96"><rect width="5648" height="3202" x="1268" y="175"/></clipPath><clipPath id="clip97"><rect width="5648" height="3202" x="1268" y="175"/></clipPath><clipPath id="clip98"><rect width="5648" height="3202" x="1268" y="175"/></clipPath><clipPath id="clip99"><rect width="5648" height="3202" x="1268" y="175"/></clipPath><clipPath id="clip100"><rect width="5648" height="3202" x="1268" y="175"/></clipPath><clipPath id="clip101"><rect width="5648" height="3202" x="1268" y="175"/></clipPath><clipPath id="clip102"><rect width="5648" height="3202" x="1268" y="175"/></clipPath><clipPath id="clip103"><rect width="5648" height="3202" x="1268" y="175"/></clipPath><clipPath id="clip104"><rect width="5648" height="3202" x="1268" y="175"/></clipPath><clipPath id="clip105"><rect width="5648" height="3202" x="1268" y="175"/></clipPath><clipPath id="clip106"><rect width="5648" height="3202" x="1268" y="175"/></clipPath><clipPath id="clip107"><rect width="5648" height="3202" x="1268" y="175"/></clipPath><clipPath id="clip108"><rect width="5648" height="3202" x="1268" y="175"/></clipPath><clipPath id="clip109"><rect width="5648" height="3202" x="1268" y="175"/></clipPath><clipPath id="clip110"><rect width="5648" height="3202" x="1268" y="175"/></clipPath><clipPath id="clip111"><rect width="5648" height="3202" x="1268" y="175"/></clipPath><clipPath id="clip112"><rect width="5648" height="3202" x="1268" y="175"/></clipPath><clipPath id="clip113"><rect width="5648" height="3202" x="1268" y="175"/></clipPath><clipPath id="clip114"><rect width="5648" height="3202" x="1268" y="175"/></clipPath><clipPath id="clip115"><rect width="5648" height="3202" x="1268" y="175"/></clipPath><clipPath id="clip116"><rect width="5648" height="3202" x="1268" y="175"/></clipPath><clipPath id="clip117"><rect width="5648" height="3202" x="1268" y="175"/></clipPath><clipPath id="clip118"><rect width="5648" height="3202" x="1268" y="175"/></clipPath><clipPath id="clip119"><rect width="5648" height="3202" x="1268" y="175"/></clipPath><clipPath id="clip120"><rect width="5648" height="3202" x="1268" y="175"/></clipPath><clipPath id="clip121"><rect width="5648" height="3202" x="1268" y="175"/></clipPath><clipPath id="clip122"><rect width="5648" height="3202" x="1268" y="175"/></clipPath><clipPath id="clip123"><rect width="5648" height="3202" x="1268" y="175"/></clipPath><clipPath id="clip124"><rect width="5648" height="3202" x="1268" y="175"/></clipPath><clipPath id="clip125"><rect width="5648" height="3202" x="1268" y="175"/></clipPath><clipPath id="clip126"><rect width="5648" height="3202" x="1268" y="175"/></clipPath><clipPath id="clip127"><rect width="5648" height="3202" x="1268" y="175"/></clipPath><clipPath id="clip128"><rect width="5648" height="3202" x="1268" y="175"/></clipPath><clipPath id="clip129"><rect width="5648" height="3202" x="1268" y="175"/></clipPath><clipPath id="clip130"><rect width="5648" height="3202" x="1268" y="175"/></clipPath><clipPath id="clip131"><rect width="5648" height="3202" x="1268" y="175"/></clipPath><clipPath id="clip132"><rect width="5648" height="3202" x="1268" y="175"/></clipPath><clipPath id="clip133"><rect width="5648" height="3202" x="1268" y="175"/></clipPath><clipPath id="clip134"><rect width="5648" height="3202" x="1268" y="175"/></clipPath><clipPath id="clip135"><rect width="5648" height="3202" x="1268" y="175"/></clipPath><clipPath id="clip136"><rect width="5648" height="3202" x="1268" y="175"/></clipPath><clipPath id="clip137"><rect width="5648" height="3202" x="1268" y="175"/></clipPath><clipPath id="clip138"><rect width="5648" height="3202" x="1268" y="175"/></clipPath><clipPath id="clip139"><rect width="5648" height="3202" x="1268" y="175"/></clipPath><clipPath id="clip140"><rect width="5648" height="3202" x="1268" y="175"/></clipPath><clipPath id="clip141"><rect width="5648" height="3202" x="1268" y="175"/></clipPath><clipPath id="clip142"><rect width="5648" height="3202" x="1268" y="175"/></clipPath><clipPath id="clip143"><rect width="5648" height="3202" x="1268" y="175"/></clipPath><clipPath id="clip144"><rect width="5648" height="3202" x="1268" y="175"/></clipPath><clipPath id="clip145"><rect width="5648" height="3202" x="1268" y="175"/></clipPath><clipPath id="clip146"><rect width="5648" height="3202" x="1268" y="175"/></clipPath><clipPath id="clip147"><rect width="5648" height="3202" x="1268" y="175"/></clipPath><clipPath id="clip148"><rect width="5648" height="3202" x="1268" y="175"/></clipPath><clipPath id="clip149"><rect width="5648" height="3202" x="1268" y="175"/></clipPath><clipPath id="clip150"><rect width="5648" height="3202" x="1268" y="175"/></clipPath><clipPath id="clip151"><rect width="5648" height="3202" x="1268" y="175"/></clipPath><clipPath id="clip152"><rect width="5648" height="3202" x="1268" y="175"/></clipPath><clipPath id="clip153"><rect width="5648" height="3202" x="1268" y="175"/></clipPath><clipPath id="clip154"><rect width="5648" height="3202" x="1268" y="175"/></clipPath><clipPath id="clip155"><rect width="5648" height="3202" x="1268" y="175"/></clipPath><clipPath id="clip156"><rect width="5648" height="3202" x="1268" y="175"/></clipPath><clipPath id="clip157"><rect width="5648" height="3202" x="1268" y="175"/></clipPath><clipPath id="clip158"><rect width="5648" height="3202" x="1268" y="175"/></clipPath><clipPath id="clip159"><rect width="5648" height="3202" x="1268" y="175"/></clipPath><clipPath id="clip160"><rect width="5648" height="3202" x="1268" y="175"/></clipPath><clipPath id="clip161"><rect width="5648" height="3202" x="1268" y="175"/></clipPath><clipPath id="clip162"><rect width="5648" height="3202" x="1268" y="175"/></clipPath><clipPath id="clip163"><rect width="5648" height="3202" x="1268" y="175"/></clipPath><clipPath id="clip164"><rect width="5648" height="3202" x="1268" y="175"/></clipPath><clipPath id="clip165"><rect width="5648" height="3202" x="1268" y="175"/></clipPath><clipPath id="clip166"><rect width="5648" height="3202" x="1268" y="175"/></clipPath><clipPath id="clip167"><rect width="5648" height="3202" x="1268" y="175"/></clipPath><clipPath id="clip168"><rect width="5648" height="3202" x="1268" y="175"/></clipPath><clipPath id="clip169"><rect width="5648" height="3202" x="1268" y="175"/></clipPath><clipPath id="clip170"><rect width="5648" height="3202" x="1268" y="175"/></clipPath><clipPath id="clip171"><rect width="5648" height="3202" x="1268" y="175"/></clipPath><clipPath id="clip172"><rect width="5648" height="3202" x="1268" y="175"/></clipPath><linearGradient id="fill173" x1="3845.5" x2="3845.5" y1="540" y2="563" gradientUnits="userSpaceOnUse" spreadMethod="reflect"><stop offset="0" stop-color="#6083CB"/><stop offset=".5" stop-color="#3E70CA"/><stop offset="1" stop-color="#2E61BA"/></linearGradient><clipPath id="clip174"><rect width="5648" height="3202" x="1268" y="175"/></clipPath><clipPath id="clip175"><rect width="5648" height="3202" x="1268" y="175"/></clipPath><linearGradient id="fill176" x1="3993" x2="3993" y1="540" y2="563" gradientUnits="userSpaceOnUse" spreadMethod="reflect"><stop offset="0" stop-color="#F18C55"/><stop offset=".5" stop-color="#F67B28"/><stop offset="1" stop-color="#E56B17"/></linearGradient><clipPath id="clip177"><rect width="5648" height="3202" x="1268" y="175"/></clipPath><clipPath id="clip178"><rect width="5648" height="3202" x="1268" y="175"/></clipPath><linearGradient id="fill179" x1="4204.5" x2="4204.5" y1="540" y2="563" gradientUnits="userSpaceOnUse" spreadMethod="reflect"><stop offset="0" stop-color="#AFAFAF"/><stop offset=".5" stop-color="#A5A5A5"/><stop offset="1" stop-color="#929292"/></linearGradient><clipPath id="clip180"><rect width="5648" height="3202" x="1268" y="175"/></clipPath></defs><g clip-path="url(#clip0)" transform="translate(-1267 -174)"><rect width="5648" height="3202" x="1268" y="175" fill="#FFF"/><g clip-path="url(#clip1)"><path fill="none" stroke="#E0E5EB" stroke-linejoin="round" stroke-miterlimit="10" stroke-width="3.438" d="M1511.5 2750.59 6865.5 2750.59M1511.5 2449.58 6865.5 2449.58M1511.5 2147.57 6865.5 2147.57M1511.5 1846.56 6865.5 1846.56M1511.5 1544.55 6865.5 1544.55M1511.5 1243.54 6865.5 1243.54M1511.5 941.531 6865.5 941.531M1511.5 640.5 6865.5 640.5"/></g><g clip-path="url(#clip2)"><rect width="79" height="215" x="1552" y="2838" fill="url(#fill3)"/></g><g clip-path="url(#clip4)"><rect width="80" height="53" x="1908" y="3000" fill="url(#fill5)"/></g><g clip-path="url(#clip6)"><rect width="80" height="24" x="2265" y="3029" fill="url(#fill7)"/></g><g clip-path="url(#clip8)"><rect width="80" height="14" x="2622" y="3039" fill="url(#fill9)"/></g><g clip-path="url(#clip10)"><rect width="80" height="20" x="2979" y="3033" fill="url(#fill11)"/></g><g clip-path="url(#clip12)"><rect width="80" height="425" x="3336" y="2628" fill="url(#fill13)"/></g><g clip-path="url(#clip14)"><rect width="80" height="110" x="3693" y="2943" fill="url(#fill15)"/></g><g clip-path="url(#clip16)"><rect width="80" height="44" x="4050" y="3009" fill="url(#fill17)"/></g><g clip-path="url(#clip18)"><rect width="80" height="24" x="4407" y="3029" fill="url(#fill19)"/></g><g clip-path="url(#clip20)"><rect width="80" height="34" x="4764" y="3019" fill="url(#fill21)"/></g><g clip-path="url(#clip22)"><rect width="80" height="582" x="5478" y="2471" fill="url(#fill23)"/></g><g clip-path="url(#clip24)"><rect width="79.999" height="208" x="5835" y="2845" fill="url(#fill25)"/></g><g clip-path="url(#clip26)"><rect width="79" height="72" x="6192" y="2981" fill="url(#fill27)"/></g><g clip-path="url(#clip28)"><rect width="78.999" height="114" x="6549" y="2939" fill="url(#fill29)"/></g><g clip-path="url(#clip30)"><rect width="80" height="213" x="1650" y="2840" fill="url(#fill31)"/></g><g clip-path="url(#clip32)"><rect width="80" height="53" x="2007" y="3000" fill="url(#fill33)"/></g><g clip-path="url(#clip34)"><rect width="80" height="24" x="2364" y="3029" fill="url(#fill35)"/></g><g clip-path="url(#clip36)"><rect width="80" height="14" x="2721" y="3039" fill="url(#fill37)"/></g><g clip-path="url(#clip38)"><rect width="80" height="19" x="3078" y="3034" fill="url(#fill39)"/></g><g clip-path="url(#clip40)"><rect width="80" height="426" x="3435" y="2627" fill="url(#fill41)"/></g><g clip-path="url(#clip42)"><rect width="80" height="109" x="3792" y="2944" fill="url(#fill43)"/></g><g clip-path="url(#clip44)"><rect width="80" height="44" x="4149" y="3009" fill="url(#fill45)"/></g><g clip-path="url(#clip46)"><rect width="80" height="24" x="4506" y="3029" fill="url(#fill47)"/></g><g clip-path="url(#clip48)"><rect width="79" height="33" x="4863" y="3020" fill="url(#fill49)"/></g><g clip-path="url(#clip50)"><rect width="79" height="2203" x="5220" y="850" fill="url(#fill51)"/></g><g clip-path="url(#clip52)"><rect width="79" height="480" x="5577" y="2573" fill="url(#fill53)"/></g><g clip-path="url(#clip54)"><rect width="78.999" height="153" x="5934" y="2900" fill="url(#fill55)"/></g><g clip-path="url(#clip56)"><rect width="79" height="68" x="6291" y="2985" fill="url(#fill57)"/></g><g clip-path="url(#clip58)"><rect width="78.999" height="64" x="6648" y="2989" fill="url(#fill59)"/></g><g clip-path="url(#clip60)"><rect width="80" height="212" x="1749" y="2841" fill="url(#fill61)"/></g><g clip-path="url(#clip62)"><rect width="80" height="52" x="2106" y="3001" fill="url(#fill63)"/></g><g clip-path="url(#clip64)"><rect width="80" height="24" x="2463" y="3029" fill="url(#fill65)"/></g><g clip-path="url(#clip66)"><rect width="80" height="14" x="2820" y="3039" fill="url(#fill67)"/></g><g clip-path="url(#clip68)"><rect width="80" height="19" x="3177" y="3034" fill="url(#fill69)"/></g><g clip-path="url(#clip70)"><rect width="80" height="423" x="3534" y="2630" fill="url(#fill71)"/></g><g clip-path="url(#clip72)"><rect width="79" height="108" x="3891" y="2945" fill="url(#fill73)"/></g><g clip-path="url(#clip74)"><rect width="79" height="44" x="4248" y="3009" fill="url(#fill75)"/></g><g clip-path="url(#clip76)"><rect width="79" height="23" x="4605" y="3030" fill="url(#fill77)"/></g><g clip-path="url(#clip78)"><rect width="79" height="33" x="4962" y="3020" fill="url(#fill79)"/></g><g clip-path="url(#clip80)"><rect width="79" height="2224" x="5319" y="829" fill="url(#fill81)"/></g><g clip-path="url(#clip82)"><rect width="80" height="478" x="5675" y="2575" fill="url(#fill83)"/></g><g clip-path="url(#clip84)"><rect width="79.999" height="144" x="6032" y="2909" fill="url(#fill85)"/></g><g clip-path="url(#clip86)"><rect width="80" height="69" x="6389" y="2984" fill="url(#fill87)"/></g><g clip-path="url(#clip88)"><rect width="79.999" height="65" x="6746" y="2988" fill="url(#fill89)"/></g><g clip-path="url(#clip90)"><path fill="none" fill-rule="evenodd" stroke="#E0E5EB" stroke-linejoin="round" stroke-miterlimit="10" stroke-width="3.438" d="M1511.5 3052.5 6865.5 3052.5"/></g><g clip-path="url(#clip91)"><path fill="none" stroke="#E0E5EB" stroke-linejoin="round" stroke-miterlimit="10" stroke-width="3.438" d="M1511.5 3052.5 1511.5 3132.5M3296.61 3052.5 3296.61 3132.5M5080.67 3052.5 5080.67 3132.5M6865.5 3052.5 6865.5 3132.5"/></g><g clip-path="url(#clip92)"><path fill="none" stroke="#E0E5EB" stroke-linejoin="round" stroke-miterlimit="10" stroke-width="3.438" d="M1511.5 3132.5 1511.5 3212.5M3296.61 3132.5 3296.61 3212.5M5080.67 3132.5 5080.67 3212.5M6865.5 3132.5 6865.5 3212.5"/></g><g clip-path="url(#clip93)"><text fill="#44546A" font-family="Calibri,Calibri_MSFontService,sans-serif" font-size="41" font-weight="400" transform="matrix(1 0 0 1 1560.02 2806)">143</text></g><g clip-path="url(#clip94)"><text fill="#44546A" font-family="Calibri,Calibri_MSFontService,sans-serif" font-size="41" font-weight="400" transform="matrix(1 0 0 1 1927.41 2968)">35</text></g><g clip-path="url(#clip95)"><text fill="#44546A" font-family="Calibri,Calibri_MSFontService,sans-serif" font-size="41" font-weight="400" transform="matrix(1 0 0 1 2284.35 2997)">16</text></g><g clip-path="url(#clip96)"><text fill="#44546A" font-family="Calibri,Calibri_MSFontService,sans-serif" font-size="41" font-weight="400" transform="matrix(1 0 0 1 2651.75 3007)">9</text></g><g clip-path="url(#clip97)"><text fill="#44546A" font-family="Calibri,Calibri_MSFontService,sans-serif" font-size="41" font-weight="400" transform="matrix(1 0 0 1 2998.24 3001)">13</text></g><g clip-path="url(#clip98)"><text fill="#44546A" font-family="Calibri,Calibri_MSFontService,sans-serif" font-size="41" font-weight="400" transform="matrix(1 0 0 1 3344.73 2597)">281</text></g><g clip-path="url(#clip99)"><text fill="#44546A" font-family="Calibri,Calibri_MSFontService,sans-serif" font-size="41" font-weight="400" transform="matrix(1 0 0 1 3712.12 2911)">73</text></g><g clip-path="url(#clip100)"><text fill="#44546A" font-family="Calibri,Calibri_MSFontService,sans-serif" font-size="41" font-weight="400" transform="matrix(1 0 0 1 4069.07 2977)">29</text></g><g clip-path="url(#clip101)"><text fill="#44546A" font-family="Calibri,Calibri_MSFontService,sans-serif" font-size="41" font-weight="400" transform="matrix(1 0 0 1 4426.01 2997)">16</text></g><g clip-path="url(#clip102)"><text fill="#44546A" font-family="Calibri,Calibri_MSFontService,sans-serif" font-size="41" font-weight="400" transform="matrix(1 0 0 1 4782.95 2987)">23</text></g><g clip-path="url(#clip103)"><text fill="#44546A" font-family="Calibri,Calibri_MSFontService,sans-serif" font-size="41" font-weight="400" transform="matrix(1 0 0 1 5486.39 2439)">385</text></g><g clip-path="url(#clip104)"><text fill="#44546A" font-family="Calibri,Calibri_MSFontService,sans-serif" font-size="41" font-weight="400" transform="matrix(1 0 0 1 5843.33 2813)">138</text></g><g clip-path="url(#clip105)"><text fill="#44546A" font-family="Calibri,Calibri_MSFontService,sans-serif" font-size="41" font-weight="400" transform="matrix(1 0 0 1 6210.72 2949)">47</text></g><g clip-path="url(#clip106)"><text fill="#44546A" font-family="Calibri,Calibri_MSFontService,sans-serif" font-size="41" font-weight="400" transform="matrix(1 0 0 1 6567.66 2907)">76</text></g><g clip-path="url(#clip107)"><text fill="#44546A" font-family="Calibri,Calibri_MSFontService,sans-serif" font-size="41" font-weight="400" transform="matrix(1 0 0 1 1658.81 2808)">141</text></g><g clip-path="url(#clip108)"><text fill="#44546A" font-family="Calibri,Calibri_MSFontService,sans-serif" font-size="41" font-weight="400" transform="matrix(1 0 0 1 2026.21 2968)">35</text></g><g clip-path="url(#clip109)"><text fill="#44546A" font-family="Calibri,Calibri_MSFontService,sans-serif" font-size="41" font-weight="400" transform="matrix(1 0 0 1 2383.15 2997)">15</text></g><g clip-path="url(#clip110)"><text fill="#44546A" font-family="Calibri,Calibri_MSFontService,sans-serif" font-size="41" font-weight="400" transform="matrix(1 0 0 1 2750.54 3007)">9</text></g><g clip-path="url(#clip111)"><text fill="#44546A" font-family="Calibri,Calibri_MSFontService,sans-serif" font-size="41" font-weight="400" transform="matrix(1 0 0 1 3097.04 3002)">12</text></g><g clip-path="url(#clip112)"><text fill="#44546A" font-family="Calibri,Calibri_MSFontService,sans-serif" font-size="41" font-weight="400" transform="matrix(1 0 0 1 3443.53 2595)">282</text></g><g clip-path="url(#clip113)"><text fill="#44546A" font-family="Calibri,Calibri_MSFontService,sans-serif" font-size="41" font-weight="400" transform="matrix(1 0 0 1 3810.92 2912)">72</text></g><g clip-path="url(#clip114)"><text fill="#44546A" font-family="Calibri,Calibri_MSFontService,sans-serif" font-size="41" font-weight="400" transform="matrix(1 0 0 1 4167.86 2977)">29</text></g><g clip-path="url(#clip115)"><text fill="#44546A" font-family="Calibri,Calibri_MSFontService,sans-serif" font-size="41" font-weight="400" transform="matrix(1 0 0 1 4524.81 2997)">15</text></g><g clip-path="url(#clip116)"><text fill="#44546A" font-family="Calibri,Calibri_MSFontService,sans-serif" font-size="41" font-weight="400" transform="matrix(1 0 0 1 4881.75 2988)">21</text></g><g clip-path="url(#clip117)"><text fill="#44546A" font-family="Calibri,Calibri_MSFontService,sans-serif" font-size="41" font-weight="400" transform="matrix(1 0 0 1 5217.79 818)">1461</text></g><g clip-path="url(#clip118)"><text fill="#44546A" font-family="Calibri,Calibri_MSFontService,sans-serif" font-size="41" font-weight="400" transform="matrix(1 0 0 1 5585.18 2541)">318</text></g><g clip-path="url(#clip119)"><text fill="#44546A" font-family="Calibri,Calibri_MSFontService,sans-serif" font-size="41" font-weight="400" transform="matrix(1 0 0 1 5942.13 2868)">101</text></g><g clip-path="url(#clip120)"><text fill="#44546A" font-family="Calibri,Calibri_MSFontService,sans-serif" font-size="41" font-weight="400" transform="matrix(1 0 0 1 6309.52 2953)">45</text></g><g clip-path="url(#clip121)"><text fill="#44546A" font-family="Calibri,Calibri_MSFontService,sans-serif" font-size="41" font-weight="400" transform="matrix(1 0 0 1 6666.46 2957)">42</text></g><g clip-path="url(#clip122)"><text fill="#44546A" font-family="Calibri,Calibri_MSFontService,sans-serif" font-size="41" font-weight="400" transform="matrix(1 0 0 1 1757.61 2809)">140</text></g><g clip-path="url(#clip123)"><text fill="#44546A" font-family="Calibri,Calibri_MSFontService,sans-serif" font-size="41" font-weight="400" transform="matrix(1 0 0 1 2125 2969)">34</text></g><g clip-path="url(#clip124)"><text fill="#44546A" font-family="Calibri,Calibri_MSFontService,sans-serif" font-size="41" font-weight="400" transform="matrix(1 0 0 1 2481.95 2997)">15</text></g><g clip-path="url(#clip125)"><text fill="#44546A" font-family="Calibri,Calibri_MSFontService,sans-serif" font-size="41" font-weight="400" transform="matrix(1 0 0 1 2849.34 3007)">9</text></g><g clip-path="url(#clip126)"><text fill="#44546A" font-family="Calibri,Calibri_MSFontService,sans-serif" font-size="41" font-weight="400" transform="matrix(1 0 0 1 3195.83 3002)">13</text></g><g clip-path="url(#clip127)"><text fill="#44546A" font-family="Calibri,Calibri_MSFontService,sans-serif" font-size="41" font-weight="400" transform="matrix(1 0 0 1 3542.32 2598)">281</text></g><g clip-path="url(#clip128)"><text fill="#44546A" font-family="Calibri,Calibri_MSFontService,sans-serif" font-size="41" font-weight="400" transform="matrix(1 0 0 1 3909.72 2913)">71</text></g><g clip-path="url(#clip129)"><text fill="#44546A" font-family="Calibri,Calibri_MSFontService,sans-serif" font-size="41" font-weight="400" transform="matrix(1 0 0 1 4266.66 2977)">29</text></g><g clip-path="url(#clip130)"><text fill="#44546A" font-family="Calibri,Calibri_MSFontService,sans-serif" font-size="41" font-weight="400" transform="matrix(1 0 0 1 4623.6 2998)">15</text></g><g clip-path="url(#clip131)"><text fill="#44546A" font-family="Calibri,Calibri_MSFontService,sans-serif" font-size="41" font-weight="400" transform="matrix(1 0 0 1 4980.54 2988)">22</text></g><g clip-path="url(#clip132)"><text fill="#44546A" font-family="Calibri,Calibri_MSFontService,sans-serif" font-size="41" font-weight="400" transform="matrix(1 0 0 1 5316.59 797)">1475</text></g><g clip-path="url(#clip133)"><text fill="#44546A" font-family="Calibri,Calibri_MSFontService,sans-serif" font-size="41" font-weight="400" transform="matrix(1 0 0 1 5683.98 2543)">317</text></g><g clip-path="url(#clip134)"><text fill="#44546A" font-family="Calibri,Calibri_MSFontService,sans-serif" font-size="41" font-weight="400" transform="matrix(1 0 0 1 6051.37 2877)">95</text></g><g clip-path="url(#clip135)"><text fill="#44546A" font-family="Calibri,Calibri_MSFontService,sans-serif" font-size="41" font-weight="400" transform="matrix(1 0 0 1 6408.31 2952)">45</text></g><g clip-path="url(#clip136)"><text fill="#44546A" font-family="Calibri,Calibri_MSFontService,sans-serif" font-size="41" font-weight="400" transform="matrix(1 0 0 1 6765.26 2956)">43</text></g><g clip-path="url(#clip137)"><text fill="#44546A" font-family="Calibri,Calibri_MSFontService,sans-serif" font-size="41" font-weight="400" transform="matrix(1 0 0 1 1452.53 3064)">0</text></g><g clip-path="url(#clip138)"><text fill="#44546A" font-family="Calibri,Calibri_MSFontService,sans-serif" font-size="41" font-weight="400" transform="matrix(1 0 0 1 1410.73 2763)">200</text></g><g clip-path="url(#clip139)"><text fill="#44546A" font-family="Calibri,Calibri_MSFontService,sans-serif" font-size="41" font-weight="400" transform="matrix(1 0 0 1 1410.73 2461)">400</text></g><g clip-path="url(#clip140)"><text fill="#44546A" font-family="Calibri,Calibri_MSFontService,sans-serif" font-size="41" font-weight="400" transform="matrix(1 0 0 1 1410.73 2160)">600</text></g><g clip-path="url(#clip141)"><text fill="#44546A" font-family="Calibri,Calibri_MSFontService,sans-serif" font-size="41" font-weight="400" transform="matrix(1 0 0 1 1410.73 1858)">800</text></g><g clip-path="url(#clip142)"><text fill="#44546A" font-family="Calibri,Calibri_MSFontService,sans-serif" font-size="41" font-weight="400" transform="matrix(1 0 0 1 1389.83 1556)">1000</text></g><g clip-path="url(#clip143)"><text fill="#44546A" font-family="Calibri,Calibri_MSFontService,sans-serif" font-size="41" font-weight="400" transform="matrix(1 0 0 1 1389.83 1255)">1200</text></g><g clip-path="url(#clip144)"><text fill="#44546A" font-family="Calibri,Calibri_MSFontService,sans-serif" font-size="41" font-weight="400" transform="matrix(1 0 0 1 1389.83 953)">1400</text></g><g clip-path="url(#clip145)"><text fill="#44546A" font-family="Calibri,Calibri_MSFontService,sans-serif" font-size="41" font-weight="400" transform="matrix(1 0 0 1 1389.83 652)">1600</text></g><g clip-path="url(#clip146)"><text fill="#44546A" font-family="Calibri,Calibri_MSFontService,sans-serif" font-size="41" font-weight="400" transform="matrix(1 0 0 1 1679.72 3118)">1</text></g><g clip-path="url(#clip147)"><text fill="#44546A" font-family="Calibri,Calibri_MSFontService,sans-serif" font-size="41" font-weight="400" transform="matrix(1 0 0 1 2036.66 3118)">4</text></g><g clip-path="url(#clip148)"><text fill="#44546A" font-family="Calibri,Calibri_MSFontService,sans-serif" font-size="41" font-weight="400" transform="matrix(1 0 0 1 2383.15 3118)">16</text></g><g clip-path="url(#clip149)"><text fill="#44546A" font-family="Calibri,Calibri_MSFontService,sans-serif" font-size="41" font-weight="400" transform="matrix(1 0 0 1 2740.09 3118)">40</text></g><g clip-path="url(#clip150)"><text fill="#44546A" font-family="Calibri,Calibri_MSFontService,sans-serif" font-size="41" font-weight="400" transform="matrix(1 0 0 1 3097.04 3118)">80</text></g><g clip-path="url(#clip151)"><text fill="#44546A" font-family="Calibri,Calibri_MSFontService,sans-serif" font-size="41" font-weight="400" transform="matrix(1 0 0 1 3464.43 3118)">1</text></g><g clip-path="url(#clip152)"><text fill="#44546A" font-family="Calibri,Calibri_MSFontService,sans-serif" font-size="41" font-weight="400" transform="matrix(1 0 0 1 3821.37 3118)">4</text></g><g clip-path="url(#clip153)"><text fill="#44546A" font-family="Calibri,Calibri_MSFontService,sans-serif" font-size="41" font-weight="400" transform="matrix(1 0 0 1 4167.86 3118)">16</text></g><g clip-path="url(#clip154)"><text fill="#44546A" font-family="Calibri,Calibri_MSFontService,sans-serif" font-size="41" font-weight="400" transform="matrix(1 0 0 1 4524.81 3118)">40</text></g><g clip-path="url(#clip155)"><text fill="#44546A" font-family="Calibri,Calibri_MSFontService,sans-serif" font-size="41" font-weight="400" transform="matrix(1 0 0 1 4881.75 3118)">80</text></g><g clip-path="url(#clip156)"><text fill="#44546A" font-family="Calibri,Calibri_MSFontService,sans-serif" font-size="41" font-weight="400" transform="matrix(1 0 0 1 5249.14 3118)">1</text></g><g clip-path="url(#clip157)"><text fill="#44546A" font-family="Calibri,Calibri_MSFontService,sans-serif" font-size="41" font-weight="400" transform="matrix(1 0 0 1 5606.08 3118)">4</text></g><g clip-path="url(#clip158)"><text fill="#44546A" font-family="Calibri,Calibri_MSFontService,sans-serif" font-size="41" font-weight="400" transform="matrix(1 0 0 1 5952.58 3118)">16</text></g><g clip-path="url(#clip159)"><text fill="#44546A" font-family="Calibri,Calibri_MSFontService,sans-serif" font-size="41" font-weight="400" transform="matrix(1 0 0 1 6309.52 3118)">40</text></g><g clip-path="url(#clip160)"><text fill="#44546A" font-family="Calibri,Calibri_MSFontService,sans-serif" font-size="41" font-weight="400" transform="matrix(1 0 0 1 6666.46 3118)">80</text></g><g clip-path="url(#clip161)"><text fill="#44546A" font-family="Calibri,Calibri_MSFontService,sans-serif" font-size="41" font-weight="400" transform="matrix(1 0 0 1 2383.15 3198)">32</text></g><g clip-path="url(#clip162)"><text fill="#44546A" font-family="Calibri,Calibri_MSFontService,sans-serif" font-size="41" font-weight="400" transform="matrix(1 0 0 1 4157.41 3198)">128</text></g><g clip-path="url(#clip163)"><text fill="#44546A" font-family="Calibri,Calibri_MSFontService,sans-serif" font-size="41" font-weight="400" transform="matrix(1 0 0 1 5942.13 3198)">512</text></g><g clip-path="url(#clip164)"><text fill="#44546A" font-family="Calibri,Calibri_MSFontService,sans-serif" font-size="41" font-weight="700" transform="matrix(6.12323e-17 -1 1 6.12323e-17 1364.73 1955)">Latency (ms)</text></g><g clip-path="url(#clip165)"><text fill="#44546A" font-family="Calibri,Calibri_MSFontService,sans-serif" font-size="41" font-weight="700" transform="matrix(1 0 0 1 4043.64 3258)">Number of Cores</text></g><g clip-path="url(#clip166)"><text fill="#44546A" font-family="Calibri,Calibri_MSFontService,sans-serif" font-size="41" font-weight="700" transform="matrix(1 0 0 1 4043.21 3309)">Sequence Length</text></g><g clip-path="url(#clip167)"><text fill="#44546A" font-family="Calibri,Calibri_MSFontService,sans-serif" font-size="73" font-weight="700" transform="matrix(1 0 0 1 3535.98 280)">Intel Ice lake Xeon 8380</text></g><g clip-path="url(#clip168)"><text fill="#44546A" font-family="Calibri,Calibri_MSFontService,sans-serif" font-size="73" font-weight="700" transform="matrix(1 0 0 1 4271.33 280)">-</text></g><g clip-path="url(#clip169)"><text fill="#44546A" font-family="Calibri,Calibri_MSFontService,sans-serif" font-size="73" font-weight="700" transform="matrix(1 0 0 1 4310.36 280)">TorchScript</text></g><g clip-path="url(#clip170)"><text fill="#44546A" font-family="Calibri,Calibri_MSFontService,sans-serif" font-size="73" font-weight="700" transform="matrix(1 0 0 1 2318.97 369)">Latency Benchmark with varying number of CPU cores involved in the computations and different memory allocators</text></g><g clip-path="url(#clip171)"><text fill="#44546A" font-family="Calibri,Calibri_MSFontService,sans-serif" font-size="73" font-weight="700" transform="matrix(1 0 0 1 2999.87 459)">(some data might be missing indicating benchmark crashed during runs)</text></g><g clip-path="url(#clip172)"><rect width="23" height="23" x="3834" y="540" fill="url(#fill173)"/></g><g clip-path="url(#clip174)"><text fill="#44546A" font-family="Calibri,Calibri_MSFontService,sans-serif" font-size="41" font-weight="400" transform="matrix(1 0 0 1 3866.18 563)">glibc</text></g><g clip-path="url(#clip175)"><rect width="22" height="23" x="3982" y="540" fill="url(#fill176)"/></g><g clip-path="url(#clip177)"><text fill="#44546A" font-family="Calibri,Calibri_MSFontService,sans-serif" font-size="41" font-weight="400" transform="matrix(1 0 0 1 4013.79 563)">jemalloc</text></g><g clip-path="url(#clip178)"><rect width="23" height="23" x="4193" y="540" fill="url(#fill179)"/></g><g clip-path="url(#clip180)"><text fill="#44546A" font-family="Calibri,Calibri_MSFontService,sans-serif" font-size="41" font-weight="400" transform="matrix(1 0 0 1 4225.17 563)">tcmalloc</text></g><rect width="5648" height="3202" x="1268.5" y="175.5" fill="none" stroke="#E0E5EB" stroke-linejoin="round" stroke-miterlimit="10" stroke-width="3.438"/></g></svg>