<svg xmlns="http://www.w3.org/2000/svg" xmlns:xlink="http://www.w3.org/1999/xlink" width="5468" height="3205" overflow="hidden"><defs><clipPath id="clip0"><rect width="5468" height="3205" x="811" y="96"/></clipPath><clipPath id="clip1"><rect width="5464" height="3202" x="812" y="97"/></clipPath><clipPath id="clip2"><rect width="5174" height="2466" x="1055" y="562"/></clipPath><linearGradient id="fill3" x1="1132.5" x2="1132.5" y1="2800" y2="3025" gradientUnits="userSpaceOnUse" spreadMethod="reflect"><stop offset="0" stop-color="#6083CB"/><stop offset=".5" stop-color="#3E70CA"/><stop offset="1" stop-color="#2E61BA"/></linearGradient><clipPath id="clip4"><rect width="5174" height="2466" x="1055" y="562"/></clipPath><linearGradient id="fill5" x1="1477" x2="1477" y1="2908" y2="3025" gradientUnits="userSpaceOnUse" spreadMethod="reflect"><stop offset="0" stop-color="#6083CB"/><stop offset=".5" stop-color="#3E70CA"/><stop offset="1" stop-color="#2E61BA"/></linearGradient><clipPath id="clip6"><rect width="5174" height="2466" x="1055" y="562"/></clipPath><linearGradient id="fill7" x1="1821.5" x2="1821.5" y1="2931" y2="3025" gradientUnits="userSpaceOnUse" spreadMethod="reflect"><stop offset="0" stop-color="#6083CB"/><stop offset=".5" stop-color="#3E70CA"/><stop offset="1" stop-color="#2E61BA"/></linearGradient><clipPath id="clip8"><rect width="5174" height="2466" x="1055" y="562"/></clipPath><linearGradient id="fill9" x1="2166.5" x2="2166.5" y1="2937" y2="3025" gradientUnits="userSpaceOnUse" spreadMethod="reflect"><stop offset="0" stop-color="#6083CB"/><stop offset=".5" stop-color="#3E70CA"/><stop offset="1" stop-color="#2E61BA"/></linearGradient><clipPath id="clip10"><rect width="5174" height="2466" x="1055" y="562"/></clipPath><linearGradient id="fill11" x1="2511.5" x2="2511.5" y1="2934" y2="3025" gradientUnits="userSpaceOnUse" spreadMethod="reflect"><stop offset="0" stop-color="#6083CB"/><stop offset=".5" stop-color="#3E70CA"/><stop offset="1" stop-color="#2E61BA"/></linearGradient><clipPath id="clip12"><rect width="5174" height="2466" x="1055" y="562"/></clipPath><linearGradient id="fill13" x1="2855.5" x2="2855.5" y1="2577" y2="3025" gradientUnits="userSpaceOnUse" spreadMethod="reflect"><stop offset="0" stop-color="#6083CB"/><stop offset=".5" stop-color="#3E70CA"/><stop offset="1" stop-color="#2E61BA"/></linearGradient><clipPath id="clip14"><rect width="5174" height="2466" x="1055" y="562"/></clipPath><linearGradient id="fill15" x1="3200.5" x2="3200.5" y1="2794" y2="3025" gradientUnits="userSpaceOnUse" spreadMethod="reflect"><stop offset="0" stop-color="#6083CB"/><stop offset=".5" stop-color="#3E70CA"/><stop offset="1" stop-color="#2E61BA"/></linearGradient><clipPath id="clip16"><rect width="5174" height="2466" x="1055" y="562"/></clipPath><linearGradient id="fill17" x1="3545.5" x2="3545.5" y1="2834" y2="3025" gradientUnits="userSpaceOnUse" spreadMethod="reflect"><stop offset="0" stop-color="#6083CB"/><stop offset=".5" stop-color="#3E70CA"/><stop offset="1" stop-color="#2E61BA"/></linearGradient><clipPath id="clip18"><rect width="5174" height="2466" x="1055" y="562"/></clipPath><linearGradient id="fill19" x1="3890.5" x2="3890.5" y1="2841" y2="3025" gradientUnits="userSpaceOnUse" spreadMethod="reflect"><stop offset="0" stop-color="#6083CB"/><stop offset=".5" stop-color="#3E70CA"/><stop offset="1" stop-color="#2E61BA"/></linearGradient><clipPath id="clip20"><rect width="5174" height="2466" x="1055" y="562"/></clipPath><linearGradient id="fill21" x1="4234.5" x2="4234.5" y1="2832" y2="3025" gradientUnits="userSpaceOnUse" spreadMethod="reflect"><stop offset="0" stop-color="#6083CB"/><stop offset=".5" stop-color="#3E70CA"/><stop offset="1" stop-color="#2E61BA"/></linearGradient><clipPath id="clip22"><rect width="5174" height="2466" x="1055" y="562"/></clipPath><linearGradient id="fill23" x1="4579.5" x2="4579.5" y1="1099" y2="3025" gradientUnits="userSpaceOnUse" spreadMethod="reflect"><stop offset="0" stop-color="#6083CB"/><stop offset=".5" stop-color="#3E70CA"/><stop offset="1" stop-color="#2E61BA"/></linearGradient><clipPath id="clip24"><rect width="5174" height="2466" x="1055" y="562"/></clipPath><linearGradient id="fill25" x1="4924.5" x2="4924.5" y1="2285" y2="3025" gradientUnits="userSpaceOnUse" spreadMethod="reflect"><stop offset="0" stop-color="#6083CB"/><stop offset=".5" stop-color="#3E70CA"/><stop offset="1" stop-color="#2E61BA"/></linearGradient><clipPath id="clip26"><rect width="5174" height="2466" x="1055" y="562"/></clipPath><linearGradient id="fill27" x1="5268.5" x2="5268.5" y1="2417" y2="3025" gradientUnits="userSpaceOnUse" spreadMethod="reflect"><stop offset="0" stop-color="#6083CB"/><stop offset=".5" stop-color="#3E70CA"/><stop offset="1" stop-color="#2E61BA"/></linearGradient><clipPath id="clip28"><rect width="5174" height="2466" x="1055" y="562"/></clipPath><linearGradient id="fill29" x1="5613.5" x2="5613.5" y1="2422" y2="3025" gradientUnits="userSpaceOnUse" spreadMethod="reflect"><stop offset="0" stop-color="#6083CB"/><stop offset=".5" stop-color="#3E70CA"/><stop offset="1" stop-color="#2E61BA"/></linearGradient><clipPath id="clip30"><rect width="5174" height="2466" x="1055" y="562"/></clipPath><linearGradient id="fill31" x1="5958.5" x2="5958.5" y1="2347" y2="3025" gradientUnits="userSpaceOnUse" spreadMethod="reflect"><stop offset="0" stop-color="#6083CB"/><stop offset=".5" stop-color="#3E70CA"/><stop offset="1" stop-color="#2E61BA"/></linearGradient><clipPath id="clip32"><rect width="5174" height="2466" x="1055" y="562"/></clipPath><linearGradient id="fill33" x1="1227.5" x2="1227.5" y1="2790" y2="3025" gradientUnits="userSpaceOnUse" spreadMethod="reflect"><stop offset="0" stop-color="#F18C55"/><stop offset=".5" stop-color="#F67B28"/><stop offset="1" stop-color="#E56B17"/></linearGradient><clipPath id="clip34"><rect width="5174" height="2466" x="1055" y="562"/></clipPath><linearGradient id="fill35" x1="1572.5" x2="1572.5" y1="2909" y2="3025" gradientUnits="userSpaceOnUse" spreadMethod="reflect"><stop offset="0" stop-color="#F18C55"/><stop offset=".5" stop-color="#F67B28"/><stop offset="1" stop-color="#E56B17"/></linearGradient><clipPath id="clip36"><rect width="5174" height="2466" x="1055" y="562"/></clipPath><linearGradient id="fill37" x1="1917.5" x2="1917.5" y1="2931" y2="3025" gradientUnits="userSpaceOnUse" spreadMethod="reflect"><stop offset="0" stop-color="#F18C55"/><stop offset=".5" stop-color="#F67B28"/><stop offset="1" stop-color="#E56B17"/></linearGradient><clipPath id="clip38"><rect width="5174" height="2466" x="1055" y="562"/></clipPath><linearGradient id="fill39" x1="2261.5" x2="2261.5" y1="2938" y2="3025" gradientUnits="userSpaceOnUse" spreadMethod="reflect"><stop offset="0" stop-color="#F18C55"/><stop offset=".5" stop-color="#F67B28"/><stop offset="1" stop-color="#E56B17"/></linearGradient><clipPath id="clip40"><rect width="5174" height="2466" x="1055" y="562"/></clipPath><linearGradient id="fill41" x1="2606.5" x2="2606.5" y1="2933" y2="3025" gradientUnits="userSpaceOnUse" spreadMethod="reflect"><stop offset="0" stop-color="#F18C55"/><stop offset=".5" stop-color="#F67B28"/><stop offset="1" stop-color="#E56B17"/></linearGradient><clipPath id="clip42"><rect width="5174" height="2466" x="1055" y="562"/></clipPath><linearGradient id="fill43" x1="2951.5" x2="2951.5" y1="2543" y2="3025" gradientUnits="userSpaceOnUse" spreadMethod="reflect"><stop offset="0" stop-color="#F18C55"/><stop offset=".5" stop-color="#F67B28"/><stop offset="1" stop-color="#E56B17"/></linearGradient><clipPath id="clip44"><rect width="5174" height="2466" x="1055" y="562"/></clipPath><linearGradient id="fill45" x1="3296" x2="3296" y1="2798" y2="3025" gradientUnits="userSpaceOnUse" spreadMethod="reflect"><stop offset="0" stop-color="#F18C55"/><stop offset=".5" stop-color="#F67B28"/><stop offset="1" stop-color="#E56B17"/></linearGradient><clipPath id="clip46"><rect width="5174" height="2466" x="1055" y="562"/></clipPath><linearGradient id="fill47" x1="3640.5" x2="3640.5" y1="2837" y2="3025" gradientUnits="userSpaceOnUse" spreadMethod="reflect"><stop offset="0" stop-color="#F18C55"/><stop offset=".5" stop-color="#F67B28"/><stop offset="1" stop-color="#E56B17"/></linearGradient><clipPath id="clip48"><rect width="5174" height="2466" x="1055" y="562"/></clipPath><linearGradient id="fill49" x1="3985.5" x2="3985.5" y1="2843" y2="3025" gradientUnits="userSpaceOnUse" spreadMethod="reflect"><stop offset="0" stop-color="#F18C55"/><stop offset=".5" stop-color="#F67B28"/><stop offset="1" stop-color="#E56B17"/></linearGradient><clipPath id="clip50"><rect width="5174" height="2466" x="1055" y="562"/></clipPath><linearGradient id="fill51" x1="4330.5" x2="4330.5" y1="2832" y2="3025" gradientUnits="userSpaceOnUse" spreadMethod="reflect"><stop offset="0" stop-color="#F18C55"/><stop offset=".5" stop-color="#F67B28"/><stop offset="1" stop-color="#E56B17"/></linearGradient><clipPath id="clip52"><rect width="5174" height="2466" x="1055" y="562"/></clipPath><linearGradient id="fill53" x1="4674.5" x2="4674.5" y1="1047" y2="3025" gradientUnits="userSpaceOnUse" spreadMethod="reflect"><stop offset="0" stop-color="#F18C55"/><stop offset=".5" stop-color="#F67B28"/><stop offset="1" stop-color="#E56B17"/></linearGradient><clipPath id="clip54"><rect width="5174" height="2466" x="1055" y="562"/></clipPath><linearGradient id="fill55" x1="5019.5" x2="5019.5" y1="2288" y2="3025" gradientUnits="userSpaceOnUse" spreadMethod="reflect"><stop offset="0" stop-color="#F18C55"/><stop offset=".5" stop-color="#F67B28"/><stop offset="1" stop-color="#E56B17"/></linearGradient><clipPath id="clip56"><rect width="5174" height="2466" x="1055" y="562"/></clipPath><linearGradient id="fill57" x1="5364.5" x2="5364.5" y1="2425" y2="3025" gradientUnits="userSpaceOnUse" spreadMethod="reflect"><stop offset="0" stop-color="#F18C55"/><stop offset=".5" stop-color="#F67B28"/><stop offset="1" stop-color="#E56B17"/></linearGradient><clipPath id="clip58"><rect width="5174" height="2466" x="1055" y="562"/></clipPath><linearGradient id="fill59" x1="5709.5" x2="5709.5" y1="2438" y2="3025" gradientUnits="userSpaceOnUse" spreadMethod="reflect"><stop offset="0" stop-color="#F18C55"/><stop offset=".5" stop-color="#F67B28"/><stop offset="1" stop-color="#E56B17"/></linearGradient><clipPath id="clip60"><rect width="5174" height="2466" x="1055" y="562"/></clipPath><linearGradient id="fill61" x1="6053.5" x2="6053.5" y1="2356" y2="3025" gradientUnits="userSpaceOnUse" spreadMethod="reflect"><stop offset="0" stop-color="#F18C55"/><stop offset=".5" stop-color="#F67B28"/><stop offset="1" stop-color="#E56B17"/></linearGradient><clipPath id="clip62"><rect width="5174" height="2466" x="1055" y="562"/></clipPath><linearGradient id="fill63" x1="1323.5" x2="1323.5" y1="2802" y2="3025" gradientUnits="userSpaceOnUse" spreadMethod="reflect"><stop offset="0" stop-color="#AFAFAF"/><stop offset=".5" stop-color="#A5A5A5"/><stop offset="1" stop-color="#929292"/></linearGradient><clipPath id="clip64"><rect width="5174" height="2466" x="1055" y="562"/></clipPath><linearGradient id="fill65" x1="1667.5" x2="1667.5" y1="2912" y2="3025" gradientUnits="userSpaceOnUse" spreadMethod="reflect"><stop offset="0" stop-color="#AFAFAF"/><stop offset=".5" stop-color="#A5A5A5"/><stop offset="1" stop-color="#929292"/></linearGradient><clipPath id="clip66"><rect width="5174" height="2466" x="1055" y="562"/></clipPath><linearGradient id="fill67" x1="2012.5" x2="2012.5" y1="2933" y2="3025" gradientUnits="userSpaceOnUse" spreadMethod="reflect"><stop offset="0" stop-color="#AFAFAF"/><stop offset=".5" stop-color="#A5A5A5"/><stop offset="1" stop-color="#929292"/></linearGradient><clipPath id="clip68"><rect width="5174" height="2466" x="1055" y="562"/></clipPath><linearGradient id="fill69" x1="2357.5" x2="2357.5" y1="2939" y2="3025" gradientUnits="userSpaceOnUse" spreadMethod="reflect"><stop offset="0" stop-color="#AFAFAF"/><stop offset=".5" stop-color="#A5A5A5"/><stop offset="1" stop-color="#929292"/></linearGradient><clipPath id="clip70"><rect width="5174" height="2466" x="1055" y="562"/></clipPath><linearGradient id="fill71" x1="2702" x2="2702" y1="2936" y2="3025" gradientUnits="userSpaceOnUse" spreadMethod="reflect"><stop offset="0" stop-color="#AFAFAF"/><stop offset=".5" stop-color="#A5A5A5"/><stop offset="1" stop-color="#929292"/></linearGradient><clipPath id="clip72"><rect width="5174" height="2466" x="1055" y="562"/></clipPath><linearGradient id="fill73" x1="3046.5" x2="3046.5" y1="2580" y2="3025" gradientUnits="userSpaceOnUse" spreadMethod="reflect"><stop offset="0" stop-color="#AFAFAF"/><stop offset=".5" stop-color="#A5A5A5"/><stop offset="1" stop-color="#929292"/></linearGradient><clipPath id="clip74"><rect width="5174" height="2466" x="1055" y="562"/></clipPath><linearGradient id="fill75" x1="3391.5" x2="3391.5" y1="2801" y2="3025" gradientUnits="userSpaceOnUse" spreadMethod="reflect"><stop offset="0" stop-color="#AFAFAF"/><stop offset=".5" stop-color="#A5A5A5"/><stop offset="1" stop-color="#929292"/></linearGradient><clipPath id="clip76"><rect width="5174" height="2466" x="1055" y="562"/></clipPath><linearGradient id="fill77" x1="3736.5" x2="3736.5" y1="2839" y2="3025" gradientUnits="userSpaceOnUse" spreadMethod="reflect"><stop offset="0" stop-color="#AFAFAF"/><stop offset=".5" stop-color="#A5A5A5"/><stop offset="1" stop-color="#929292"/></linearGradient><clipPath id="clip78"><rect width="5174" height="2466" x="1055" y="562"/></clipPath><linearGradient id="fill79" x1="4080.5" x2="4080.5" y1="2843" y2="3025" gradientUnits="userSpaceOnUse" spreadMethod="reflect"><stop offset="0" stop-color="#AFAFAF"/><stop offset=".5" stop-color="#A5A5A5"/><stop offset="1" stop-color="#929292"/></linearGradient><clipPath id="clip80"><rect width="5174" height="2466" x="1055" y="562"/></clipPath><linearGradient id="fill81" x1="4425.5" x2="4425.5" y1="2833" y2="3025" gradientUnits="userSpaceOnUse" spreadMethod="reflect"><stop offset="0" stop-color="#AFAFAF"/><stop offset=".5" stop-color="#A5A5A5"/><stop offset="1" stop-color="#929292"/></linearGradient><clipPath id="clip82"><rect width="5174" height="2466" x="1055" y="562"/></clipPath><linearGradient id="fill83" x1="4770.5" x2="4770.5" y1="1097" y2="3025" gradientUnits="userSpaceOnUse" spreadMethod="reflect"><stop offset="0" stop-color="#AFAFAF"/><stop offset=".5" stop-color="#A5A5A5"/><stop offset="1" stop-color="#929292"/></linearGradient><clipPath id="clip84"><rect width="5174" height="2466" x="1055" y="562"/></clipPath><linearGradient id="fill85" x1="5115.5" x2="5115.5" y1="2289" y2="3025" gradientUnits="userSpaceOnUse" spreadMethod="reflect"><stop offset="0" stop-color="#AFAFAF"/><stop offset=".5" stop-color="#A5A5A5"/><stop offset="1" stop-color="#929292"/></linearGradient><clipPath id="clip86"><rect width="5174" height="2466" x="1055" y="562"/></clipPath><linearGradient id="fill87" x1="5459.5" x2="5459.5" y1="2426" y2="3025" gradientUnits="userSpaceOnUse" spreadMethod="reflect"><stop offset="0" stop-color="#AFAFAF"/><stop offset=".5" stop-color="#A5A5A5"/><stop offset="1" stop-color="#929292"/></linearGradient><clipPath id="clip88"><rect width="5174" height="2466" x="1055" y="562"/></clipPath><linearGradient id="fill89" x1="5804.5" x2="5804.5" y1="2426" y2="3025" gradientUnits="userSpaceOnUse" spreadMethod="reflect"><stop offset="0" stop-color="#AFAFAF"/><stop offset=".5" stop-color="#A5A5A5"/><stop offset="1" stop-color="#929292"/></linearGradient><clipPath id="clip90"><rect width="5174" height="2466" x="1055" y="562"/></clipPath><linearGradient id="fill91" x1="6149.5" x2="6149.5" y1="2349" y2="3025" gradientUnits="userSpaceOnUse" spreadMethod="reflect"><stop offset="0" stop-color="#AFAFAF"/><stop offset=".5" stop-color="#A5A5A5"/><stop offset="1" stop-color="#929292"/></linearGradient><clipPath id="clip92"><rect width="5464" height="3202" x="812" y="97"/></clipPath><clipPath id="clip93"><rect width="5464" height="3202" x="812" y="97"/></clipPath><clipPath id="clip94"><rect width="5464" height="3202" x="812" y="97"/></clipPath><clipPath id="clip95"><rect width="5464" height="3202" x="812" y="97"/></clipPath><clipPath id="clip96"><rect width="5464" height="3202" x="812" y="97"/></clipPath><clipPath id="clip97"><rect width="5464" height="3202" x="812" y="97"/></clipPath><clipPath id="clip98"><rect width="5464" height="3202" x="812" y="97"/></clipPath><clipPath id="clip99"><rect width="5464" height="3202" x="812" y="97"/></clipPath><clipPath id="clip100"><rect width="5464" height="3202" x="812" y="97"/></clipPath><clipPath id="clip101"><rect width="5464" height="3202" x="812" y="97"/></clipPath><clipPath id="clip102"><rect width="5464" height="3202" x="812" y="97"/></clipPath><clipPath id="clip103"><rect width="5464" height="3202" x="812" y="97"/></clipPath><clipPath id="clip104"><rect width="5464" height="3202" x="812" y="97"/></clipPath><clipPath id="clip105"><rect width="5464" height="3202" x="812" y="97"/></clipPath><clipPath id="clip106"><rect width="5464" height="3202" x="812" y="97"/></clipPath><clipPath id="clip107"><rect width="5464" height="3202" x="812" y="97"/></clipPath><clipPath id="clip108"><rect width="5464" height="3202" x="812" y="97"/></clipPath><clipPath id="clip109"><rect width="5464" height="3202" x="812" y="97"/></clipPath><clipPath id="clip110"><rect width="5464" height="3202" x="812" y="97"/></clipPath><clipPath id="clip111"><rect width="5464" height="3202" x="812" y="97"/></clipPath><clipPath id="clip112"><rect width="5464" height="3202" x="812" y="97"/></clipPath><clipPath id="clip113"><rect width="5464" height="3202" x="812" y="97"/></clipPath><clipPath id="clip114"><rect width="5464" height="3202" x="812" y="97"/></clipPath><clipPath id="clip115"><rect width="5464" height="3202" x="812" y="97"/></clipPath><clipPath id="clip116"><rect width="5464" height="3202" x="812" y="97"/></clipPath><clipPath id="clip117"><rect width="5464" height="3202" x="812" y="97"/></clipPath><clipPath id="clip118"><rect width="5464" height="3202" x="812" y="97"/></clipPath><clipPath id="clip119"><rect width="5464" height="3202" x="812" y="97"/></clipPath><clipPath id="clip120"><rect width="5464" height="3202" x="812" y="97"/></clipPath><clipPath id="clip121"><rect width="5464" height="3202" x="812" y="97"/></clipPath><clipPath id="clip122"><rect width="5464" height="3202" x="812" y="97"/></clipPath><clipPath id="clip123"><rect width="5464" height="3202" x="812" y="97"/></clipPath><clipPath id="clip124"><rect width="5464" height="3202" x="812" y="97"/></clipPath><clipPath id="clip125"><rect width="5464" height="3202" x="812" y="97"/></clipPath><clipPath id="clip126"><rect width="5464" height="3202" x="812" y="97"/></clipPath><clipPath id="clip127"><rect width="5464" height="3202" x="812" y="97"/></clipPath><clipPath id="clip128"><rect width="5464" height="3202" x="812" y="97"/></clipPath><clipPath id="clip129"><rect width="5464" height="3202" x="812" y="97"/></clipPath><clipPath id="clip130"><rect width="5464" height="3202" x="812" y="97"/></clipPath><clipPath id="clip131"><rect width="5464" height="3202" x="812" y="97"/></clipPath><clipPath id="clip132"><rect width="5464" height="3202" x="812" y="97"/></clipPath><clipPath id="clip133"><rect width="5464" height="3202" x="812" y="97"/></clipPath><clipPath id="clip134"><rect width="5464" height="3202" x="812" y="97"/></clipPath><clipPath id="clip135"><rect width="5464" height="3202" x="812" y="97"/></clipPath><clipPath id="clip136"><rect width="5464" height="3202" x="812" y="97"/></clipPath><clipPath id="clip137"><rect width="5464" height="3202" x="812" y="97"/></clipPath><clipPath id="clip138"><rect width="5464" height="3202" x="812" y="97"/></clipPath><clipPath id="clip139"><rect width="5464" height="3202" x="812" y="97"/></clipPath><clipPath id="clip140"><rect width="5464" height="3202" x="812" y="97"/></clipPath><clipPath id="clip141"><rect width="5464" height="3202" x="812" y="97"/></clipPath><clipPath id="clip142"><rect width="5464" height="3202" x="812" y="97"/></clipPath><clipPath id="clip143"><rect width="5464" height="3202" x="812" y="97"/></clipPath><clipPath id="clip144"><rect width="5464" height="3202" x="812" y="97"/></clipPath><clipPath id="clip145"><rect width="5464" height="3202" x="812" y="97"/></clipPath><clipPath id="clip146"><rect width="5464" height="3202" x="812" y="97"/></clipPath><clipPath id="clip147"><rect width="5464" height="3202" x="812" y="97"/></clipPath><clipPath id="clip148"><rect width="5464" height="3202" x="812" y="97"/></clipPath><clipPath id="clip149"><rect width="5464" height="3202" x="812" y="97"/></clipPath><clipPath id="clip150"><rect width="5464" height="3202" x="812" y="97"/></clipPath><clipPath id="clip151"><rect width="5464" height="3202" x="812" y="97"/></clipPath><clipPath id="clip152"><rect width="5464" height="3202" x="812" y="97"/></clipPath><clipPath id="clip153"><rect width="5464" height="3202" x="812" y="97"/></clipPath><clipPath id="clip154"><rect width="5464" height="3202" x="812" y="97"/></clipPath><clipPath id="clip155"><rect width="5464" height="3202" x="812" y="97"/></clipPath><clipPath id="clip156"><rect width="5464" height="3202" x="812" y="97"/></clipPath><clipPath id="clip157"><rect width="5464" height="3202" x="812" y="97"/></clipPath><clipPath id="clip158"><rect width="5464" height="3202" x="812" y="97"/></clipPath><clipPath id="clip159"><rect width="5464" height="3202" x="812" y="97"/></clipPath><clipPath id="clip160"><rect width="5464" height="3202" x="812" y="97"/></clipPath><clipPath id="clip161"><rect width="5464" height="3202" x="812" y="97"/></clipPath><clipPath id="clip162"><rect width="5464" height="3202" x="812" y="97"/></clipPath><clipPath id="clip163"><rect width="5464" height="3202" x="812" y="97"/></clipPath><clipPath id="clip164"><rect width="5464" height="3202" x="812" y="97"/></clipPath><clipPath id="clip165"><rect width="5464" height="3202" x="812" y="97"/></clipPath><clipPath id="clip166"><rect width="5464" height="3202" x="812" y="97"/></clipPath><clipPath id="clip167"><rect width="5464" height="3202" x="812" y="97"/></clipPath><clipPath id="clip168"><rect width="5464" height="3202" x="812" y="97"/></clipPath><clipPath id="clip169"><rect width="5464" height="3202" x="812" y="97"/></clipPath><clipPath id="clip170"><rect width="5464" height="3202" x="812" y="97"/></clipPath><clipPath id="clip171"><rect width="5464" height="3202" x="812" y="97"/></clipPath><linearGradient id="fill172" x1="3297.5" x2="3297.5" y1="462" y2="485" gradientUnits="userSpaceOnUse" spreadMethod="reflect"><stop offset="0" stop-color="#6083CB"/><stop offset=".5" stop-color="#3E70CA"/><stop offset="1" stop-color="#2E61BA"/></linearGradient><clipPath id="clip173"><rect width="5464" height="3202" x="812" y="97"/></clipPath><clipPath id="clip174"><rect width="5464" height="3202" x="812" y="97"/></clipPath><linearGradient id="fill175" x1="3445" x2="3445" y1="462" y2="485" gradientUnits="userSpaceOnUse" spreadMethod="reflect"><stop offset="0" stop-color="#F18C55"/><stop offset=".5" stop-color="#F67B28"/><stop offset="1" stop-color="#E56B17"/></linearGradient><clipPath id="clip176"><rect width="5464" height="3202" x="812" y="97"/></clipPath><clipPath id="clip177"><rect width="5464" height="3202" x="812" y="97"/></clipPath><linearGradient id="fill178" x1="3656.5" x2="3656.5" y1="462" y2="485" gradientUnits="userSpaceOnUse" spreadMethod="reflect"><stop offset="0" stop-color="#AFAFAF"/><stop offset=".5" stop-color="#A5A5A5"/><stop offset="1" stop-color="#929292"/></linearGradient><clipPath id="clip179"><rect width="5464" height="3202" x="812" y="97"/></clipPath></defs><g clip-path="url(#clip0)" transform="translate(-811 -96)"><rect width="5465" height="3202" x="812" y="97" fill="#FFF"/><g clip-path="url(#clip1)"><path fill="none" stroke="#E0E5EB" stroke-linejoin="round" stroke-miterlimit="10" stroke-width="3.438" d="M1055.5 2532.58 6226.5 2532.58M1055.5 2039.57 6226.5 2039.57M1055.5 1547.55 6226.5 1547.55M1055.5 1054.53 6226.5 1054.53M1055.5 562.5 6226.5 562.5"/></g><g clip-path="url(#clip2)"><rect width="77" height="225" x="1094" y="2800" fill="url(#fill3)"/></g><g clip-path="url(#clip4)"><rect width="76" height="117" x="1439" y="2908" fill="url(#fill5)"/></g><g clip-path="url(#clip6)"><rect width="77" height="94" x="1783" y="2931" fill="url(#fill7)"/></g><g clip-path="url(#clip8)"><rect width="77" height="88" x="2128" y="2937" fill="url(#fill9)"/></g><g clip-path="url(#clip10)"><rect width="77" height="91" x="2473" y="2934" fill="url(#fill11)"/></g><g clip-path="url(#clip12)"><rect width="77" height="448" x="2817" y="2577" fill="url(#fill13)"/></g><g clip-path="url(#clip14)"><rect width="77" height="231" x="3162" y="2794" fill="url(#fill15)"/></g><g clip-path="url(#clip16)"><rect width="77" height="191" x="3507" y="2834" fill="url(#fill17)"/></g><g clip-path="url(#clip18)"><rect width="77" height="184" x="3852" y="2841" fill="url(#fill19)"/></g><g clip-path="url(#clip20)"><rect width="77" height="193" x="4196" y="2832" fill="url(#fill21)"/></g><g clip-path="url(#clip22)"><rect width="77" height="1926" x="4541" y="1099" fill="url(#fill23)"/></g><g clip-path="url(#clip24)"><rect width="77" height="740" x="4886" y="2285" fill="url(#fill25)"/></g><g clip-path="url(#clip26)"><rect width="77" height="608" x="5230" y="2417" fill="url(#fill27)"/></g><g clip-path="url(#clip28)"><rect width="77" height="603" x="5575" y="2422" fill="url(#fill29)"/></g><g clip-path="url(#clip30)"><rect width="77" height="678" x="5920" y="2347" fill="url(#fill31)"/></g><g clip-path="url(#clip32)"><rect width="77" height="235" x="1189" y="2790" fill="url(#fill33)"/></g><g clip-path="url(#clip34)"><rect width="77" height="116" x="1534" y="2909" fill="url(#fill35)"/></g><g clip-path="url(#clip36)"><rect width="77" height="94" x="1879" y="2931" fill="url(#fill37)"/></g><g clip-path="url(#clip38)"><rect width="77" height="87" x="2223" y="2938" fill="url(#fill39)"/></g><g clip-path="url(#clip40)"><rect width="77" height="92" x="2568" y="2933" fill="url(#fill41)"/></g><g clip-path="url(#clip42)"><rect width="77" height="482" x="2913" y="2543" fill="url(#fill43)"/></g><g clip-path="url(#clip44)"><rect width="76" height="227" x="3258" y="2798" fill="url(#fill45)"/></g><g clip-path="url(#clip46)"><rect width="77" height="188" x="3602" y="2837" fill="url(#fill47)"/></g><g clip-path="url(#clip48)"><rect width="77" height="182" x="3947" y="2843" fill="url(#fill49)"/></g><g clip-path="url(#clip50)"><rect width="77" height="193" x="4292" y="2832" fill="url(#fill51)"/></g><g clip-path="url(#clip52)"><rect width="77" height="1978" x="4636" y="1047" fill="url(#fill53)"/></g><g clip-path="url(#clip54)"><rect width="77" height="737" x="4981" y="2288" fill="url(#fill55)"/></g><g clip-path="url(#clip56)"><rect width="77" height="600" x="5326" y="2425" fill="url(#fill57)"/></g><g clip-path="url(#clip58)"><rect width="77" height="587" x="5671" y="2438" fill="url(#fill59)"/></g><g clip-path="url(#clip60)"><rect width="77" height="669" x="6015" y="2356" fill="url(#fill61)"/></g><g clip-path="url(#clip62)"><rect width="77" height="223" x="1285" y="2802" fill="url(#fill63)"/></g><g clip-path="url(#clip64)"><rect width="77" height="113" x="1629" y="2912" fill="url(#fill65)"/></g><g clip-path="url(#clip66)"><rect width="77" height="92" x="1974" y="2933" fill="url(#fill67)"/></g><g clip-path="url(#clip68)"><rect width="77" height="86" x="2319" y="2939" fill="url(#fill69)"/></g><g clip-path="url(#clip70)"><rect width="76" height="89" x="2664" y="2936" fill="url(#fill71)"/></g><g clip-path="url(#clip72)"><rect width="77" height="445" x="3008" y="2580" fill="url(#fill73)"/></g><g clip-path="url(#clip74)"><rect width="77" height="224" x="3353" y="2801" fill="url(#fill75)"/></g><g clip-path="url(#clip76)"><rect width="77" height="186" x="3698" y="2839" fill="url(#fill77)"/></g><g clip-path="url(#clip78)"><rect width="77" height="182" x="4042" y="2843" fill="url(#fill79)"/></g><g clip-path="url(#clip80)"><rect width="77" height="192" x="4387" y="2833" fill="url(#fill81)"/></g><g clip-path="url(#clip82)"><rect width="77" height="1928" x="4732" y="1097" fill="url(#fill83)"/></g><g clip-path="url(#clip84)"><rect width="77" height="736" x="5077" y="2289" fill="url(#fill85)"/></g><g clip-path="url(#clip86)"><rect width="77" height="599" x="5421" y="2426" fill="url(#fill87)"/></g><g clip-path="url(#clip88)"><rect width="77" height="599" x="5766" y="2426" fill="url(#fill89)"/></g><g clip-path="url(#clip90)"><rect width="77" height="676" x="6111" y="2349" fill="url(#fill91)"/></g><g clip-path="url(#clip92)"><path fill="none" fill-rule="evenodd" stroke="#E0E5EB" stroke-linejoin="round" stroke-miterlimit="10" stroke-width="3.438" d="M1055.5 3024.5 6226.5 3024.5"/></g><g clip-path="url(#clip93)"><path fill="none" stroke="#E0E5EB" stroke-linejoin="round" stroke-miterlimit="10" stroke-width="3.438" d="M1055.5 3024.5 1055.5 3104.5M2778.59 3024.5 2778.59 3104.5M4502.65 3024.5 4502.65 3104.5M6226.5 3024.5 6226.5 3104.5"/></g><g clip-path="url(#clip94)"><path fill="none" stroke="#E0E5EB" stroke-linejoin="round" stroke-miterlimit="10" stroke-width="3.438" d="M1055.5 3104.5 1055.5 3184.5M2778.59 3104.5 2778.59 3184.5M4502.65 3104.5 4502.65 3184.5M6226.5 3104.5 6226.5 3184.5"/></g><g clip-path="url(#clip95)"><text fill="#44546A" font-family="Calibri,Calibri_MSFontService,sans-serif" font-size="41" font-weight="400" transform="matrix(1 0 0 1 1100.9 2768)">229</text></g><g clip-path="url(#clip96)"><text fill="#44546A" font-family="Calibri,Calibri_MSFontService,sans-serif" font-size="41" font-weight="400" transform="matrix(1 0 0 1 1445.62 2876)">119</text></g><g clip-path="url(#clip97)"><text fill="#44546A" font-family="Calibri,Calibri_MSFontService,sans-serif" font-size="41" font-weight="400" transform="matrix(1 0 0 1 1800.8 2899)">96</text></g><g clip-path="url(#clip98)"><text fill="#44546A" font-family="Calibri,Calibri_MSFontService,sans-serif" font-size="41" font-weight="400" transform="matrix(1 0 0 1 2145.53 2905)">89</text></g><g clip-path="url(#clip99)"><text fill="#44546A" font-family="Calibri,Calibri_MSFontService,sans-serif" font-size="41" font-weight="400" transform="matrix(1 0 0 1 2490.25 2902)">93</text></g><g clip-path="url(#clip100)"><text fill="#44546A" font-family="Calibri,Calibri_MSFontService,sans-serif" font-size="41" font-weight="400" transform="matrix(1 0 0 1 2824.53 2545)">455</text></g><g clip-path="url(#clip101)"><text fill="#44546A" font-family="Calibri,Calibri_MSFontService,sans-serif" font-size="41" font-weight="400" transform="matrix(1 0 0 1 3169.26 2762)">235</text></g><g clip-path="url(#clip102)"><text fill="#44546A" font-family="Calibri,Calibri_MSFontService,sans-serif" font-size="41" font-weight="400" transform="matrix(1 0 0 1 3513.98 2802)">194</text></g><g clip-path="url(#clip103)"><text fill="#44546A" font-family="Calibri,Calibri_MSFontService,sans-serif" font-size="41" font-weight="400" transform="matrix(1 0 0 1 3858.71 2809)">186</text></g><g clip-path="url(#clip104)"><text fill="#44546A" font-family="Calibri,Calibri_MSFontService,sans-serif" font-size="41" font-weight="400" transform="matrix(1 0 0 1 4203.43 2800)">196</text></g><g clip-path="url(#clip105)"><text fill="#44546A" font-family="Calibri,Calibri_MSFontService,sans-serif" font-size="41" font-weight="400" transform="matrix(1 0 0 1 4537.71 1067)">1955</text></g><g clip-path="url(#clip106)"><text fill="#44546A" font-family="Calibri,Calibri_MSFontService,sans-serif" font-size="41" font-weight="400" transform="matrix(1 0 0 1 4892.89 2253)">752</text></g><g clip-path="url(#clip107)"><text fill="#44546A" font-family="Calibri,Calibri_MSFontService,sans-serif" font-size="41" font-weight="400" transform="matrix(1 0 0 1 5237.61 2385)">617</text></g><g clip-path="url(#clip108)"><text fill="#44546A" font-family="Calibri,Calibri_MSFontService,sans-serif" font-size="41" font-weight="400" transform="matrix(1 0 0 1 5582.34 2390)">612</text></g><g clip-path="url(#clip109)"><text fill="#44546A" font-family="Calibri,Calibri_MSFontService,sans-serif" font-size="41" font-weight="400" transform="matrix(1 0 0 1 5927.06 2315)">688</text></g><g clip-path="url(#clip110)"><text fill="#44546A" font-family="Calibri,Calibri_MSFontService,sans-serif" font-size="41" font-weight="400" transform="matrix(1 0 0 1 1196.31 2758)">239</text></g><g clip-path="url(#clip111)"><text fill="#44546A" font-family="Calibri,Calibri_MSFontService,sans-serif" font-size="41" font-weight="400" transform="matrix(1 0 0 1 1541.04 2877)">118</text></g><g clip-path="url(#clip112)"><text fill="#44546A" font-family="Calibri,Calibri_MSFontService,sans-serif" font-size="41" font-weight="400" transform="matrix(1 0 0 1 1896.22 2899)">95</text></g><g clip-path="url(#clip113)"><text fill="#44546A" font-family="Calibri,Calibri_MSFontService,sans-serif" font-size="41" font-weight="400" transform="matrix(1 0 0 1 2240.94 2906)">89</text></g><g clip-path="url(#clip114)"><text fill="#44546A" font-family="Calibri,Calibri_MSFontService,sans-serif" font-size="41" font-weight="400" transform="matrix(1 0 0 1 2585.67 2901)">94</text></g><g clip-path="url(#clip115)"><text fill="#44546A" font-family="Calibri,Calibri_MSFontService,sans-serif" font-size="41" font-weight="400" transform="matrix(1 0 0 1 2919.94 2511)">489</text></g><g clip-path="url(#clip116)"><text fill="#44546A" font-family="Calibri,Calibri_MSFontService,sans-serif" font-size="41" font-weight="400" transform="matrix(1 0 0 1 3264.67 2766)">230</text></g><g clip-path="url(#clip117)"><text fill="#44546A" font-family="Calibri,Calibri_MSFontService,sans-serif" font-size="41" font-weight="400" transform="matrix(1 0 0 1 3609.4 2805)">191</text></g><g clip-path="url(#clip118)"><text fill="#44546A" font-family="Calibri,Calibri_MSFontService,sans-serif" font-size="41" font-weight="400" transform="matrix(1 0 0 1 3954.12 2811)">185</text></g><g clip-path="url(#clip119)"><text fill="#44546A" font-family="Calibri,Calibri_MSFontService,sans-serif" font-size="41" font-weight="400" transform="matrix(1 0 0 1 4298.85 2800)">196</text></g><g clip-path="url(#clip120)"><text fill="#44546A" font-family="Calibri,Calibri_MSFontService,sans-serif" font-size="41" font-weight="400" transform="matrix(1 0 0 1 4633.12 1015)">2008</text></g><g clip-path="url(#clip121)"><text fill="#44546A" font-family="Calibri,Calibri_MSFontService,sans-serif" font-size="41" font-weight="400" transform="matrix(1 0 0 1 4988.3 2256)">748</text></g><g clip-path="url(#clip122)"><text fill="#44546A" font-family="Calibri,Calibri_MSFontService,sans-serif" font-size="41" font-weight="400" transform="matrix(1 0 0 1 5333.03 2393)">609</text></g><g clip-path="url(#clip123)"><text fill="#44546A" font-family="Calibri,Calibri_MSFontService,sans-serif" font-size="41" font-weight="400" transform="matrix(1 0 0 1 5677.75 2406)">596</text></g><g clip-path="url(#clip124)"><text fill="#44546A" font-family="Calibri,Calibri_MSFontService,sans-serif" font-size="41" font-weight="400" transform="matrix(1 0 0 1 6022.48 2324)">679</text></g><g clip-path="url(#clip125)"><text fill="#44546A" font-family="Calibri,Calibri_MSFontService,sans-serif" font-size="41" font-weight="400" transform="matrix(1 0 0 1 1291.73 2770)">227</text></g><g clip-path="url(#clip126)"><text fill="#44546A" font-family="Calibri,Calibri_MSFontService,sans-serif" font-size="41" font-weight="400" transform="matrix(1 0 0 1 1636.45 2880)">114</text></g><g clip-path="url(#clip127)"><text fill="#44546A" font-family="Calibri,Calibri_MSFontService,sans-serif" font-size="41" font-weight="400" transform="matrix(1 0 0 1 1991.63 2901)">93</text></g><g clip-path="url(#clip128)"><text fill="#44546A" font-family="Calibri,Calibri_MSFontService,sans-serif" font-size="41" font-weight="400" transform="matrix(1 0 0 1 2336.36 2907)">87</text></g><g clip-path="url(#clip129)"><text fill="#44546A" font-family="Calibri,Calibri_MSFontService,sans-serif" font-size="41" font-weight="400" transform="matrix(1 0 0 1 2681.08 2904)">91</text></g><g clip-path="url(#clip130)"><text fill="#44546A" font-family="Calibri,Calibri_MSFontService,sans-serif" font-size="41" font-weight="400" transform="matrix(1 0 0 1 3015.36 2548)">452</text></g><g clip-path="url(#clip131)"><text fill="#44546A" font-family="Calibri,Calibri_MSFontService,sans-serif" font-size="41" font-weight="400" transform="matrix(1 0 0 1 3360.09 2769)">227</text></g><g clip-path="url(#clip132)"><text fill="#44546A" font-family="Calibri,Calibri_MSFontService,sans-serif" font-size="41" font-weight="400" transform="matrix(1 0 0 1 3704.81 2807)">189</text></g><g clip-path="url(#clip133)"><text fill="#44546A" font-family="Calibri,Calibri_MSFontService,sans-serif" font-size="41" font-weight="400" transform="matrix(1 0 0 1 4049.54 2811)">185</text></g><g clip-path="url(#clip134)"><text fill="#44546A" font-family="Calibri,Calibri_MSFontService,sans-serif" font-size="41" font-weight="400" transform="matrix(1 0 0 1 4394.26 2801)">194</text></g><g clip-path="url(#clip135)"><text fill="#44546A" font-family="Calibri,Calibri_MSFontService,sans-serif" font-size="41" font-weight="400" transform="matrix(1 0 0 1 4728.54 1065)">1958</text></g><g clip-path="url(#clip136)"><text fill="#44546A" font-family="Calibri,Calibri_MSFontService,sans-serif" font-size="41" font-weight="400" transform="matrix(1 0 0 1 5083.72 2257)">747</text></g><g clip-path="url(#clip137)"><text fill="#44546A" font-family="Calibri,Calibri_MSFontService,sans-serif" font-size="41" font-weight="400" transform="matrix(1 0 0 1 5428.44 2394)">608</text></g><g clip-path="url(#clip138)"><text fill="#44546A" font-family="Calibri,Calibri_MSFontService,sans-serif" font-size="41" font-weight="400" transform="matrix(1 0 0 1 5773.17 2394)">608</text></g><g clip-path="url(#clip139)"><text fill="#44546A" font-family="Calibri,Calibri_MSFontService,sans-serif" font-size="41" font-weight="400" transform="matrix(1 0 0 1 6117.9 2317)">686</text></g><g clip-path="url(#clip140)"><text fill="#44546A" font-family="Calibri,Calibri_MSFontService,sans-serif" font-size="41" font-weight="400" transform="matrix(1 0 0 1 996.133 3036)">0</text></g><g clip-path="url(#clip141)"><text fill="#44546A" font-family="Calibri,Calibri_MSFontService,sans-serif" font-size="41" font-weight="400" transform="matrix(1 0 0 1 954.333 2544)">500</text></g><g clip-path="url(#clip142)"><text fill="#44546A" font-family="Calibri,Calibri_MSFontService,sans-serif" font-size="41" font-weight="400" transform="matrix(1 0 0 1 933.433 2051)">1000</text></g><g clip-path="url(#clip143)"><text fill="#44546A" font-family="Calibri,Calibri_MSFontService,sans-serif" font-size="41" font-weight="400" transform="matrix(1 0 0 1 933.433 1559)">1500</text></g><g clip-path="url(#clip144)"><text fill="#44546A" font-family="Calibri,Calibri_MSFontService,sans-serif" font-size="41" font-weight="400" transform="matrix(1 0 0 1 933.433 1066)">2000</text></g><g clip-path="url(#clip145)"><text fill="#44546A" font-family="Calibri,Calibri_MSFontService,sans-serif" font-size="41" font-weight="400" transform="matrix(1 0 0 1 933.433 574)">2500</text></g><g clip-path="url(#clip146)"><text fill="#44546A" font-family="Calibri,Calibri_MSFontService,sans-serif" font-size="41" font-weight="400" transform="matrix(1 0 0 1 1217.21 3090)">1</text></g><g clip-path="url(#clip147)"><text fill="#44546A" font-family="Calibri,Calibri_MSFontService,sans-serif" font-size="41" font-weight="400" transform="matrix(1 0 0 1 1561.94 3090)">4</text></g><g clip-path="url(#clip148)"><text fill="#44546A" font-family="Calibri,Calibri_MSFontService,sans-serif" font-size="41" font-weight="400" transform="matrix(1 0 0 1 1896.22 3090)">16</text></g><g clip-path="url(#clip149)"><text fill="#44546A" font-family="Calibri,Calibri_MSFontService,sans-serif" font-size="41" font-weight="400" transform="matrix(1 0 0 1 2240.94 3090)">40</text></g><g clip-path="url(#clip150)"><text fill="#44546A" font-family="Calibri,Calibri_MSFontService,sans-serif" font-size="41" font-weight="400" transform="matrix(1 0 0 1 2585.67 3090)">80</text></g><g clip-path="url(#clip151)"><text fill="#44546A" font-family="Calibri,Calibri_MSFontService,sans-serif" font-size="41" font-weight="400" transform="matrix(1 0 0 1 2940.84 3090)">1</text></g><g clip-path="url(#clip152)"><text fill="#44546A" font-family="Calibri,Calibri_MSFontService,sans-serif" font-size="41" font-weight="400" transform="matrix(1 0 0 1 3285.57 3090)">4</text></g><g clip-path="url(#clip153)"><text fill="#44546A" font-family="Calibri,Calibri_MSFontService,sans-serif" font-size="41" font-weight="400" transform="matrix(1 0 0 1 3619.85 3090)">16</text></g><g clip-path="url(#clip154)"><text fill="#44546A" font-family="Calibri,Calibri_MSFontService,sans-serif" font-size="41" font-weight="400" transform="matrix(1 0 0 1 3964.57 3090)">40</text></g><g clip-path="url(#clip155)"><text fill="#44546A" font-family="Calibri,Calibri_MSFontService,sans-serif" font-size="41" font-weight="400" transform="matrix(1 0 0 1 4309.3 3090)">80</text></g><g clip-path="url(#clip156)"><text fill="#44546A" font-family="Calibri,Calibri_MSFontService,sans-serif" font-size="41" font-weight="400" transform="matrix(1 0 0 1 4664.48 3090)">1</text></g><g clip-path="url(#clip157)"><text fill="#44546A" font-family="Calibri,Calibri_MSFontService,sans-serif" font-size="41" font-weight="400" transform="matrix(1 0 0 1 5009.2 3090)">4</text></g><g clip-path="url(#clip158)"><text fill="#44546A" font-family="Calibri,Calibri_MSFontService,sans-serif" font-size="41" font-weight="400" transform="matrix(1 0 0 1 5343.48 3090)">16</text></g><g clip-path="url(#clip159)"><text fill="#44546A" font-family="Calibri,Calibri_MSFontService,sans-serif" font-size="41" font-weight="400" transform="matrix(1 0 0 1 5688.2 3090)">40</text></g><g clip-path="url(#clip160)"><text fill="#44546A" font-family="Calibri,Calibri_MSFontService,sans-serif" font-size="41" font-weight="400" transform="matrix(1 0 0 1 6032.93 3090)">80</text></g><g clip-path="url(#clip161)"><text fill="#44546A" font-family="Calibri,Calibri_MSFontService,sans-serif" font-size="41" font-weight="400" transform="matrix(1 0 0 1 1896.22 3170)">32</text></g><g clip-path="url(#clip162)"><text fill="#44546A" font-family="Calibri,Calibri_MSFontService,sans-serif" font-size="41" font-weight="400" transform="matrix(1 0 0 1 3609.4 3170)">128</text></g><g clip-path="url(#clip163)"><text fill="#44546A" font-family="Calibri,Calibri_MSFontService,sans-serif" font-size="41" font-weight="400" transform="matrix(1 0 0 1 5333.03 3170)">512</text></g><g clip-path="url(#clip164)"><text fill="#44546A" font-family="Calibri,Calibri_MSFontService,sans-serif" font-size="41" font-weight="700" transform="matrix(6.12323e-17 -1 1 6.12323e-17 908.339 1902)">Latency (ms)</text></g><g clip-path="url(#clip165)"><text fill="#44546A" font-family="Calibri,Calibri_MSFontService,sans-serif" font-size="41" font-weight="700" transform="matrix(1 0 0 1 3499.85 3231)">Sequence Length</text></g><g clip-path="url(#clip166)"><text fill="#44546A" font-family="Calibri,Calibri_MSFontService,sans-serif" font-size="73" font-weight="700" transform="matrix(1 0 0 1 2911.96 202)">Intel Ice lake Xeon 8380</text></g><g clip-path="url(#clip167)"><text fill="#44546A" font-family="Calibri,Calibri_MSFontService,sans-serif" font-size="73" font-weight="700" transform="matrix(1 0 0 1 3647.31 202)">-</text></g><g clip-path="url(#clip168)"><text fill="#44546A" font-family="Calibri,Calibri_MSFontService,sans-serif" font-size="73" font-weight="700" transform="matrix(1 0 0 1 3686.34 202)">Intel Tensorflow</text></g><g clip-path="url(#clip169)"><text fill="#44546A" font-family="Calibri,Calibri_MSFontService,sans-serif" font-size="73" font-weight="700" transform="matrix(1 0 0 1 1785.59 291)">Latency Benchmark with varying number of CPU cores involved in the computation and different memory allocators</text></g><g clip-path="url(#clip170)"><text fill="#44546A" font-family="Calibri,Calibri_MSFontService,sans-serif" font-size="73" font-weight="700" transform="matrix(1 0 0 1 2451.87 381)">(some data might be missing indicating benchmark crashed during runs)</text></g><g clip-path="url(#clip171)"><rect width="23" height="23" x="3286" y="462" fill="url(#fill172)"/></g><g clip-path="url(#clip173)"><text fill="#44546A" font-family="Calibri,Calibri_MSFontService,sans-serif" font-size="41" font-weight="400" transform="matrix(1 0 0 1 3318.16 485)">glibc</text></g><g clip-path="url(#clip174)"><rect width="22" height="23" x="3434" y="462" fill="url(#fill175)"/></g><g clip-path="url(#clip176)"><text fill="#44546A" font-family="Calibri,Calibri_MSFontService,sans-serif" font-size="41" font-weight="400" transform="matrix(1 0 0 1 3465.77 485)">jemalloc</text></g><g clip-path="url(#clip177)"><rect width="23" height="23" x="3645" y="462" fill="url(#fill178)"/></g><g clip-path="url(#clip179)"><text fill="#44546A" font-family="Calibri,Calibri_MSFontService,sans-serif" font-size="41" font-weight="400" transform="matrix(1 0 0 1 3677.16 485)">tcmalloc</text></g><rect width="5465" height="3202" x="812.5" y="97.5" fill="none" stroke="#E0E5EB" stroke-linejoin="round" stroke-miterlimit="10" stroke-width="3.438"/></g></svg>