<svg xmlns="http://www.w3.org/2000/svg" xmlns:svg="http://www.w3.org/2000/svg" id="svg25" width="709.4" height="1401.4" version="1.1" viewBox="0 0 709.4 1401.4"><defs id="defs1"><marker id="arrow" markerHeight="10" markerUnits="strokeWidth" markerWidth="10" orient="auto" refX="8" refY="3"><path id="path1" fill="#1e1e1e" d="M 0,0 V 6 L 9,3 Z"/></marker><style id="style1">.box,.zone{stroke-width:1.4}.zone{fill:#fff9db;stroke:#8d7b00}.box{fill:#f4f0ff;stroke:#5f3dc4;rx:8}.text{font-family:system-ui,-apple-system,BlinkMacSystemFont,&quot;Segoe UI&quot;,sans-serif;font-size:18px;fill:#1e1e1e;text-anchor:middle;dominant-baseline:middle}.small{font-size:16px}.label{fill:#eee;opacity:.9}.arrow{stroke:#1e1e1e;stroke-width:1.5;fill:none;marker-end:url(#arrow)}.dash{stroke-dasharray:5 5}</style></defs><g id="g25" transform="translate(4.0000122,4.0000366)"><rect id="rect1" width="260" height="120" x="220.7" y=".7" class="zone" rx="4" ry="4"/><text style="text-anchor:start" id="text1" x="236.7" y="18.7" class="text small">Source</text><rect id="rect2" width="150" height="56" x="275.7" y="42.7" class="box" rx="8" ry="8"/><text id="text2" x="350.7" y="70.7" class="text">GitHub</text><rect id="rect3" width="700" height="1020.932" x=".7" y="189.905" class="zone" rx="4" ry="4"/><text style="text-anchor:start" id="text3" x="16.7" y="208.7" class="text small">Local machine</text><rect id="rect4" width="150" height="56" x="275.7" y="220.7" class="box" rx="8" ry="8"/><text id="text4" x="350.7" y="248.7" class="text">gitcrawl</text><rect id="rect5" width="200" height="60" x="250.7" y="340.7" class="box" rx="8" ry="8"/><text id="text5" x="350.7" y="370.7" class="text">SQLite queue</text><rect id="rect6" width="250" height="62" x="225.7" y="465.7" class="box" rx="8" ry="8"/><text id="text6" x="350.7" y="496.7" class="text">Localpager worker</text><rect id="rect7" width="620" height="300" x="40.7" y="585.7" class="zone" rx="4" ry="4"/><text style="text-anchor:start" id="text7" x="56.7" y="603.7" class="text small">localpager-agent</text><rect id="rect8" width="160" height="58" x="60.7" y="665.7" class="box" rx="8" ry="8"/><text id="text8" x="140.7" y="694.7" class="text">Gemma 4 E4B</text><rect id="rect9" width="160" height="58" x="270.7" y="665.7" class="box" rx="8" ry="8"/><text id="text9" x="350.7" y="694.7" class="text">Pi harness</text><rect id="rect10" width="150" height="58" x="480.7" y="665.7" class="box" rx="8" ry="8"/><text id="text10" x="555.7" y="694.7" class="text">reposhell</text><rect id="rect11" width="150" height="58" x="275.7" y="800.7" class="box" rx="8" ry="8"/><text id="text11" x="350.7" y="829.7" class="text">final_json</text><rect id="rect12" width="200" height="60" x="250.7" y="945.7" class="box" rx="8" ry="8"/><text id="text12" x="350.7" y="975.7" class="text">SQLite results</text><polygon id="polygon12" points="440 1190 525 1255 440 1320 355 1255" class="box" transform="translate(-89.3,-119.3)"/><text id="text13" x="350.7" y="1127.7" class="text"><tspan id="tspan2" x="350.7" y="1127.7">Match topic</tspan><tspan id="tspan3" x="350.7" y="1150.2">of interest?</tspan></text><rect id="rect13" width="260" height="120" x="220.7" y="1272.7" class="zone" rx="4" ry="4"/><text style="text-anchor:start" id="text14" x="236.7" y="1290.7" class="text small">Destination</text><rect id="rect14" width="150" height="56" x="275.7" y="1314.7" class="box" rx="8" ry="8"/><text id="text15" x="350.7" y="1342.7" class="text">Discord</text><line id="line15" x1="350.7" x2="350.7" y1="99.076" y2="221.301" class="arrow"/><rect id="rect15" width="200" height="26" x="250.7" y="144.7" class="label"/><text id="text16" x="350.7" y="157.7" class="text small">PRs and issues</text><line id="line16" x1="350.7" x2="350.7" y1="276.7" y2="340.7" class="arrow"/><rect id="rect16" width="200" height="26" x="250.7" y="295.7" class="label"/><text id="text17" x="350.7" y="308.7" class="text small">Mirror updates</text><line id="line17" x1="350.7" x2="350.7" y1="400.7" y2="465.7" class="arrow"/><rect id="rect17" width="200" height="26" x="250.7" y="420.2" class="label"/><text id="text18" x="350.7" y="433.2" class="text small">Claim job</text><line id="line18" x1="350.7" x2="350.7" y1="527.7" y2="665.423" class="arrow"/><rect id="rect18" width="200" height="26" x="250.7" y="545.7" class="label"/><text id="text19" x="350.7" y="558.7" class="text small">Prompt + Schema</text><line id="line19" x1="220.7" x2="270.7" y1="694.7" y2="694.7" class="arrow dash"/><rect id="rect19" width="90.919" height="26" x="196.693" y="634.758" class="label" style="stroke-width:1"/><text id="text20" x="242.153" y="647.758" class="text small">Inference</text><line id="line20" x1="480.7" x2="430.7" y1="694.7" y2="694.7" class="arrow dash"/><rect id="rect20" width="122.845" height="26" x="394.721" y="636.975" class="label" style="stroke-width:1"/><text id="text21" x="456.143" y="649.975" class="text small">Eepo context</text><line id="line21" x1="350.7" x2="350.7" y1="723.7" y2="800.7" class="arrow"/><rect id="rect21" width="200" height="26" x="250.7" y="749.2" class="label"/><text id="text22" x="350.7" y="762.2" class="text small">Structured output</text><line id="line22" x1="350.7" x2="350.7" y1="858.7" y2="945.7" class="arrow"/><rect id="rect22" width="200" height="26" x="250.7" y="895.2" class="label"/><text id="text23" x="350.7" y="908.2" class="text small">Classification JSON</text><line id="line23" x1="350.7" x2="350.7" y1="1005.7" y2="1070.7" class="arrow"/><rect id="rect23" width="200" height="26" x="250.7" y="1025.2" class="label"/><text id="text24" x="350.7" y="1038.2" class="text small">Filter by topics</text><line id="line24" x1="350.7" x2="350.7" y1="1197.986" y2="1315.211" class="arrow"/><rect id="rect24" width="200" height="26" x="250.7" y="1227.7" class="label"/><text id="text25" x="350.7" y="1240.7" class="text small">Yes</text></g></svg>