<svg xmlns="http://www.w3.org/2000/svg" xmlns:xlink="http://www.w3.org/1999/xlink" width="2221" height="1115" overflow="hidden" xml:space="preserve"><defs><clipPath id="clip0"><rect width="2221" height="1115" x="1828" y="523"/></clipPath></defs><g clip-path="url(#clip0)" transform="translate(-1828 -523)"><rect width="2218" height="1112" x="1829" y="524" fill="#FFF"/><g><path fill="none" stroke="#D9D9D9" stroke-linejoin="round" stroke-miterlimit="10" stroke-width="3.438" d="M2522.58 794.5 2522.58 1341.5M3013.6 794.5 3013.6 1341.5M3504.62 794.5 3504.62 1341.5M3996.5 794.5 3996.5 1341.5"/></g><g><path fill="#156082" d="M2149.07 1215.04 2202.07 1215.04 2202.07 1342 2149.07 1342ZM2640.09 1149.04 2693.09 1149.04 2693.09 1342 2640.09 1342ZM3132.1 1077.04 3185.1 1077.04 3185.1 1342 3132.1 1342ZM3623.12 993.033 3676.12 993.033 3676.12 1342 3623.12 1342Z"/></g><g><path fill="#E97132" d="M2250.07 1192.04 2303.08 1192.04 2303.08 1342 2250.07 1342ZM2741.09 1112.04 2794.09 1112.04 2794.09 1342 2741.09 1342ZM3233.11 1026.03 3286.11 1026.03 3286.11 1342 3233.11 1342ZM3724.12 905.03 3777.12 905.03 3777.12 1342 3724.12 1342Z"/></g><g><path fill="#196B24" d="M2351.08 1181.04 2404.08 1181.04 2404.08 1342 2351.08 1342ZM2842.09 1096.04 2895.09 1096.04 2895.09 1342 2842.09 1342ZM3334.11 998.033 3387.11 998.033 3387.11 1342 3334.11 1342ZM3825.13 885.029 3878.13 885.029 3878.13 1342 3825.13 1342Z"/></g><g><path fill="none" fill-rule="evenodd" stroke="#D9D9D9" stroke-linejoin="round" stroke-miterlimit="10" stroke-width="3.438" d="M0 0 0.000360892 547" transform="matrix(1 0 0 -1 2030.5 1341.5)"/></g><g><path fill="none" stroke="#D9D9D9" stroke-linejoin="round" stroke-miterlimit="10" stroke-width="3.438" d="M2017.5 1341.5 2030.5 1341.5M2017.5 1263.54 2030.5 1263.54M2017.5 1185.54 2030.5 1185.54M2017.5 1107.54 2030.5 1107.54M2017.5 1028.53 2030.5 1028.53M2017.5 950.531 2030.5 950.531M2017.5 872.529 2030.5 872.529M2017.5 794.5 2030.5 794.5"/></g><g><path fill="none" fill-rule="evenodd" stroke="#D9D9D9" stroke-linejoin="round" stroke-miterlimit="10" stroke-width="3.438" d="M2030.5 1341.5 3996.5 1341.5"/></g><g><text fill="#7F7F7F" font-family="Aptos Narrow,Aptos Narrow_MSFontService,sans-serif" font-size="37" font-stretch="semi-condensed" font-weight="400" transform="matrix(6.12323e-17 -1 1 6.12323e-17 2187 1188)">+0%</text></g><g><text fill="#7F7F7F" font-family="Aptos Narrow,Aptos Narrow_MSFontService,sans-serif" font-size="37" font-stretch="semi-condensed" font-weight="400" transform="matrix(6.12323e-17 -1 1 6.12323e-17 2678.44 1122)">+0%</text></g><g><text fill="#7F7F7F" font-family="Aptos Narrow,Aptos Narrow_MSFontService,sans-serif" font-size="37" font-stretch="semi-condensed" font-weight="400" transform="matrix(6.12323e-17 -1 1 6.12323e-17 3169.87 1050)">+0%</text></g><g><text fill="#7F7F7F" font-family="Aptos Narrow,Aptos Narrow_MSFontService,sans-serif" font-size="37" font-stretch="semi-condensed" font-weight="400" transform="matrix(6.12323e-17 -1 1 6.12323e-17 3661.3 966)">+0%</text></g><g><text fill="#7F7F7F" font-family="Aptos Narrow,Aptos Narrow_MSFontService,sans-serif" font-size="37" font-stretch="semi-condensed" font-weight="400" transform="matrix(6.12323e-17 -1 1 6.12323e-17 2288.06 1164)">+19%</text></g><g><text fill="#7F7F7F" font-family="Aptos Narrow,Aptos Narrow_MSFontService,sans-serif" font-size="37" font-stretch="semi-condensed" font-weight="400" transform="matrix(6.12323e-17 -1 1 6.12323e-17 2779.49 1084)">+20%</text></g><g><text fill="#7F7F7F" font-family="Aptos Narrow,Aptos Narrow_MSFontService,sans-serif" font-size="37" font-stretch="semi-condensed" font-weight="400" transform="matrix(6.12323e-17 -1 1 6.12323e-17 3270.92 998)">+20%</text></g><g><text fill="#7F7F7F" font-family="Aptos Narrow,Aptos Narrow_MSFontService,sans-serif" font-size="37" font-stretch="semi-condensed" font-weight="400" transform="matrix(6.12323e-17 -1 1 6.12323e-17 3762.35 878)">+25%</text></g><g><text fill="#7F7F7F" font-family="Aptos Narrow,Aptos Narrow_MSFontService,sans-serif" font-size="37" font-stretch="semi-condensed" font-weight="400" transform="matrix(6.12323e-17 -1 1 6.12323e-17 2389.11 1153)">+27%</text></g><g><text fill="#7F7F7F" font-family="Aptos Narrow,Aptos Narrow_MSFontService,sans-serif" font-size="37" font-stretch="semi-condensed" font-weight="400" transform="matrix(6.12323e-17 -1 1 6.12323e-17 2880.54 1069)">+28%</text></g><g><text fill="#7F7F7F" font-family="Aptos Narrow,Aptos Narrow_MSFontService,sans-serif" font-size="37" font-stretch="semi-condensed" font-weight="400" transform="matrix(6.12323e-17 -1 1 6.12323e-17 3371.97 970)">+30%</text></g><g><text fill="#7F7F7F" font-family="Aptos Narrow,Aptos Narrow_MSFontService,sans-serif" font-size="37" font-stretch="semi-condensed" font-weight="400" transform="matrix(6.12323e-17 -1 1 6.12323e-17 3863.4 858)">+31%</text></g><g><text fill="#595959" font-family="Aptos Narrow,Aptos Narrow_MSFontService,sans-serif" font-size="41" font-stretch="semi-condensed" font-weight="400" transform="matrix(1 0 0 1 1971.73 1353)">0</text></g><g><text fill="#595959" font-family="Aptos Narrow,Aptos Narrow_MSFontService,sans-serif" font-size="41" font-stretch="semi-condensed" font-weight="400" transform="matrix(1 0 0 1 1971.73 1275)">5</text></g><g><text fill="#595959" font-family="Aptos Narrow,Aptos Narrow_MSFontService,sans-serif" font-size="41" font-stretch="semi-condensed" font-weight="400" transform="matrix(1 0 0 1 1950.83 1197)">10</text></g><g><text fill="#595959" font-family="Aptos Narrow,Aptos Narrow_MSFontService,sans-serif" font-size="41" font-stretch="semi-condensed" font-weight="400" transform="matrix(1 0 0 1 1950.83 1119)">15</text></g><g><text fill="#595959" font-family="Aptos Narrow,Aptos Narrow_MSFontService,sans-serif" font-size="41" font-stretch="semi-condensed" font-weight="400" transform="matrix(1 0 0 1 1950.83 1041)">20</text></g><g><text fill="#595959" font-family="Aptos Narrow,Aptos Narrow_MSFontService,sans-serif" font-size="41" font-stretch="semi-condensed" font-weight="400" transform="matrix(1 0 0 1 1950.83 962)">25</text></g><g><text fill="#595959" font-family="Aptos Narrow,Aptos Narrow_MSFontService,sans-serif" font-size="41" font-stretch="semi-condensed" font-weight="400" transform="matrix(1 0 0 1 1950.83 884)">30</text></g><g><text fill="#595959" font-family="Aptos Narrow,Aptos Narrow_MSFontService,sans-serif" font-size="41" font-stretch="semi-condensed" font-weight="400" transform="matrix(1 0 0 1 1950.83 806)">35</text></g><g><text fill="#595959" font-family="Aptos Narrow,Aptos Narrow_MSFontService,sans-serif" font-size="37" font-stretch="semi-condensed" font-weight="400" transform="matrix(1 0 0 1 2221.99 1399)">(1, 4)</text></g><g><text fill="#595959" font-family="Aptos Narrow,Aptos Narrow_MSFontService,sans-serif" font-size="37" font-stretch="semi-condensed" font-weight="400" transform="matrix(1 0 0 1 2713.42 1399)">(4, 4)</text></g><g><text fill="#595959" font-family="Aptos Narrow,Aptos Narrow_MSFontService,sans-serif" font-size="37" font-stretch="semi-condensed" font-weight="400" transform="matrix(1 0 0 1 3204.85 1399)">(1, 1)</text></g><g><text fill="#595959" font-family="Aptos Narrow,Aptos Narrow_MSFontService,sans-serif" font-size="37" font-stretch="semi-condensed" font-weight="400" transform="matrix(1 0 0 1 3696.28 1399)">(4, 1)</text></g><g><text fill="#595959" font-family="Aptos Narrow,Aptos Narrow_MSFontService,sans-serif" font-size="41" font-stretch="semi-condensed" font-weight="400" transform="matrix(6.12323e-17 -1 1 6.12323e-17 1925.73 1182)">IMAGES / SEC</text></g><g><text fill="#595959" font-family="Aptos Narrow,Aptos Narrow_MSFontService,sans-serif" font-size="41" font-stretch="semi-condensed" font-weight="400" transform="matrix(1 0 0 1 2882.18 1462)">(BATCH, STEPS)</text></g><g><text fill="#595959" font-family="Aptos Narrow,Aptos Narrow_MSFontService,sans-serif" font-size="73" font-stretch="semi-condensed" font-weight="700" transform="matrix(1 0 0 1 2437.83 627)">SDXL TURBO (STATIC SHAPE)</text></g><g><text fill="#595959" font-family="Aptos Narrow,Aptos Narrow_MSFontService,sans-serif" font-size="73" font-stretch="semi-condensed" font-weight="700" transform="matrix(1 0 0 1 2327.6 716)">(A100</text></g><g><text fill="#595959" font-family="Aptos Narrow,Aptos Narrow_MSFontService,sans-serif" font-size="73" font-stretch="semi-condensed" font-weight="700" transform="matrix(1 0 0 1 2529.63 716)">-</text></g><g><text fill="#595959" font-family="Aptos Narrow,Aptos Narrow_MSFontService,sans-serif" font-size="73" font-stretch="semi-condensed" font-weight="700" transform="matrix(1 0 0 1 2557.96 716)">SXM4</text></g><g><text fill="#595959" font-family="Aptos Narrow,Aptos Narrow_MSFontService,sans-serif" font-size="73" font-stretch="semi-condensed" font-weight="700" transform="matrix(1 0 0 1 2749.04 716)">-</text></g><g><text fill="#595959" font-family="Aptos Narrow,Aptos Narrow_MSFontService,sans-serif" font-size="73" font-stretch="semi-condensed" font-weight="700" transform="matrix(1 0 0 1 2777 716)">80GB, 512X512, FP16)</text></g><g><rect width="22" height="23" x="2411" y="1558" fill="#156082"/></g><g><text fill="#595959" font-family="Aptos Narrow,Aptos Narrow_MSFontService,sans-serif" font-size="41" font-stretch="semi-condensed" font-weight="400" transform="matrix(1 0 0 1 2442.88 1581)">Torch (Compile)</text></g><g><rect width="23" height="23" x="2770" y="1558" fill="#E97132"/></g><g><text fill="#595959" font-family="Aptos Narrow,Aptos Narrow_MSFontService,sans-serif" font-size="41" font-stretch="semi-condensed" font-weight="400" transform="matrix(1 0 0 1 2802.34 1581)">ORT_CUDA (Static)</text></g><g><rect width="22" height="23" x="3178" y="1558" fill="#196B24"/></g><g><text fill="#595959" font-family="Aptos Narrow,Aptos Narrow_MSFontService,sans-serif" font-size="41" font-stretch="semi-condensed" font-weight="400" transform="matrix(1 0 0 1 3209.93 1581)">ORT_TRT (Static)</text></g><rect width="2218" height="1112" x="1829.5" y="524.5" fill="none" stroke="#D9D9D9" stroke-linejoin="round" stroke-miterlimit="10" stroke-width="3.438"/></g></svg>